<?xml version="1.0" encoding="UTF-8"?>
<!DOCTYPE svg PUBLIC "-//W3C//DTD SVG 1.1//EN" "http://www.w3.org/Graphics/SVG/1.1/DTD/svg11.dtd">
<!-- Creator: CorelDRAW X7 -->
<svg xmlns="http://www.w3.org/2000/svg" xml:space="preserve" width="383.422mm" height="94.5065mm" version="1.1" style="shape-rendering:geometricPrecision; text-rendering:geometricPrecision; image-rendering:optimizeQuality; fill-rule:evenodd; clip-rule:evenodd"
viewBox="0 0 18669 4602"
 xmlns:xlink="http://www.w3.org/1999/xlink">
 <defs>
  <style type="text/css">
   <![CDATA[
    .str2 {stroke:#373435;stroke-width:85.88}
    .str0 {stroke:#373435;stroke-width:128.835;stroke-linecap:round;stroke-linejoin:round}
    .str1 {stroke:#373536;stroke-width:128.835;stroke-linecap:round;stroke-linejoin:round}
    .fil0 {fill:none}
    .fil3 {fill:#D2D3D5}
    .fil2 {fill:black}
    .fil1 {fill:#57A9E2}
    .fil4 {fill:#373435;fill-rule:nonzero}
   ]]>
  </style>
 </defs>
 <g id="Layer_x0020_1">
  <metadata id="CorelCorpID_0Corel-Layer"/>
  <g id="_2995866671072">
   <polyline class="fil0 str0" points="2540,2655 3113,2655 3113,3344 3671,1965 3671,3344 4228,1965 4228,3344 4771,1965 4771,2655 5344,2655 "/>
   <path class="fil1 str1" d="M64 3894l0 -2479c0,-102 83,-184 185,-184l2074 0c102,0 183,82 183,184l0 2479c0,102 -81,184 -183,184l-2074 0c-102,0 -185,-82 -185,-184l0 0z"/>
   <path class="fil2" d="M1168 2432l0 7c0,2 0,5 0,8 29,-42 58,-72 87,-91 29,-21 59,-30 90,-30 31,0 55,9 72,27 17,17 25,44 25,79 0,22 -4,47 -10,78l-42 179c-6,24 -8,43 -8,57 0,11 1,18 5,24 3,6 8,10 15,13 6,4 19,6 34,8l-4 23 -158 0 63 -255c5,-18 10,-37 13,-56 3,-18 5,-36 5,-51 0,-25 -4,-42 -13,-52 -8,-10 -21,-15 -40,-15 -12,0 -28,5 -44,16 -16,10 -33,27 -51,48 -17,23 -31,45 -43,66 -11,22 -20,49 -27,80l-46 219 -87 0 58 -255c7,-31 11,-54 15,-68 2,-16 4,-29 4,-39 0,-25 -5,-42 -14,-52 -8,-10 -21,-15 -40,-15 -13,0 -28,5 -44,16 -17,11 -33,28 -52,51 -17,22 -33,45 -43,67 -11,22 -20,48 -26,78l-45 217 -88 0 78 -343c1,-8 3,-19 6,-34 3,-15 4,-28 4,-38 0,-9 -1,-17 -4,-22 -3,-5 -8,-9 -15,-11 -7,-3 -18,-4 -35,-5l6 -27 115 -5 29 0 -34 131 6 2c31,-47 62,-81 93,-102 29,-23 60,-34 91,-34 33,0 57,9 75,28 16,17 24,44 24,78l0 0z"/>
   <path class="fil2" d="M1736 2936c0,12 1,22 2,29 2,6 4,11 7,15 5,4 10,7 17,10 6,2 14,4 25,5 10,1 23,2 41,2l0 23 -242 0 0 -23c24,-1 41,-2 51,-4 12,-2 19,-4 25,-9 5,-4 9,-9 11,-15 3,-7 4,-19 4,-33l0 -266c0,-8 -2,-14 -5,-19 -3,-4 -7,-6 -13,-6 -6,0 -17,3 -30,11 -12,7 -28,17 -47,29l-15 -24 154 -92 17 0c-1,21 -2,51 -2,88l0 279z"/>
   <path class="fil2" d="M3692 4110l16 0c10,0 22,-2 34,-6 12,-3 25,-11 39,-19 13,-8 32,-21 55,-40 17,-14 31,-26 39,-36 8,-10 14,-19 16,-26 3,-7 6,-14 6,-22 0,-16 -12,-25 -34,-27l5 -25 163 0 9 25c-28,25 -57,50 -88,74l-128 99 76 190c7,18 13,31 20,41 7,9 16,15 25,20 9,4 21,6 35,8l-5 24 -134 0 -74 -206c-4,-13 -9,-23 -12,-27 -4,-5 -7,-8 -12,-10 -4,-2 -11,-3 -21,-3l-37 0 -52 246 -88 0 130 -575c4,-16 6,-29 7,-36 2,-8 3,-14 4,-22 0,-6 1,-11 1,-16 0,-15 -5,-24 -13,-30 -8,-5 -24,-9 -45,-9l5 -27 128 -4 28 0 -98 439z"/>
   <path class="fil2" d="M4247 4511c0,13 0,23 1,29 2,6 4,12 8,16 3,3 8,6 16,9 7,3 15,5 25,6 11,1 24,2 41,2l0 23 -242 0 0 -23c24,-1 42,-2 52,-4 10,-2 19,-6 24,-9 5,-4 9,-9 11,-16 3,-6 4,-18 4,-33l0 -265c0,-8 -1,-15 -4,-19 -3,-4 -8,-6 -13,-6 -8,0 -18,3 -30,11 -14,7 -29,17 -49,29l-14 -25 153 -91 18 0c-1,21 -1,49 -1,87l0 279z"/>
   <polyline class="fil0 str0" points="7898,2655 8471,2655 8471,3344 9028,1965 9028,3344 9586,1965 9586,3344 10128,1965 10128,2655 10701,2655 "/>
   <path class="fil1 str1" d="M5422 3894l0 -2479c0,-102 82,-184 183,-184l2075 0c101,0 184,82 184,184l0 2479c0,102 -83,184 -184,184l-2075 0c-101,0 -183,-82 -183,-184l0 0z"/>
   <path class="fil2" d="M6526 2432l0 7c0,2 0,5 -1,8 30,-42 59,-72 87,-91 29,-21 59,-30 90,-30 32,0 56,9 72,27 17,17 25,44 25,79 0,22 -3,47 -9,78l-43 179c-6,24 -9,43 -9,57 0,11 2,18 5,24 4,6 10,10 16,13 7,4 18,6 35,8l-4 23 -159 0 64 -255c4,-18 8,-37 12,-56 3,-18 5,-36 5,-51 0,-25 -4,-42 -12,-52 -8,-10 -22,-15 -40,-15 -13,0 -28,5 -44,16 -16,10 -33,27 -51,48 -18,23 -32,45 -44,66 -11,22 -20,49 -26,80l-46 219 -87 0 58 -255c7,-31 11,-54 13,-68 3,-16 4,-29 4,-39 0,-25 -4,-42 -12,-52 -8,-10 -22,-15 -40,-15 -14,0 -28,5 -45,16 -16,11 -34,28 -51,51 -19,22 -33,45 -45,67 -10,22 -18,48 -24,78l-46 217 -87 0 76 -343c2,-8 4,-19 7,-34 3,-15 4,-28 4,-38 0,-9 -1,-17 -4,-22 -3,-5 -8,-9 -15,-11 -6,-3 -18,-4 -34,-5l6 -27 114 -5 28 0 -33 131 6 2c31,-47 62,-81 92,-102 31,-23 62,-34 93,-34 32,0 57,9 73,28 18,17 26,44 26,78l0 0z"/>
   <path class="fil2" d="M7096 2969c11,0 19,-1 26,-2 7,-1 12,-4 16,-7 3,-3 6,-7 8,-12 3,-5 6,-12 10,-22l27 0 -5 94 -270 0 0 -15c9,-23 23,-46 38,-70 17,-24 40,-53 68,-85 25,-27 44,-49 55,-63 12,-16 22,-29 27,-41 6,-11 10,-22 13,-33 2,-9 4,-19 4,-30 0,-16 -3,-30 -8,-43 -5,-13 -13,-23 -24,-30 -11,-7 -24,-11 -41,-11 -40,0 -68,23 -82,68l-39 0 0 -63c25,-12 50,-21 74,-27 22,-5 43,-8 62,-8 40,0 71,9 91,27 21,17 31,43 31,77 0,11 -1,23 -3,32 -2,10 -6,20 -11,29 -4,9 -12,20 -20,31 -8,10 -17,22 -27,33 -10,11 -27,30 -52,55 -41,45 -72,83 -91,116l123 0z"/>
   <path class="fil2" d="M9049 4110l16 0c11,0 22,-2 34,-6 12,-3 25,-11 39,-19 14,-8 33,-21 55,-40 18,-14 30,-26 39,-36 9,-10 14,-19 17,-26 3,-7 5,-14 5,-22 0,-16 -11,-25 -35,-27l6 -25 163 0 9 25c-27,25 -56,50 -88,74l-127 99 75 190c7,18 14,31 21,41 7,9 15,15 23,20 11,4 22,6 37,8l-6 24 -135 0 -73 -206c-4,-13 -8,-23 -12,-27 -3,-5 -7,-8 -11,-10 -5,-2 -12,-3 -21,-3l-37 0 -53 246 -87 0 129 -575c4,-16 7,-29 8,-36 2,-8 3,-14 3,-22 1,-6 1,-11 1,-16 0,-15 -4,-24 -13,-30 -8,-5 -23,-9 -46,-9l6 -27 128 -4 29 0 -99 439z"/>
   <path class="fil2" d="M9607 4544c10,0 18,0 25,-1 7,-2 12,-4 16,-7 4,-4 7,-8 9,-12 2,-5 5,-12 8,-22l28 0 -5 94 -269 0 0 -15c9,-23 22,-46 37,-70 17,-25 39,-53 68,-85 26,-29 43,-49 55,-64 12,-15 21,-28 28,-40 5,-12 10,-22 12,-33 3,-10 4,-20 4,-31 0,-15 -2,-30 -8,-43 -5,-12 -13,-22 -24,-29 -10,-7 -25,-11 -40,-11 -41,0 -69,23 -83,68l-40 0 0 -63c27,-12 52,-22 74,-27 23,-5 44,-8 62,-8 42,0 71,9 92,27 22,17 32,43 32,77 0,11 -2,22 -4,32 -2,9 -6,20 -10,29 -6,9 -12,19 -20,30 -8,11 -18,22 -28,34 -10,11 -28,30 -52,55 -42,45 -72,83 -91,115l124 0z"/>
   <polyline class="fil0 str0" points="13277,2655 13850,2655 13850,3344 14408,1965 14408,3344 14966,1965 14966,3344 15508,1965 15508,2655 16081,2655 "/>
   <path class="fil1 str1" d="M10801 3894l0 -2479c0,-102 83,-184 185,-184l2073 0c102,0 185,82 185,184l0 2479c0,102 -83,184 -185,184l-2073 0c-102,0 -185,-82 -185,-184l0 0z"/>
   <path class="fil2" d="M11905 2432l0 7c0,2 0,5 0,8 29,-42 58,-72 87,-91 28,-21 58,-30 89,-30 32,0 57,9 72,27 18,17 26,44 26,79 0,22 -3,47 -10,78l-42 179c-6,24 -9,43 -9,57 0,11 1,18 6,24 3,6 8,10 15,13 7,4 19,6 35,8l-5 23 -158 0 63 -255c5,-18 9,-37 12,-56 5,-18 6,-36 6,-51 0,-25 -5,-42 -13,-52 -8,-10 -21,-15 -39,-15 -13,0 -28,5 -44,16 -17,10 -33,27 -52,48 -17,23 -32,45 -43,66 -11,22 -20,49 -27,80l-45 219 -88 0 58 -255c7,-31 12,-54 14,-68 3,-16 4,-29 4,-39 0,-25 -4,-42 -13,-52 -8,-10 -22,-15 -39,-15 -14,0 -29,5 -46,16 -16,11 -32,28 -51,51 -18,22 -32,45 -43,67 -12,22 -20,48 -26,78l-45 217 -88 0 77 -343c1,-8 3,-19 6,-34 4,-15 5,-28 5,-38 0,-9 -1,-17 -5,-22 -3,-5 -7,-9 -14,-11 -7,-3 -19,-4 -35,-5l6 -27 115 -5 28 0 -33 131 6 2c31,-47 61,-81 92,-102 30,-23 61,-34 93,-34 32,0 57,9 73,28 17,17 25,44 25,78l0 0z"/>
   <path class="fil2" d="M12298 2667l0 -62c25,-12 49,-22 71,-27 23,-6 43,-9 64,-9 24,0 46,4 65,11 18,9 33,19 42,33 10,15 14,32 14,52 0,18 -3,35 -10,48 -8,15 -18,27 -32,37 -13,11 -31,21 -51,31l0 3c13,3 25,7 38,13 12,5 23,12 33,21 9,10 17,21 22,33 7,14 10,28 10,45 0,24 -7,47 -17,67 -11,19 -28,35 -50,46 -23,11 -51,18 -84,18 -18,0 -39,-2 -61,-7 -21,-5 -41,-10 -58,-17l0 -69 39 0c7,23 17,39 30,49 12,11 30,16 51,16 28,0 50,-8 64,-24 15,-15 22,-38 22,-69 0,-32 -10,-56 -29,-72 -19,-18 -48,-26 -85,-26l-29 0 0 -29c29,-1 54,-7 75,-16 19,-11 35,-23 45,-37 9,-16 14,-32 14,-51 0,-25 -6,-43 -19,-57 -12,-12 -32,-19 -56,-19 -20,0 -38,6 -50,17 -13,11 -23,28 -29,51l-39 0z"/>
   <path class="fil2" d="M14429 4110l16 0c11,0 21,-2 34,-6 12,-3 24,-11 39,-19 13,-8 32,-21 54,-40 18,-14 31,-26 40,-36 8,-10 14,-19 17,-26 3,-7 4,-14 4,-22 0,-16 -11,-25 -34,-27l5 -25 163 0 11 25c-28,25 -58,50 -89,74l-128 99 75 190c8,18 15,31 21,41 7,9 15,15 25,20 9,4 21,6 36,8l-6 24 -134 0 -74 -206c-5,-13 -9,-23 -12,-27 -3,-5 -7,-8 -11,-10 -5,-2 -12,-3 -22,-3l-37 0 -53 246 -86 0 129 -575c4,-16 6,-29 8,-36 1,-8 2,-14 3,-22 1,-6 1,-11 1,-16 0,-15 -4,-24 -13,-30 -9,-5 -24,-9 -46,-9l6 -27 127 -4 29 0 -98 439z"/>
   <path class="fil2" d="M14808 4243l0 -62c25,-12 49,-22 72,-27 21,-6 43,-9 62,-9 25,0 47,4 65,11 19,8 33,19 43,33 10,15 15,31 15,52 0,18 -4,34 -11,48 -7,15 -18,27 -31,37 -14,11 -31,21 -53,31l0 2c14,3 26,8 38,14 13,5 24,12 33,21 11,10 18,21 23,33 6,13 9,28 9,44 0,25 -5,48 -16,68 -11,19 -28,35 -51,46 -22,11 -50,17 -82,17 -20,0 -39,-3 -61,-7 -22,-4 -42,-9 -60,-16l0 -69 39 0c8,22 18,38 30,48 13,11 30,16 52,16 28,0 49,-7 64,-23 14,-15 21,-38 21,-69 0,-32 -9,-56 -27,-73 -20,-17 -48,-25 -85,-25l-30 0 0 -29c30,-2 55,-7 74,-16 21,-11 35,-23 46,-37 9,-16 14,-32 14,-52 0,-24 -6,-42 -19,-56 -13,-13 -31,-19 -56,-19 -21,0 -37,6 -51,16 -12,12 -21,29 -27,52l-40 0z"/>
   <path class="fil1 str1" d="M16162 3894l0 -2479c0,-102 82,-184 184,-184l2074 0c102,0 185,82 185,184l0 2479c0,102 -83,184 -185,184l-2074 0c-102,0 -184,-82 -184,-184l0 0z"/>
   <path class="fil2" d="M17266 2432l0 7c0,2 0,5 0,8 29,-42 57,-72 86,-91 29,-21 59,-30 90,-30 32,0 57,9 73,27 17,17 25,44 25,79 0,22 -3,47 -10,78l-43 179c-5,24 -8,43 -8,57 0,11 2,18 5,24 3,6 8,10 16,13 7,4 18,6 35,8l-5 23 -158 0 63 -255c5,-18 9,-37 12,-56 4,-18 6,-36 6,-51 0,-25 -5,-42 -13,-52 -8,-10 -22,-15 -39,-15 -14,0 -28,5 -45,16 -16,10 -33,27 -51,48 -18,23 -32,45 -43,66 -12,22 -20,49 -27,80l-46 219 -87 0 57 -255c8,-31 13,-54 15,-68 3,-16 4,-29 4,-39 0,-25 -4,-42 -13,-52 -9,-10 -22,-15 -40,-15 -13,0 -28,5 -45,16 -15,11 -33,28 -51,51 -18,22 -32,45 -44,67 -11,22 -19,48 -25,78l-46 217 -86 0 76 -343c1,-8 4,-19 6,-34 3,-15 5,-28 5,-38 0,-9 -2,-17 -5,-22 -2,-5 -7,-9 -14,-11 -8,-3 -19,-4 -35,-5l6 -27 114 -5 29 0 -33 131 5 2c31,-47 62,-81 93,-102 30,-23 61,-34 93,-34 32,0 56,9 73,28 16,17 25,44 25,78l0 0z"/>
   <path class="fil2" d="M17776 3005c13,-3 23,-7 27,-11 4,-4 7,-11 9,-19 1,-8 2,-19 2,-36l0 -54 -182 0 0 -24 191 -289 47 0 0 281 7 0c12,0 22,-1 27,-2 6,-2 10,-5 13,-10 4,-4 7,-12 10,-23l25 0 -3 67 -79 0 0 54c0,14 1,26 2,32 1,7 2,12 4,16 3,5 6,8 10,10 5,3 13,5 23,8l0 15 -133 0 0 -15zm-90 -152l128 0 0 -81c0,-21 0,-43 1,-68 0,-26 1,-45 2,-58l-3 0 -128 203 0 4z"/>
  </g>
  <circle class="fil3 str2" cx="1286" cy="532" r="490"/>
  <circle class="fil3 str2" cx="6643" cy="532" r="490"/>
  <circle class="fil3 str2" cx="12000" cy="532" r="490"/>
  <circle class="fil3 str2" cx="17357" cy="532" r="490"/>
  <path class="fil4" d="M1422 807l0 -26 -27 0c-74,0 -76,-9 -76,-39l0 -463c0,-19 0,-21 -19,-21 -51,53 -124,53 -150,53l0 25c16,0 65,0 108,-21l0 427c0,30 -3,39 -77,39l-26 0 0 26c29,-2 100,-2 133,-2 33,0 105,0 134,2z"/>
  <path class="fil4" d="M6804 664l-21 0c-4,24 -10,61 -18,73 -6,7 -60,7 -78,7l-149 0 87 -85c129,-114 179,-159 179,-241 0,-94 -75,-160 -175,-160 -93,0 -154,76 -154,149 0,46 41,46 43,46 14,0 43,-10 43,-43 0,-22 -15,-43 -44,-43 -6,0 -8,0 -10,1 19,-54 63,-85 111,-85 75,0 111,67 111,135 0,66 -42,131 -87,182l-158 177c-9,9 -9,10 -9,30l305 0 24 -143z"/>
  <path class="fil4" d="M12167 666c0,-68 -52,-132 -137,-149 67,-22 115,-80 115,-145 0,-68 -73,-114 -152,-114 -83,0 -146,49 -146,112 0,27 18,43 42,43 26,0 42,-18 42,-42 0,-41 -38,-41 -51,-41 26,-41 80,-51 110,-51 34,0 79,18 79,92 0,10 -2,58 -23,94 -25,39 -53,42 -73,43 -7,1 -27,2 -33,2 -6,1 -12,2 -12,10 0,9 6,9 20,9l36 0c68,0 98,56 98,137 0,112 -57,136 -93,136 -35,0 -97,-14 -126,-63 29,5 54,-14 54,-45 0,-30 -22,-46 -46,-46 -20,0 -46,11 -46,48 0,75 77,129 167,129 100,0 175,-75 175,-159z"/>
  <path class="fil4" d="M17536 671l0 -26 -83 0 0 -375c0,-16 0,-21 -13,-21 -7,0 -10,0 -16,10l-253 386 0 26 219 0 0 72c0,29 -2,38 -63,38l-17 0 0 26c34,-2 77,-2 111,-2 35,0 79,0 112,2l0 -26 -17 0c-61,0 -63,-9 -63,-38l0 -72 83 0zm-141 -26l-201 0 201 -307 0 307z"/>
 </g>
</svg>
