<?xml version="1.0" encoding="UTF-8" standalone="no"?>
<!-- Creator: CorelDRAW X7 -->

<svg
   xml:space="preserve"
   width="494.67392mm"
   height="200.61691mm"
   version="1.1"
   style="clip-rule:evenodd;fill-rule:evenodd;image-rendering:optimizeQuality;shape-rendering:geometricPrecision;text-rendering:geometricPrecision"
   viewBox="0 0 12208.196 4951.5288"
   id="svg55"
   sodipodi:docname="A_B2.svg"
   inkscape:version="1.3.2 (091e20e, 2023-11-25, custom)"
   xmlns:inkscape="http://www.inkscape.org/namespaces/inkscape"
   xmlns:sodipodi="http://sodipodi.sourceforge.net/DTD/sodipodi-0.dtd"
   xmlns="http://www.w3.org/2000/svg"
   xmlns:svg="http://www.w3.org/2000/svg"><sodipodi:namedview
   id="namedview55"
   pagecolor="#ffffff"
   bordercolor="#666666"
   borderopacity="1.0"
   inkscape:showpageshadow="2"
   inkscape:pageopacity="0.0"
   inkscape:pagecheckerboard="0"
   inkscape:deskcolor="#d1d1d1"
   inkscape:document-units="mm"
   inkscape:zoom="0.58398534"
   inkscape:cx="934.95498"
   inkscape:cy="379.29034"
   inkscape:window-width="1920"
   inkscape:window-height="1001"
   inkscape:window-x="-9"
   inkscape:window-y="-9"
   inkscape:window-maximized="1"
   inkscape:current-layer="Layer_x0020_1" />
 <defs
   id="defs1">
  <style
   type="text/css"
   id="style1">
   <![CDATA[
    .str4 {stroke:#373435;stroke-width:43.5291}
    .str0 {stroke:black;stroke-width:1.88055;stroke-linecap:round;stroke-linejoin:round}
    .str1 {stroke:#363636;stroke-width:130.602}
    .str2 {stroke:#373435;stroke-width:65.301;stroke-linecap:round;stroke-linejoin:round}
    .str3 {stroke:#373536;stroke-width:65.301;stroke-linecap:round;stroke-linejoin:round}
    .fil1 {fill:none}
    .fil5 {fill:#D2D3D5}
    .fil3 {fill:black}
    .fil0 {fill:#373536}
    .fil2 {fill:#57A9E2}
    .fil4 {fill:#E05757}
    .fil6 {fill:#373435;fill-rule:nonzero}
   ]]>
  </style>
 </defs>
 <g
   id="Layer_x0020_1"
   inkscape:label="Layer 1"
   inkscape:groupmode="layer"
   transform="translate(-0.90170178,-0.23545074)">
  <metadata
   id="CorelCorpID_0Corel-Layer" />
  <g
   id="drawing.emf">
   <line
   class="fil0 str0"
   x1="8833"
   y1="2159"
   x2="8833"
   y2="2798"
   id="line1" />
   <line
   class="fil1 str1"
   x1="8833"
   y1="2159"
   x2="8833"
   y2="2798"
   id="line2" />
   <line
   class="fil0"
   x1="6095"
   y1="2146"
   x2="6095"
   y2="2786"
   id="line3" />
   <line
   class="fil1 str1"
   x1="6095"
   y1="2146"
   x2="6095"
   y2="2786"
   id="line4" />
   <line
   class="fil0"
   x1="3367"
   y1="2146"
   x2="3367"
   y2="2786"
   id="line5" />
   <line
   class="fil1 str1"
   x1="3367"
   y1="2146"
   x2="3367"
   y2="2786"
   id="line6" />
   <polyline
   class="fil1 str2"
   points="1287,1435 1578,1435 1578,1785 1861,1086 1861,1785 2143,1086 2143,1785 2418,1086 2418,1435 2708,1435 "
   id="polyline6" />
   <path
   class="fil2 str3"
   d="M 33,2064 V 807 c 0,-51 41,-93 93,-93 h 1051 c 51,0 93,42 93,93 v 1257 c 0,52 -42,93 -93,93 H 126 c -52,0 -93,-41 -93,-93 z"
   id="path6" />
   <path
   class="fil3"
   d="m 592,1323 v 3 c 0,2 0,3 0,4 15,-21 29,-36 44,-46 15,-10 30,-15 45,-15 17,0 29,4 37,13 8,10 13,23 13,41 0,10 -2,24 -5,39 l -22,91 c -3,12 -4,22 -4,29 0,5 1,9 2,12 2,3 5,5 8,7 4,1 10,2 18,3 l -2,13 h -81 l 33,-130 c 2,-9 4,-19 6,-28 2,-10 3,-19 3,-27 0,-12 -2,-20 -7,-26 -4,-5 -11,-8 -20,-8 -7,0 -14,3 -22,9 -8,5 -17,13 -26,25 -9,11 -17,22 -22,33 -6,11 -10,24 -14,40 l -23,112 h -44 l 29,-130 c 4,-16 6,-27 7,-35 2,-8 2,-14 2,-20 0,-12 -2,-20 -6,-26 -4,-5 -11,-8 -20,-8 -7,0 -15,4 -23,9 -8,6 -17,14 -26,25 -9,12 -17,23 -22,35 -6,11 -10,24 -13,39 l -23,111 h -44 l 38,-175 c 1,-3 2,-9 4,-17 1,-8 2,-14 2,-19 0,-5 -1,-9 -2,-11 -2,-3 -4,-5 -8,-6 -3,-1 -9,-2 -17,-3 l 3,-13 58,-3 h 14 l -17,67 3,1 c 16,-24 32,-41 47,-52 16,-12 31,-17 47,-17 16,0 29,4 37,14 9,9 13,22 13,40 z"
   id="path7" />
   <path
   class="fil3"
   d="m 880,1578 c 0,6 1,11 1,15 1,3 2,5 4,7 2,3 4,4 8,5 3,1 7,2 13,3 5,0 12,1 21,1 v 12 H 804 v -12 c 12,-1 21,-1 26,-2 5,-1 9,-2 12,-4 3,-3 5,-5 6,-8 1,-4 2,-9 2,-17 v -135 c 0,-4 -1,-7 -2,-9 -2,-2 -4,-3 -7,-3 -4,0 -9,1 -15,5 -7,4 -15,9 -24,15 l -8,-12 78,-47 h 9 c 0,11 -1,26 -1,44 z"
   id="path8" />
   <path
   class="fil3"
   d="m 1871,2173 h 8 c 6,0 11,-1 18,-3 5,-2 12,-5 19,-9 7,-5 17,-11 28,-21 9,-7 15,-13 20,-18 4,-5 7,-10 8,-13 2,-4 3,-8 3,-11 0,-9 -6,-13 -18,-14 l 3,-12 h 83 l 5,12 c -14,13 -29,25 -45,37 l -65,51 39,97 c 3,8 6,15 10,19 4,5 8,8 12,11 5,2 11,4 18,4 l -2,12 h -69 l -37,-104 c -2,-7 -4,-12 -6,-14 -2,-3 -4,-4 -6,-5 -2,-1 -6,-2 -10,-2 h -20 l -26,125 h -44 l 66,-291 c 1,-9 3,-15 3,-19 1,-3 2,-7 2,-10 0,-4 0,-6 0,-9 0,-7 -2,-12 -6,-15 -4,-3 -12,-4 -23,-5 l 3,-13 65,-3 h 14 z"
   id="path9" />
   <path
   class="fil3"
   d="m 2152,2377 c 0,6 1,11 1,14 1,4 2,6 4,8 2,2 4,4 8,5 3,1 8,2 13,3 5,0 12,1 21,1 v 12 h -123 v -12 c 12,-1 21,-1 26,-3 6,-1 9,-2 12,-4 3,-2 5,-4 6,-8 2,-3 2,-9 2,-16 v -135 c 0,-4 -1,-7 -2,-9 -2,-3 -4,-4 -7,-4 -3,0 -8,2 -15,6 -7,3 -14,9 -24,15 l -8,-13 78,-46 h 9 c 0,10 -1,25 -1,44 z"
   id="path10" />
   <polyline
   class="fil1 str2"
   points="4003,1435 4293,1435 4293,1785 4576,1086 4576,1785 4859,1086 4859,1785 5134,1086 5134,1435 5424,1435 "
   id="polyline10" />
   <path
   class="fil2 str3"
   d="M 2748,2064 V 807 c 0,-51 41,-93 93,-93 h 1051 c 52,0 94,42 94,93 v 1257 c 0,52 -42,93 -94,93 H 2841 c -52,0 -93,-41 -93,-93 z"
   id="path11" />
   <path
   class="fil3"
   d="m 3308,1323 v 3 c 0,2 -1,3 -1,4 15,-21 30,-36 45,-46 14,-10 29,-15 44,-15 17,0 29,4 38,13 8,10 12,23 12,41 0,10 -1,24 -5,39 l -22,91 c -2,12 -4,22 -4,29 0,5 1,9 3,12 1,3 4,5 8,7 3,1 9,2 18,3 l -3,13 h -80 l 32,-130 c 2,-9 5,-19 6,-28 2,-10 3,-19 3,-27 0,-12 -2,-20 -6,-26 -5,-5 -11,-8 -20,-8 -7,0 -15,3 -23,9 -8,5 -17,13 -25,25 -10,11 -17,22 -23,33 -6,11 -10,24 -14,40 l -22,112 h -45 l 30,-130 c 3,-16 6,-27 7,-35 1,-8 2,-14 2,-20 0,-12 -2,-20 -7,-26 -4,-5 -11,-8 -20,-8 -7,0 -15,4 -23,9 -8,6 -17,14 -25,25 -10,12 -17,23 -23,35 -5,11 -9,24 -12,39 l -24,111 h -44 l 39,-175 c 1,-3 2,-9 3,-17 1,-8 3,-14 3,-19 0,-5 -2,-9 -3,-11 -1,-3 -4,-5 -7,-6 -4,-1 -10,-2 -18,-3 l 3,-13 58,-3 h 15 l -17,67 3,1 c 16,-24 31,-41 47,-52 15,-12 31,-17 47,-17 16,0 28,4 37,14 8,9 13,22 13,40 z"
   id="path12" />
   <path
   class="fil3"
   d="m 3597,1595 c 5,0 10,-1 13,-1 3,-1 5,-2 7,-3 3,-2 4,-4 5,-7 1,-2 3,-6 5,-11 h 14 l -3,48 h -137 v -8 c 5,-12 11,-24 20,-36 8,-12 19,-26 34,-42 13,-14 22,-25 28,-33 6,-8 10,-14 14,-20 3,-6 5,-12 6,-16 1,-6 2,-11 2,-16 0,-8 -1,-16 -4,-22 -2,-6 -7,-11 -12,-15 -5,-4 -12,-5 -21,-5 -21,0 -34,11 -41,34 h -20 v -32 c 13,-6 25,-11 37,-13 12,-3 22,-5 32,-5 20,0 36,5 46,14 11,8 16,22 16,39 0,6 -1,11 -2,16 -1,5 -3,10 -5,15 -3,4 -6,10 -10,15 -5,5 -9,11 -14,17 -5,6 -14,15 -27,28 -21,23 -36,42 -46,59 z"
   id="path13" />
   <path
   class="fil3"
   d="m 4587,2173 h 8 c 5,0 11,-1 17,-3 6,-2 13,-5 19,-9 7,-5 17,-11 29,-21 9,-7 15,-13 19,-18 4,-5 7,-10 9,-13 1,-4 2,-8 2,-11 0,-9 -6,-13 -17,-14 l 3,-12 h 82 l 5,12 c -14,13 -29,25 -45,37 l -64,51 38,97 c 3,8 7,15 11,19 3,5 7,8 12,11 4,2 11,4 18,4 l -3,12 h -68 l -37,-104 c -3,-7 -5,-12 -7,-14 -1,-3 -3,-4 -5,-5 -2,-1 -6,-2 -11,-2 h -19 l -27,125 h -44 l 66,-291 c 2,-9 3,-15 4,-19 0,-3 1,-7 1,-10 1,-4 1,-6 1,-9 0,-7 -2,-12 -6,-15 -5,-3 -12,-4 -24,-5 l 3,-13 65,-3 h 15 z"
   id="path14" />
   <path
   class="fil3"
   d="m 4869,2393 c 5,0 10,0 13,-1 3,-1 6,-2 8,-3 2,-2 3,-3 4,-6 2,-3 3,-6 5,-11 h 14 l -3,48 h -136 v -8 c 5,-12 11,-24 19,-36 8,-12 20,-26 34,-43 13,-14 22,-25 28,-32 6,-8 11,-15 14,-20 3,-6 5,-12 6,-17 2,-5 3,-10 3,-15 0,-9 -2,-16 -5,-22 -2,-7 -6,-12 -12,-15 -5,-4 -12,-6 -21,-6 -20,0 -34,11 -41,34 h -20 v -31 c 13,-7 25,-11 37,-14 12,-3 22,-4 32,-4 20,0 36,4 46,13 11,9 16,22 16,40 0,5 -1,11 -2,16 -1,4 -3,10 -5,14 -2,5 -6,10 -10,16 -4,5 -9,11 -14,17 -5,6 -14,15 -27,28 -20,22 -36,42 -46,58 z"
   id="path15" />
   <polyline
   class="fil1 str2"
   points="6730,1435 7020,1435 7020,1785 7303,1086 7303,1785 7585,1086 7585,1785 7860,1086 7860,1435 8150,1435 "
   id="polyline15" />
   <path
   class="fil2 str3"
   d="M 5475,2064 V 807 c 0,-51 41,-93 93,-93 h 1051 c 52,0 93,42 93,93 v 1257 c 0,52 -41,93 -93,93 H 5568 c -52,0 -93,-41 -93,-93 z"
   id="path16" />
   <path
   class="fil3"
   d="m 6034,1323 v 3 c 0,2 0,3 0,4 15,-21 29,-36 44,-46 15,-10 30,-15 46,-15 16,0 28,4 36,13 9,10 13,23 13,41 0,10 -2,24 -5,39 l -22,91 c -3,12 -4,22 -4,29 0,5 1,9 2,12 2,3 5,5 9,7 3,1 9,2 17,3 l -2,13 h -80 l 32,-130 c 2,-9 5,-19 6,-28 2,-10 3,-19 3,-27 0,-12 -2,-20 -7,-26 -4,-5 -11,-8 -20,-8 -6,0 -14,3 -22,9 -8,5 -17,13 -26,25 -9,11 -16,22 -22,33 -6,11 -10,24 -13,40 l -24,112 h -44 l 29,-130 c 4,-16 6,-27 8,-35 1,-8 2,-14 2,-20 0,-12 -3,-20 -7,-26 -4,-5 -11,-8 -20,-8 -7,0 -15,4 -23,9 -8,6 -17,14 -26,25 -9,12 -17,23 -22,35 -6,11 -10,24 -13,39 l -23,111 h -44 l 38,-175 c 1,-3 2,-9 4,-17 2,-8 2,-14 2,-19 0,-5 0,-9 -2,-11 -2,-3 -4,-5 -7,-6 -4,-1 -10,-2 -18,-3 l 3,-13 58,-3 h 14 l -17,67 4,1 c 15,-24 31,-41 46,-52 16,-12 31,-17 47,-17 17,0 29,4 38,14 8,9 12,22 12,40 z"
   id="path17" />
   <path
   class="fil3"
   d="m 6233,1442 v -32 c 13,-6 25,-10 36,-13 11,-3 22,-5 33,-5 12,0 23,2 33,6 9,4 16,10 21,16 5,8 7,17 7,27 0,9 -1,17 -5,25 -4,6 -9,13 -16,18 -7,5 -16,10 -27,16 v 1 c 7,1 14,3 20,6 6,3 12,7 17,11 5,5 8,11 11,18 3,6 4,13 4,22 0,12 -2,24 -8,34 -5,9 -14,17 -25,23 -12,6 -26,9 -42,9 -10,0 -20,-1 -31,-3 -11,-3 -21,-5 -30,-9 v -35 h 19 c 5,11 10,20 16,25 6,5 15,8 26,8 14,0 25,-4 33,-12 7,-8 11,-19 11,-35 0,-16 -5,-28 -15,-37 -10,-9 -24,-13 -43,-13 h -14 v -14 c 14,-1 27,-4 37,-9 10,-4 18,-11 23,-19 5,-7 7,-16 7,-25 0,-13 -3,-22 -9,-28 -7,-7 -17,-10 -29,-10 -11,0 -19,2 -25,8 -7,6 -12,14 -15,26 z"
   id="path18" />
   <path
   class="fil3"
   d="m 7314,2173 h 7 c 6,0 11,-1 18,-3 6,-2 12,-5 19,-9 7,-5 17,-11 28,-21 9,-7 16,-13 20,-18 4,-5 7,-10 8,-13 2,-4 3,-8 3,-11 0,-9 -6,-13 -17,-14 l 2,-12 h 83 l 5,12 c -14,13 -29,25 -45,37 l -65,51 39,97 c 3,8 6,15 10,19 4,5 8,8 13,11 4,2 10,4 17,4 l -2,12 h -68 l -38,-104 c -2,-7 -4,-12 -6,-14 -2,-3 -3,-4 -6,-5 -2,-1 -6,-2 -10,-2 h -19 l -27,125 h -44 l 66,-291 c 2,-9 3,-15 3,-19 1,-3 2,-7 2,-10 0,-4 1,-6 1,-9 0,-7 -3,-12 -7,-15 -4,-3 -12,-4 -23,-5 l 3,-13 65,-3 h 14 z"
   id="path19" />
   <path
   class="fil3"
   d="m 7505,2240 v -31 c 13,-6 25,-11 36,-14 12,-3 22,-4 33,-4 12,0 23,2 33,6 9,4 16,9 21,16 5,8 8,16 8,26 0,10 -2,18 -6,25 -3,7 -9,14 -16,19 -7,5 -15,10 -26,15 v 2 c 7,1 13,3 19,6 6,3 12,7 17,11 5,5 9,11 11,17 4,7 5,14 5,22 0,13 -3,24 -8,34 -6,10 -14,18 -26,24 -11,6 -25,8 -42,8 -10,0 -20,-1 -31,-3 -11,-2 -21,-5 -30,-8 v -35 h 20 c 4,11 9,20 15,25 6,5 15,8 26,8 14,0 25,-5 33,-12 7,-8 11,-20 11,-35 0,-17 -5,-29 -15,-37 -9,-9 -24,-13 -43,-13 h -14 v -15 c 14,-1 27,-3 37,-8 11,-5 18,-11 23,-19 5,-8 8,-16 8,-25 0,-13 -4,-22 -10,-29 -7,-6 -16,-10 -29,-10 -10,0 -18,3 -25,8 -6,6 -12,15 -15,26 z"
   id="path20" />
   <path
   class="fil2 str3"
   d="M 8192,2064 V 807 c 0,-51 42,-93 93,-93 h 1051 c 52,0 93,42 93,93 v 1257 c 0,52 -41,93 -93,93 H 8285 c -51,0 -93,-41 -93,-93 z"
   id="path21" />
   <path
   class="fil3"
   d="m 8751,1323 v 3 c 0,2 0,3 0,4 15,-21 30,-36 44,-46 15,-10 30,-15 46,-15 16,0 28,4 36,13 9,10 13,23 13,41 0,10 -2,24 -5,39 l -21,91 c -4,12 -5,22 -5,29 0,5 1,9 3,12 2,3 4,5 8,7 3,1 9,2 17,3 l -2,13 h -80 l 32,-130 c 3,-9 5,-19 6,-28 2,-10 3,-19 3,-27 0,-12 -2,-20 -6,-26 -5,-5 -11,-8 -21,-8 -6,0 -14,3 -22,9 -8,5 -17,13 -26,25 -9,11 -16,22 -22,33 -6,11 -10,24 -13,40 l -24,112 h -44 l 29,-130 c 4,-16 6,-27 8,-35 1,-8 2,-14 2,-20 0,-12 -3,-20 -7,-26 -4,-5 -11,-8 -20,-8 -7,0 -14,4 -23,9 -8,6 -16,14 -26,25 -9,12 -17,23 -22,35 -6,11 -10,24 -13,39 l -23,111 h -44 l 39,-175 c 0,-3 1,-9 3,-17 2,-8 2,-14 2,-19 0,-5 0,-9 -2,-11 -2,-3 -4,-5 -7,-6 -4,-1 -10,-2 -18,-3 l 3,-13 58,-3 h 15 l -18,67 4,1 c 15,-24 31,-41 47,-52 15,-12 30,-17 46,-17 17,0 29,4 38,14 8,9 12,22 12,40 z"
   id="path22" />
   <path
   class="fil3"
   d="m 9009,1613 c 8,-2 12,-4 14,-6 3,-2 4,-5 5,-9 1,-4 1,-10 1,-18 v -28 h -92 v -12 l 97,-146 h 23 v 142 h 4 c 6,0 11,0 14,-1 2,-1 5,-2 6,-5 3,-2 4,-6 6,-12 h 12 l -2,34 h -40 v 28 c 0,7 1,13 1,16 0,3 1,6 3,8 1,2 3,4 5,5 2,1 6,3 11,4 v 8 h -68 z m -45,-77 h 65 v -41 c 0,-10 0,-22 1,-35 0,-13 0,-23 1,-29 h -2 l -65,103 z"
   id="path23" />
   <polyline
   class="fil1 str2"
   points="4035,3516 4326,3516 4326,3866 4608,3167 4608,3866 4891,3167 4891,3866 5166,3167 5166,3516 5456,3516 "
   id="polyline23" />
   <path
   class="fil4 str3"
   d="M 2781,4145 V 2888 c 0,-52 41,-93 93,-93 h 1051 c 51,0 93,41 93,93 v 1257 c 0,51 -42,93 -93,93 H 2874 c -52,0 -93,-42 -93,-93 z"
   id="path24" />
   <path
   class="fil3"
   d="m 3340,3404 v 3 c 0,2 0,3 0,4 15,-21 29,-36 44,-46 15,-10 30,-15 45,-15 17,0 29,4 37,14 8,8 13,22 13,40 0,11 -2,24 -5,39 l -22,91 c -3,12 -4,22 -4,29 0,5 1,9 2,12 2,3 4,5 8,6 4,2 10,3 18,4 l -2,13 h -81 l 33,-130 c 2,-9 4,-19 6,-28 2,-10 3,-19 3,-27 0,-12 -2,-21 -7,-25 -4,-6 -11,-9 -20,-9 -7,0 -14,3 -22,9 -8,5 -17,13 -26,25 -9,11 -17,22 -23,33 -5,11 -9,24 -13,40 l -23,112 h -44 l 29,-130 c 4,-16 6,-28 7,-35 2,-8 2,-14 2,-20 0,-12 -2,-21 -6,-25 -5,-6 -11,-9 -20,-9 -7,0 -15,3 -23,9 -8,5 -17,14 -26,25 -9,12 -17,23 -23,35 -5,11 -9,24 -12,39 l -24,111 h -43 l 38,-175 c 1,-3 2,-9 4,-17 1,-7 2,-14 2,-19 0,-5 -1,-9 -2,-11 -2,-3 -4,-5 -8,-6 -3,-1 -9,-2 -17,-3 l 3,-13 58,-2 h 14 l -17,65 3,1 c 16,-23 32,-40 47,-51 16,-12 31,-17 47,-17 16,0 29,4 37,14 9,9 13,22 13,40 z"
   id="path25" />
   <path
   class="fil3"
   d="m 3538,3693 v -35 h 19 c 4,11 9,20 16,25 6,5 15,8 26,8 14,0 25,-5 33,-13 7,-9 11,-23 11,-40 0,-12 -2,-22 -6,-29 -4,-8 -9,-13 -16,-17 -7,-3 -14,-5 -23,-5 -8,0 -14,0 -20,1 -5,1 -11,3 -17,4 l -14,-7 v -109 h 92 c 4,0 6,-1 8,-1 2,-1 3,-2 4,-3 1,-1 2,-4 4,-7 h 12 l -2,38 h -96 v 73 c 6,-2 12,-4 19,-6 7,-1 14,-1 21,-1 13,0 24,3 35,8 10,5 17,13 23,23 5,10 8,21 8,34 0,15 -3,27 -9,38 -6,11 -15,19 -27,24 -12,6 -26,9 -41,9 -20,0 -40,-4 -60,-12 z"
   id="path26" />
   <path
   class="fil3"
   d="m 4619,4254 h 8 c 6,0 11,-1 18,-3 5,-2 12,-5 19,-9 7,-5 16,-12 28,-21 9,-7 15,-13 19,-18 5,-5 8,-10 9,-13 2,-4 2,-8 2,-11 0,-8 -5,-13 -17,-14 l 3,-13 h 83 l 5,13 c -15,13 -30,25 -45,38 l -65,50 38,96 c 4,9 7,16 11,20 4,5 8,9 12,11 5,2 11,3 18,4 l -2,12 h -69 l -37,-105 c -3,-6 -4,-11 -6,-13 -2,-2 -4,-4 -6,-5 -2,-1 -6,-2 -10,-2 h -20 l -26,125 h -44 l 66,-291 c 1,-9 3,-15 3,-19 1,-4 2,-7 2,-10 0,-3 0,-7 0,-9 0,-7 -2,-12 -6,-15 -4,-3 -12,-5 -23,-5 l 3,-13 64,-3 h 15 z"
   id="path27" />
   <path
   class="fil3"
   d="m 4870,4493 c 8,-2 12,-4 14,-6 2,-2 4,-5 5,-10 1,-3 1,-10 1,-18 v -27 h -92 v -13 l 97,-146 h 23 v 143 h 4 c 6,0 11,0 14,-1 2,-1 5,-3 6,-6 2,-2 4,-6 6,-11 h 12 l -2,34 h -40 v 27 c 0,8 1,13 1,16 0,4 1,7 2,9 1,2 4,3 6,5 2,1 6,3 11,4 v 8 h -68 z m -45,-77 h 65 v -42 c 0,-9 0,-21 0,-34 1,-13 1,-23 2,-29 h -2 l -65,103 z"
   id="path28" />
   <polyline
   class="fil1 str2"
   points="6751,3516 7041,3516 7041,3866 7324,3167 7324,3866 7607,3167 7607,3866 7881,3167 7881,3516 8172,3516 "
   id="polyline28" />
   <path
   class="fil4 str3"
   d="M 5496,4145 V 2888 c 0,-52 41,-93 93,-93 h 1051 c 52,0 94,41 94,93 v 1257 c 0,51 -42,93 -94,93 H 5589 c -52,0 -93,-42 -93,-93 z"
   id="path29" />
   <path
   class="fil3"
   d="m 6055,3404 v 3 c 0,2 0,3 0,4 15,-21 29,-36 44,-46 15,-10 30,-15 45,-15 17,0 29,4 37,14 9,8 13,22 13,40 0,11 -2,24 -5,39 l -22,91 c -2,12 -4,22 -4,29 0,5 1,9 3,12 1,3 4,5 8,6 3,2 9,3 17,4 l -2,13 h -80 l 32,-130 c 2,-9 4,-19 6,-28 2,-10 3,-19 3,-27 0,-12 -2,-21 -7,-25 -4,-6 -11,-9 -19,-9 -7,0 -15,3 -23,9 -8,5 -17,13 -26,25 -9,11 -16,22 -22,33 -6,11 -10,24 -14,40 l -23,112 h -44 l 29,-130 c 4,-16 7,-28 8,-35 1,-8 2,-14 2,-20 0,-12 -2,-21 -7,-25 -4,-6 -11,-9 -20,-9 -7,0 -15,3 -23,9 -8,5 -17,14 -26,25 -9,12 -16,23 -22,35 -5,11 -10,24 -13,39 l -23,111 h -44 l 39,-175 c 1,-3 2,-9 3,-17 1,-7 2,-14 2,-19 0,-5 -1,-9 -2,-11 -1,-3 -4,-5 -7,-6 -4,-1 -10,-2 -18,-3 l 3,-13 58,-2 h 15 l -17,65 3,1 c 16,-23 31,-40 46,-51 16,-12 32,-17 47,-17 17,0 29,4 38,14 8,9 12,22 12,40 z"
   id="path30" />
   <path
   class="fil3"
   d="m 6379,3482 v 9 c -17,0 -32,3 -45,11 -14,7 -25,17 -33,31 -9,14 -14,31 -18,51 l 1,1 c 10,-7 19,-12 28,-15 9,-3 18,-5 29,-5 12,0 23,3 32,9 9,5 15,13 20,23 4,10 6,21 6,34 0,15 -2,27 -8,38 -5,11 -14,20 -26,26 -11,7 -25,10 -42,10 -24,0 -43,-8 -55,-23 -12,-15 -19,-37 -19,-66 0,-20 4,-38 10,-55 6,-18 15,-33 26,-45 11,-13 25,-23 40,-31 15,-7 30,-11 47,-12 z m -49,100 c -6,0 -11,2 -16,3 -5,1 -10,3 -14,5 -5,2 -9,5 -13,9 -2,1 -3,2 -3,3 -1,2 -2,5 -2,8 -1,3 -1,9 -1,16 0,21 4,37 11,48 7,11 17,17 32,17 8,0 15,-2 21,-5 6,-3 10,-6 14,-12 3,-5 5,-11 7,-17 1,-7 3,-14 3,-22 0,-17 -4,-30 -11,-38 -7,-10 -16,-15 -28,-15 z"
   id="path31" />
   <path
   class="fil3"
   d="m 7334,4254 h 9 c 5,0 11,-1 17,-3 6,-2 13,-5 19,-9 7,-5 17,-12 29,-21 8,-7 15,-13 19,-18 4,-5 7,-10 9,-13 1,-4 2,-8 2,-11 0,-8 -6,-13 -17,-14 l 2,-13 h 83 l 5,13 c -14,13 -29,25 -45,38 l -65,50 39,96 c 3,9 7,16 10,20 4,5 8,9 12,11 5,2 11,3 19,4 l -3,12 h -68 l -37,-105 c -3,-6 -5,-11 -7,-13 -1,-2 -3,-4 -5,-5 -2,-1 -6,-2 -11,-2 h -19 l -27,125 h -44 l 66,-291 c 2,-9 3,-15 4,-19 0,-4 1,-7 1,-10 1,-3 1,-7 1,-9 0,-7 -2,-12 -7,-15 -4,-3 -12,-5 -23,-5 l 3,-13 64,-3 h 16 z"
   id="path32" />
   <path
   class="fil3"
   d="m 7525,4492 v -35 h 20 c 4,11 8,19 15,25 7,5 15,7 26,7 15,0 26,-4 34,-13 7,-9 11,-22 11,-39 0,-12 -2,-22 -6,-30 -4,-7 -9,-13 -16,-16 -7,-4 -15,-6 -24,-6 -8,0 -14,1 -19,2 -6,1 -12,2 -18,4 l -13,-8 v -109 h 92 c 3,0 6,0 7,0 2,-1 3,-2 5,-3 1,-2 2,-4 3,-8 h 13 l -2,39 h -96 v 72 c 6,-2 12,-4 19,-5 7,-1 13,-2 20,-2 13,0 25,3 35,9 10,5 18,13 24,23 5,9 8,21 8,34 0,15 -3,27 -9,38 -7,11 -15,18 -27,24 -12,5 -26,9 -42,9 -19,0 -39,-5 -60,-12 z"
   id="path33" />
   <polyline
   class="fil1 str2"
   points="9477,3516 9768,3516 9768,3866 10051,3167 10051,3866 10333,3167 10333,3866 10608,3167 10608,3516 10898,3516 "
   id="polyline33" />
   <path
   class="fil4 str3"
   d="M 8223,4145 V 2888 c 0,-52 41,-93 93,-93 h 1051 c 52,0 93,41 93,93 v 1257 c 0,51 -41,93 -93,93 H 8316 c -52,0 -93,-42 -93,-93 z"
   id="path34" />
   <path
   class="fil3"
   d="m 8782,3404 v 3 c 0,2 0,3 0,4 15,-21 29,-36 44,-46 15,-10 30,-15 45,-15 17,0 29,4 37,14 8,8 13,22 13,40 0,11 -2,24 -5,39 l -22,91 c -3,12 -4,22 -4,29 0,5 1,9 2,12 2,3 5,5 8,6 4,2 10,3 18,4 l -2,13 h -81 l 33,-130 c 2,-9 4,-19 6,-28 2,-10 3,-19 3,-27 0,-12 -2,-21 -7,-25 -4,-6 -11,-9 -20,-9 -6,0 -14,3 -22,9 -8,5 -17,13 -26,25 -9,11 -16,22 -22,33 -6,11 -10,24 -14,40 l -23,112 h -44 l 29,-130 c 4,-16 6,-28 8,-35 1,-8 1,-14 1,-20 0,-12 -2,-21 -6,-25 -4,-6 -11,-9 -20,-9 -7,0 -15,3 -23,9 -8,5 -17,14 -26,25 -9,12 -17,23 -23,35 -5,11 -9,24 -12,39 l -23,111 h -44 l 38,-175 c 1,-3 2,-9 4,-17 1,-7 2,-14 2,-19 0,-5 -1,-9 -2,-11 -2,-3 -4,-5 -7,-6 -4,-1 -10,-2 -18,-3 l 3,-13 58,-2 h 14 l -17,65 3,1 c 16,-23 32,-40 47,-51 16,-12 31,-17 47,-17 16,0 29,4 38,14 8,9 12,22 12,40 z"
   id="path35" />
   <path
   class="fil3"
   d="m 9125,3484 -97,219 h -24 v -8 l 89,-189 v -2 h -72 c -5,0 -9,0 -11,1 -3,1 -5,2 -7,3 -2,2 -3,4 -5,7 -1,2 -2,7 -4,15 h -15 l 4,-54 h 142 z"
   id="path36" />
   <path
   class="fil3"
   d="m 10061,4254 h 8 c 6,0 11,-1 18,-3 5,-2 12,-5 19,-9 7,-5 17,-12 28,-21 9,-7 16,-13 20,-18 4,-5 7,-10 8,-13 2,-4 3,-8 3,-11 0,-8 -6,-13 -18,-14 l 3,-13 h 83 l 5,13 c -15,13 -29,25 -45,38 l -65,50 38,96 c 4,9 7,16 11,20 4,5 8,9 12,11 5,2 11,3 18,4 l -2,12 h -69 l -37,-105 c -2,-6 -4,-11 -6,-13 -2,-2 -4,-4 -6,-5 -2,-1 -6,-2 -10,-2 h -19 l -27,125 h -44 l 66,-291 c 1,-9 3,-15 3,-19 1,-4 2,-7 2,-10 0,-3 1,-7 1,-9 0,-7 -3,-12 -7,-15 -4,-3 -12,-5 -23,-5 l 3,-13 64,-3 h 15 z"
   id="path37" />
   <path
   class="fil3"
   d="m 10378,4281 v 8 c -17,0 -32,3 -45,11 -13,7 -24,18 -33,32 -9,14 -15,31 -18,50 l 2,1 c 9,-6 18,-11 27,-14 9,-3 18,-5 29,-5 12,0 23,3 32,8 9,6 15,13 20,23 4,10 6,22 6,35 0,14 -2,27 -8,38 -5,11 -14,20 -26,26 -11,6 -25,10 -42,10 -24,0 -43,-8 -55,-23 -12,-15 -18,-38 -18,-67 0,-19 3,-38 9,-55 6,-17 15,-32 26,-45 12,-13 25,-23 40,-30 15,-7 31,-11 47,-12 z m -50,100 c -5,0 -10,1 -15,2 -5,1 -10,3 -14,6 -5,2 -9,5 -13,8 -1,2 -2,3 -3,4 -1,2 -2,5 -2,8 -1,3 -1,8 -1,16 0,21 4,37 11,48 7,11 18,16 32,16 8,0 15,-1 21,-4 5,-3 10,-7 14,-12 3,-5 5,-11 7,-18 2,-6 2,-14 2,-22 0,-16 -3,-29 -10,-38 -7,-9 -16,-14 -29,-14 z"
   id="path38" />
   <path
   class="fil4 str3"
   d="M 10940,4145 V 2888 c 0,-52 41,-93 93,-93 h 1051 c 52,0 93,41 93,93 v 1257 c 0,51 -41,93 -93,93 h -1051 c -52,0 -93,-42 -93,-93 z"
   id="path39" />
   <path
   class="fil3"
   d="m 11499,3404 v 3 c 0,2 0,3 0,4 15,-21 29,-36 44,-46 15,-10 30,-15 46,-15 16,0 28,4 36,14 8,8 13,22 13,40 0,11 -2,24 -5,39 l -22,91 c -3,12 -4,22 -4,29 0,5 1,9 2,12 2,3 5,5 9,6 3,2 9,3 17,4 l -2,13 h -80 l 32,-130 c 2,-9 5,-19 6,-28 2,-10 3,-19 3,-27 0,-12 -2,-21 -7,-25 -4,-6 -11,-9 -20,-9 -6,0 -14,3 -22,9 -8,5 -17,13 -26,25 -9,11 -16,22 -22,33 -6,11 -10,24 -13,40 l -24,112 h -44 l 29,-130 c 4,-16 6,-28 8,-35 1,-8 2,-14 2,-20 0,-12 -3,-21 -7,-25 -4,-6 -11,-9 -20,-9 -7,0 -14,3 -23,9 -8,5 -17,14 -26,25 -9,12 -17,23 -22,35 -6,11 -10,24 -13,39 l -23,111 h -44 l 38,-175 c 1,-3 2,-9 4,-17 2,-7 2,-14 2,-19 0,-5 0,-9 -2,-11 -2,-3 -4,-5 -7,-6 -4,-1 -10,-2 -18,-3 l 3,-13 58,-2 h 14 l -17,65 4,1 c 15,-23 31,-40 46,-51 16,-12 31,-17 47,-17 17,0 29,4 38,14 8,9 12,22 12,40 z"
   id="path40" />
   <path
   class="fil3"
   d="m 11803,3582 1,3 c 12,4 22,12 28,21 6,9 9,20 9,34 0,13 -3,24 -9,34 -6,10 -15,17 -27,23 -12,5 -25,8 -41,8 -15,0 -28,-3 -39,-8 -11,-5 -19,-12 -26,-21 -5,-9 -9,-21 -9,-33 0,-10 2,-19 5,-26 4,-7 8,-13 13,-17 5,-4 12,-9 21,-13 l -1,-2 c -24,-10 -36,-28 -36,-53 0,-11 4,-21 10,-30 6,-9 15,-16 27,-21 11,-6 24,-8 38,-8 16,0 29,2 40,7 11,4 19,11 24,19 6,9 9,19 9,31 0,12 -3,22 -9,31 -6,9 -15,16 -28,21 z m -79,-51 c 0,7 0,12 2,18 1,6 4,11 8,15 3,4 8,8 13,10 6,3 12,4 20,4 9,0 17,-2 23,-5 6,-4 11,-9 14,-16 3,-7 4,-15 4,-24 0,-10 -1,-18 -5,-25 -3,-8 -8,-13 -14,-16 -7,-3 -14,-5 -22,-5 -14,0 -25,4 -32,11 -8,8 -11,19 -11,33 z m -2,108 c 0,8 1,15 2,21 2,6 5,11 8,16 4,4 9,8 14,10 6,3 13,5 21,5 9,0 16,-2 23,-6 6,-4 11,-9 15,-16 3,-8 5,-16 5,-26 0,-11 -2,-20 -6,-28 -3,-7 -9,-13 -15,-17 -7,-5 -15,-6 -23,-6 -8,0 -15,1 -21,4 -6,2 -10,5 -13,9 -4,5 -6,10 -8,16 -1,6 -2,12 -2,18 z"
   id="path41" />
  </g>
  <circle
   class="fil5 str4"
   cx="651"
   cy="270"
   r="248"
   id="circle41" />
  <circle
   class="fil5 str4"
   cx="3411"
   cy="4682"
   r="248"
   id="circle42" />
  <circle
   class="fil5 str4"
   cx="3367"
   cy="270"
   r="248"
   id="circle43" />
  <circle
   class="fil5 str4"
   cx="6126"
   cy="4682"
   r="248"
   id="circle44" />
  <circle
   class="fil5 str4"
   cx="6082"
   cy="270"
   r="248"
   id="circle45" />
  <circle
   class="fil5 str4"
   cx="8841"
   cy="4682"
   r="248"
   id="circle46" />
  <circle
   class="fil5 str4"
   cx="8797"
   cy="270"
   r="248"
   id="circle47" />
  <circle
   class="fil5 str4"
   cx="11557"
   cy="4682"
   r="248"
   id="circle48" />
  <path
   class="fil6"
   d="m 720,409 v -13 h -13 c -38,0 -39,-4 -39,-20 V 142 c 0,-10 0,-11 -9,-11 -26,26 -63,26 -77,26 v 13 c 9,0 34,0 55,-10 v 216 c 0,15 -1,20 -39,20 h -13 v 13 c 15,-1 51,-1 68,-1 16,0 53,0 67,1 z"
   id="path48" />
  <path
   class="fil6"
   d="m 3492,4737 c 0,-50 -34,-92 -79,-92 -20,0 -38,7 -53,22 v -82 c 8,3 22,6 35,6 52,0 81,-39 81,-44 0,-2 -1,-5 -4,-5 0,0 -1,0 -3,2 -9,3 -29,12 -57,12 -17,0 -36,-3 -56,-12 -3,-1 -5,-1 -5,-1 -4,0 -4,3 -4,10 v 124 c 0,7 0,10 6,10 3,0 4,-1 5,-3 5,-7 20,-30 54,-30 22,0 32,20 36,27 6,16 7,32 7,53 0,14 0,40 -10,57 -10,16 -25,27 -45,27 -30,0 -54,-22 -61,-47 1,1 2,1 7,1 14,0 21,-10 21,-20 0,-10 -7,-21 -21,-21 -6,0 -20,3 -20,23 0,35 28,76 75,76 49,0 91,-40 91,-93 z"
   id="path49" />
  <path
   class="fil6"
   d="m 3448,336 h -10 c -2,13 -5,31 -9,38 -3,3 -31,3 -40,3 h -75 l 44,-43 c 65,-58 90,-80 90,-122 0,-48 -37,-81 -88,-81 -48,0 -79,38 -79,75 0,24 21,24 23,24 7,0 21,-5 21,-22 0,-11 -7,-22 -22,-22 -3,0 -4,0 -5,0 9,-27 32,-42 56,-42 38,0 56,34 56,68 0,33 -21,66 -44,92 l -80,90 c -5,4 -5,5 -5,15 h 155 z"
   id="path50" />
  <path
   class="fil6"
   d="m 6211,4736 c 0,-54 -37,-94 -84,-94 -28,0 -44,22 -52,42 v -10 c 0,-106 52,-121 73,-121 10,0 28,2 37,17 -6,0 -23,0 -23,18 0,13 10,20 19,20 7,0 20,-4 20,-20 0,-25 -19,-46 -54,-46 -53,0 -109,54 -109,147 0,111 48,141 87,141 46,0 86,-39 86,-94 z m -38,-1 c 0,20 0,41 -7,56 -12,25 -32,27 -41,27 -26,0 -39,-25 -42,-31 -7,-20 -7,-53 -7,-61 0,-32 13,-74 51,-74 7,0 26,0 39,26 7,15 7,37 7,57 z"
   id="path51" />
  <path
   class="fil6"
   d="m 6167,338 c 0,-35 -27,-67 -70,-76 34,-11 59,-41 59,-74 0,-34 -37,-57 -77,-57 -43,0 -74,25 -74,57 0,13 9,21 21,21 13,0 21,-9 21,-21 0,-21 -19,-21 -26,-21 13,-20 41,-26 56,-26 17,0 40,9 40,47 0,5 -1,29 -12,48 -12,20 -26,21 -37,21 -3,1 -13,2 -16,2 -3,0 -6,0 -6,5 0,4 3,4 10,4 h 18 c 34,0 50,29 50,70 0,56 -29,69 -47,69 -18,0 -50,-8 -64,-32 14,2 27,-7 27,-23 0,-15 -11,-24 -23,-24 -10,0 -24,6 -24,25 0,38 39,65 85,65 51,0 89,-38 89,-80 z"
   id="path52" />
  <path
   class="fil6"
   d="m 8938,4552 h -102 c -51,0 -51,-6 -53,-14 h -11 l -13,86 h 10 c 1,-6 5,-33 11,-38 2,-2 35,-2 40,-2 h 87 l -47,66 c -37,56 -51,114 -51,157 0,4 0,23 19,23 19,0 19,-19 19,-23 v -21 c 0,-23 1,-46 5,-69 1,-9 7,-45 26,-71 l 56,-80 c 4,-5 4,-6 4,-14 z"
   id="path53" />
  <path
   class="fil6"
   d="m 8888,340 v -13 h -42 V 137 c 0,-8 0,-11 -7,-11 -3,0 -5,0 -8,5 l -128,196 v 13 h 111 v 36 c 0,16 -1,20 -32,20 h -9 v 13 c 18,-1 39,-1 57,-1 17,0 40,0 57,1 v -13 h -9 c -31,0 -32,-4 -32,-20 v -36 z m -72,-13 h -102 l 102,-156 z"
   id="path54" />
  <path
   class="fil6"
   d="m 11641,4751 c 0,-15 -4,-34 -20,-52 -8,-9 -15,-13 -41,-29 30,-16 50,-38 50,-65 0,-39 -37,-63 -75,-63 -42,0 -76,31 -76,70 0,8 1,27 19,46 4,5 20,16 30,23 -24,12 -60,35 -60,77 0,44 43,72 87,72 47,0 86,-35 86,-79 z m -29,-146 c 0,24 -16,44 -42,58 l -51,-33 c -20,-13 -21,-27 -21,-34 0,-26 27,-43 57,-43 30,0 57,22 57,52 z m 9,161 c 0,31 -32,52 -66,52 -36,0 -66,-26 -66,-60 0,-25 13,-51 49,-71 l 51,33 c 12,8 32,20 32,46 z"
   id="path55" />
 </g>
</svg>
