<?xml version="1.0" encoding="UTF-8"?>
<!DOCTYPE svg PUBLIC "-//W3C//DTD SVG 1.1//EN" "http://www.w3.org/Graphics/SVG/1.1/DTD/svg11.dtd">
<!-- Creator: CorelDRAW X7 -->
<svg xmlns="http://www.w3.org/2000/svg" xml:space="preserve" width="492.587mm" height="89.9654mm" version="1.1" style="shape-rendering:geometricPrecision; text-rendering:geometricPrecision; image-rendering:optimizeQuality; fill-rule:evenodd; clip-rule:evenodd"
viewBox="0 0 36804 6722"
 xmlns:xlink="http://www.w3.org/1999/xlink">
 <defs>
  <style type="text/css">
   <![CDATA[
    .str2 {stroke:#373435;stroke-width:355.86;stroke-linecap:round;stroke-linejoin:round}
    .str0 {stroke:#373435;stroke-width:197.7;stroke-linecap:round;stroke-linejoin:round}
    .str1 {stroke:#373536;stroke-width:197.7;stroke-linecap:round;stroke-linejoin:round}
    .str3 {stroke:#373536;stroke-width:238.824;stroke-linecap:round;stroke-linejoin:round}
    .fil0 {fill:none}
    .fil2 {fill:black}
    .fil1 {fill:#FFCC29}
   ]]>
  </style>
 </defs>
 <g id="Layer_x0020_1">
  <metadata id="CorelCorpID_0Corel-Layer"/>
  <g id="_2996054972272">
   <polyline class="fil0 str0" points="3898,2364 4777,2364 4777,3423 5633,1306 5633,3423 6489,1306 6489,3423 7321,1306 7321,2364 8200,2364 "/>
   <path class="fil1 str1" d="M99 4266l0 -3803c0,-157 126,-283 283,-283l3182 0c157,0 282,126 282,283l0 3803c0,157 -125,284 -282,284l-3182 0c-157,0 -283,-127 -283,-284l0 0z"/>
   <path class="fil2" d="M1793 2024l0 11c0,3 0,6 0,11 44,-63 88,-111 133,-141 44,-30 90,-46 137,-46 49,0 86,14 111,43 27,27 39,68 39,122 0,33 -6,72 -15,118l-65 276c-10,36 -13,66 -13,88 0,14 2,27 6,35 7,9 15,16 26,20 9,5 28,8 52,12l-6 37 -242 0 96 -392c8,-28 14,-57 19,-85 5,-30 8,-57 8,-81 0,-36 -6,-63 -19,-77 -13,-16 -33,-26 -62,-26 -19,0 -42,10 -68,26 -23,17 -50,41 -77,76 -27,33 -49,68 -67,101 -17,33 -31,73 -41,122l-71 336 -133 0 89 -392c11,-47 17,-84 22,-106 3,-23 6,-42 6,-60 0,-36 -8,-63 -20,-77 -13,-16 -33,-26 -62,-26 -20,0 -43,10 -68,27 -25,16 -51,41 -79,76 -28,37 -51,70 -66,105 -18,33 -30,72 -40,120l-70 333 -134 0 117 -528c3,-11 6,-28 11,-52 5,-22 6,-43 6,-57 0,-14 -1,-25 -6,-33 -5,-10 -13,-14 -22,-19 -11,-3 -29,-6 -54,-8l10 -41 175 -6 43 0 -51 199 10 3c47,-70 95,-122 141,-157 47,-34 94,-52 142,-52 51,0 87,14 114,43 25,28 38,68 38,122l0 0z"/>
   <path class="fil2" d="M2664 2796c0,19 2,34 3,44 4,9 7,17 11,24 7,6 15,11 26,14 9,5 22,6 38,9 16,2 36,2 63,3l0 37 -372 0 0 -37c38,-1 64,-4 79,-6 16,-3 29,-8 37,-14 9,-5 16,-13 19,-24 3,-9 6,-27 6,-50l0 -407c0,-14 -3,-24 -8,-30 -5,-6 -11,-9 -20,-9 -11,0 -26,6 -46,17 -19,11 -45,25 -73,46l-22 -40 236 -139 26 0c-1,32 -3,76 -3,133l0 429z"/>
   <path class="fil2" d="M5666 4599l24 0c16,0 33,-4 52,-10 19,-6 38,-16 59,-28 22,-15 50,-35 85,-64 27,-20 47,-39 60,-53 13,-16 21,-30 25,-42 5,-11 8,-22 8,-31 0,-25 -17,-40 -52,-43l8 -38 250 0 14 38c-43,38 -87,76 -136,114l-194 152 115 292c11,26 21,46 32,61 11,14 23,25 38,31 14,6 31,11 53,13l-7 38 -206 0 -114 -318c-6,-21 -13,-33 -17,-41 -7,-7 -11,-13 -19,-16 -7,-3 -18,-5 -32,-5l-57 0 -81 380 -134 0 199 -883c7,-27 10,-44 11,-57 4,-11 5,-22 7,-31 0,-10 1,-19 1,-27 0,-21 -8,-37 -20,-45 -13,-9 -37,-14 -70,-15l8 -40 196 -8 44 0 -150 676z"/>
   <path class="fil2" d="M6515 5214c0,19 2,33 4,44 3,10 6,18 12,24 5,6 13,11 24,14 10,3 24,6 40,8 15,2 36,3 61,5l0 36 -371 0 0 -36c38,-3 64,-5 80,-8 16,-2 29,-7 37,-13 8,-5 14,-14 17,-24 5,-11 6,-26 6,-50l0 -408c0,-13 -1,-22 -6,-29 -5,-6 -13,-9 -21,-9 -11,0 -26,6 -45,17 -21,11 -45,26 -75,44l-22 -37 236 -141 27 0c-2,33 -4,77 -4,134l0 429z"/>
   <polyline class="fil0 str2" points="12119,3436 12999,3436 12999,4494 13854,2376 13854,4494 14710,2376 14710,4494 15542,2376 15542,3436 16421,3436 "/>
   <path class="fil1 str3" d="M8341 6323l0 -5924c0,-155 125,-280 280,-280l3145 0c155,0 280,125 280,280l0 5924c0,155 -125,279 -280,279l-3145 0c-155,0 -280,-124 -280,-279l0 0z"/>
   <path class="fil2" d="M12853 5714l24 0c16,0 33,-4 52,-10 19,-6 38,-16 60,-28 21,-15 49,-35 84,-64 27,-20 47,-39 60,-53 13,-16 22,-30 27,-42 5,-11 6,-22 6,-31 0,-25 -17,-40 -52,-43l8 -38 250 0 16 38c-43,38 -89,76 -136,114l-196 152 115 292c11,26 22,46 32,61 11,14 23,25 38,31 14,7 33,11 55,13l-10 38 -205 0 -114 -318c-6,-21 -13,-33 -17,-41 -5,-7 -12,-13 -18,-16 -8,-3 -19,-5 -33,-5l-57 0 -81 380 -133 0 198 -883c7,-27 10,-44 11,-57 3,-11 5,-22 7,-31 1,-10 1,-19 1,-27 0,-21 -6,-37 -20,-46 -13,-8 -37,-13 -70,-14l9 -40 195 -8 44 0 -150 676z"/>
   <path class="fil2" d="M13707 6379c16,0 30,-1 40,-3 9,-1 17,-4 23,-9 7,-5 11,-11 15,-19 3,-8 8,-19 14,-35l43 0 -10 147 -413 0 0 -25c15,-35 34,-71 59,-108 24,-36 58,-79 104,-129 38,-43 67,-76 84,-98 17,-24 32,-45 41,-62 10,-18 16,-35 21,-49 3,-16 4,-32 4,-48 0,-25 -3,-47 -11,-66 -8,-19 -20,-35 -38,-46 -15,-11 -36,-16 -61,-16 -64,0 -105,35 -127,105l-60 0 0 -97c40,-19 78,-33 112,-41 37,-9 68,-14 97,-14 62,0 109,14 141,41 31,28 47,66 47,119 0,17 -1,34 -6,49 -3,15 -8,30 -16,44 -8,14 -17,30 -30,47 -13,16 -27,34 -43,51 -14,17 -41,46 -79,85 -63,68 -111,127 -141,177l190 0z"/>
   <path class="fil2" d="M15036 5714l25 0c16,0 33,-4 51,-10 19,-6 39,-16 60,-28 20,-15 49,-35 85,-64 27,-20 46,-39 59,-53 12,-16 22,-30 27,-42 4,-11 6,-22 6,-31 0,-25 -18,-40 -52,-43l8 -38 251 0 14 38c-42,38 -88,76 -136,114l-196 152 117 292c10,26 21,46 32,61 9,14 22,25 36,31 14,7 33,11 56,13l-10 38 -206 0 -112 -318c-8,-21 -14,-33 -19,-41 -5,-7 -11,-13 -17,-16 -7,-3 -18,-5 -33,-5l-57 0 -81 380 -133 0 198 -883c6,-27 9,-44 12,-57 2,-11 4,-22 5,-31 2,-10 2,-19 2,-27 0,-21 -7,-37 -21,-46 -12,-8 -36,-13 -69,-14l9 -40 195 -8 46 0 -152 676z"/>
   <path class="fil2" d="M15796 6435c21,-5 35,-11 42,-18 8,-6 12,-15 14,-28 1,-11 3,-30 3,-55l0 -83 -278 0 0 -38 292 -442 73 0 0 431 9 0c21,0 35,0 43,-3 8,-3 14,-8 21,-16 4,-6 11,-19 16,-34l38 0 -7 102 -120 0 0 83c0,22 0,39 2,49 1,11 4,19 7,25 4,6 8,11 16,14 7,5 18,10 34,13l0 25 -205 0 0 -25zm-137 -233l196 0 0 -125c0,-30 2,-66 2,-104 1,-40 3,-70 3,-89l-5 0 -196 312 0 6z"/>
   <path class="fil2" d="M10025 1717l0 11c0,3 0,8 0,11 44,-63 89,-109 133,-141 44,-30 90,-44 138,-44 49,0 87,13 110,41 27,27 40,68 40,122 0,33 -5,73 -16,118l-65 276c-8,38 -12,66 -12,88 0,16 1,27 7,37 5,8 13,15 24,19 11,4 29,9 54,11l-8 38 -242 0 97 -393c7,-28 14,-57 18,-85 7,-30 8,-55 8,-79 0,-38 -6,-63 -19,-79 -12,-16 -33,-24 -60,-24 -20,0 -42,8 -68,24 -25,17 -50,43 -79,76 -27,35 -49,68 -66,101 -18,33 -30,74 -41,122l-70 337 -134 0 88 -393c11,-47 19,-82 22,-106 5,-22 7,-42 7,-58 0,-38 -7,-63 -21,-79 -13,-16 -33,-24 -60,-24 -21,0 -44,8 -70,25 -25,16 -50,43 -79,78 -27,35 -49,69 -66,103 -17,33 -30,72 -40,120l-69 334 -135 0 119 -527c2,-13 5,-30 9,-54 5,-22 7,-41 7,-57 0,-14 -2,-25 -7,-33 -4,-8 -11,-14 -22,-17 -11,-5 -28,-8 -53,-10l9 -41 176 -6 44 0 -51 199 8 3c48,-69 95,-122 143,-156 45,-35 93,-51 142,-51 49,0 87,14 112,41 25,29 38,70 38,122l0 0z"/>
   <path class="fil2" d="M10901 2539c16,0 29,0 40,-1 9,-3 17,-7 24,-11 6,-5 11,-11 14,-18 3,-8 8,-20 12,-35l43 0 -8 146 -413 0 0 -24c15,-35 34,-71 59,-107 24,-38 59,-81 103,-130 39,-44 68,-76 84,-98 19,-24 33,-44 42,-62 10,-19 16,-35 19,-50 5,-16 7,-32 7,-48 0,-25 -4,-46 -11,-66 -10,-19 -21,-33 -38,-45 -16,-11 -37,-17 -62,-17 -63,0 -106,35 -127,104l-61 0 0 -96c41,-19 79,-33 114,-41 34,-8 68,-13 94,-13 64,0 110,14 143,41 31,27 47,67 47,119 0,17 -1,33 -6,49 -3,14 -8,30 -16,44 -8,15 -17,30 -30,46 -13,18 -27,35 -43,52 -15,18 -42,46 -79,86 -65,68 -110,126 -140,175l189 0z"/>
   <path class="fil2" d="M10022 4406l0 11c0,4 0,8 0,12 44,-63 89,-110 133,-140 44,-30 90,-46 137,-46 49,0 87,14 113,41 25,28 38,68 38,122 0,33 -5,72 -16,120l-65 273c-8,38 -13,67 -13,89 0,16 4,28 8,36 5,10 13,16 24,21 11,5 28,8 54,11l-8 38 -242 0 96 -394c8,-27 15,-55 19,-85 7,-29 10,-56 10,-79 0,-37 -8,-64 -21,-79 -12,-16 -33,-24 -60,-24 -20,0 -43,8 -68,25 -25,16 -50,41 -79,76 -27,33 -49,67 -66,100 -18,33 -30,74 -41,122l-70 338 -135 0 89 -394c11,-47 19,-82 22,-104 5,-24 7,-45 7,-60 0,-37 -7,-64 -21,-79 -13,-16 -33,-24 -60,-24 -21,0 -44,8 -70,25 -23,18 -50,43 -79,78 -27,34 -49,69 -66,102 -18,35 -30,75 -40,121l-69 335 -133 0 117 -528c1,-11 6,-30 9,-52 5,-24 8,-43 8,-59 0,-14 -3,-25 -8,-33 -3,-8 -11,-14 -22,-18 -11,-4 -28,-6 -54,-8l10 -41 175 -8 45 0 -51 201 8 3c47,-71 95,-123 142,-156 46,-35 94,-52 143,-52 49,0 87,14 112,42 25,27 38,68 38,121l0 0z"/>
   <path class="fil2" d="M10621 5282l0 -106 60 0c10,33 26,58 46,74 19,18 46,26 78,26 44,0 79,-15 101,-42 24,-27 35,-66 35,-120 0,-35 -6,-65 -19,-87 -11,-24 -29,-41 -48,-50 -20,-11 -44,-16 -72,-16 -22,0 -41,1 -59,5 -16,1 -33,6 -52,12l-40 -24 0 -330 276 0c12,0 20,0 25,-2 5,-3 9,-4 13,-9 3,-3 6,-11 9,-22l40 0 -8 117 -288 0 0 220c17,-7 36,-13 57,-16 20,-3 39,-7 60,-7 41,0 76,10 106,26 32,16 55,39 71,69 17,30 25,64 25,103 0,46 -9,84 -27,116 -19,33 -45,57 -82,74 -35,16 -77,25 -126,25 -57,0 -117,-12 -181,-36l0 0z"/>
   <polygon class="fil2" points="10250,3487 10250,3779 10136,3779 10136,3487 9851,3487 9851,3379 10136,3379 10136,3088 10250,3088 10250,3379 10536,3379 10536,3487 "/>
   <polygon class="fil2" points="14354,5802 14354,6095 14242,6095 14242,5802 13955,5802 13955,5695 14242,5695 14242,5404 14354,5404 14354,5695 14640,5695 14640,5802 "/>
   <polyline class="fil0 str0" points="28532,4401 29411,4401 29411,5461 30267,3343 30267,5461 31122,3343 31122,5461 31954,3343 31954,4401 32834,4401 "/>
   <path class="fil2" d="M30298 2326l26 0c16,0 33,-3 52,-10 17,-6 38,-16 58,-28 23,-14 49,-35 86,-63 27,-21 46,-40 60,-54 13,-16 20,-30 25,-41 5,-11 8,-22 8,-32 0,-25 -19,-40 -54,-43l10 -38 250 0 14 38c-43,38 -87,76 -136,114l-195 152 116 293c9,27 20,46 31,61 12,13 24,24 37,30 16,7 33,11 55,13l-8 38 -207 0 -112 -318c-8,-20 -13,-33 -19,-41 -5,-6 -11,-13 -18,-16 -6,-1 -17,-3 -31,-3l-59 0 -79 378 -134 0 199 -883c5,-26 10,-44 11,-55 3,-13 5,-24 5,-33 1,-10 1,-19 1,-27 0,-21 -6,-36 -19,-44 -12,-10 -36,-15 -71,-16l10 -40 196 -6 44 0 -152 674z"/>
   <path class="fil2" d="M31258 2406l0 24c-52,0 -98,11 -137,33 -40,23 -73,56 -100,98 -25,43 -44,94 -55,152l6 3c27,-20 56,-34 82,-44 27,-9 57,-14 89,-14 38,0 70,8 96,25 27,16 48,40 61,70 14,30 20,65 20,104 0,44 -8,82 -25,116 -18,33 -43,60 -78,79 -34,19 -77,28 -129,28 -73,0 -129,-24 -166,-68 -37,-46 -56,-112 -56,-202 0,-59 10,-114 29,-166 19,-53 44,-98 79,-136 35,-38 74,-70 120,-92 46,-22 93,-35 144,-38l20 28zm-150 304c-16,0 -31,2 -47,6 -15,4 -29,8 -43,16 -13,7 -27,16 -40,27 -3,3 -6,8 -7,11 -4,7 -7,14 -8,24 0,9 0,25 0,47 0,64 9,113 31,146 21,33 54,51 97,51 25,0 47,-5 63,-13 17,-10 32,-21 41,-37 11,-15 19,-33 24,-53 5,-21 6,-43 6,-67 0,-50 -9,-88 -30,-115 -20,-29 -49,-43 -87,-43l0 0z"/>
   <path class="fil1 str1" d="M32959 6304l0 -3804c0,-157 126,-283 281,-283l3184 0c155,0 282,126 282,283l0 3804c0,156 -127,283 -282,283l-3184 0c-155,0 -281,-127 -281,-283l0 0z"/>
   <path class="fil2" d="M34653 4061l0 11c0,3 0,6 -2,11 46,-63 90,-111 134,-141 45,-30 91,-46 138,-46 49,0 85,15 111,43 25,27 38,68 38,122 0,33 -5,73 -15,118l-64 276c-10,36 -15,66 -15,88 0,14 4,27 8,37 7,8 15,14 24,19 11,4 29,7 54,11l-7 38 -243 0 98 -393c6,-28 13,-57 19,-85 5,-30 8,-57 8,-81 0,-36 -6,-63 -19,-77 -13,-16 -33,-24 -62,-24 -19,0 -43,8 -68,24 -24,17 -50,42 -77,76 -27,33 -49,68 -68,101 -16,33 -30,73 -40,122l-71 337 -133 0 89 -393c11,-47 17,-83 20,-106 5,-23 7,-42 7,-60 0,-36 -7,-63 -19,-77 -13,-16 -34,-24 -62,-24 -21,0 -43,8 -68,25 -25,16 -52,41 -79,76 -29,37 -51,70 -68,105 -16,33 -29,72 -38,120l-70 334 -134 0 117 -527c3,-13 6,-30 11,-54 5,-22 6,-43 6,-57 0,-14 -1,-25 -6,-33 -5,-9 -13,-14 -24,-19 -9,-3 -27,-6 -52,-8l9 -41 176 -6 43 0 -51 199 10 3c47,-69 95,-122 140,-156 48,-35 95,-53 143,-53 49,0 87,15 112,43 27,29 40,68 40,122l0 0z"/>
   <path class="fil2" d="M35573 4602l0 6c38,16 67,36 87,65 19,28 29,63 29,103 0,38 -10,72 -29,103 -19,30 -46,52 -81,69 -36,16 -77,24 -125,24 -44,0 -83,-8 -117,-22 -34,-15 -60,-37 -79,-65 -19,-29 -27,-63 -27,-101 0,-30 5,-56 15,-76 11,-22 23,-40 39,-52 16,-15 37,-27 62,-40l-2 -6c-71,-30 -107,-84 -107,-160 0,-35 9,-65 28,-92 19,-28 46,-49 81,-65 35,-14 74,-22 117,-22 47,0 89,7 120,21 33,12 59,33 74,58 18,26 26,56 26,92 0,36 -10,68 -27,95 -19,27 -46,49 -84,65l0 0zm-240 -157c0,21 1,38 6,56 5,17 13,33 22,45 11,13 25,23 41,30 16,8 37,12 62,12 27,0 51,-5 70,-16 19,-11 33,-27 41,-48 9,-20 14,-46 14,-73 0,-30 -5,-55 -16,-75 -11,-23 -25,-37 -44,-48 -21,-9 -41,-14 -67,-14 -42,0 -74,11 -96,35 -22,22 -33,53 -33,96l0 0zm-7 329c0,22 4,43 8,62 5,19 13,35 24,49 11,14 25,24 43,31 16,10 38,13 61,13 27,0 51,-5 70,-16 21,-12 35,-28 46,-50 9,-22 14,-49 14,-79 0,-32 -5,-59 -16,-83 -11,-23 -27,-41 -47,-53 -19,-11 -43,-18 -70,-18 -24,0 -46,3 -61,11 -18,8 -32,18 -42,32 -11,13 -19,28 -23,46 -3,17 -7,36 -7,55l0 0z"/>
   <polyline class="fil0 str2" points="20323,3362 21202,3362 21202,4420 22058,2302 22058,4420 22914,2302 22914,4420 23746,2302 23746,3362 24625,3362 "/>
   <path class="fil1 str3" d="M16545 6323l0 -5924c0,-155 125,-280 280,-280l3147 0c153,0 278,125 278,280l0 5924c0,155 -125,279 -278,279l-3147 0c-155,0 -280,-124 -280,-279l0 0z"/>
   <path class="fil2" d="M21057 5639l25 0c16,0 33,-3 51,-9 19,-7 39,-16 60,-29 21,-14 49,-34 85,-63 27,-21 46,-39 59,-54 13,-16 22,-30 27,-41 5,-11 6,-22 6,-31 0,-26 -17,-40 -52,-43l8 -38 251 0 15 38c-43,38 -89,76 -136,114l-197 152 117 292c10,25 21,46 32,60 11,14 22,26 36,32 15,6 34,11 56,13l-10 37 -205 0 -113 -317c-8,-21 -14,-34 -19,-42 -4,-6 -11,-12 -17,-15 -6,-4 -17,-5 -33,-5l-57 0 -81 379 -133 0 198 -882c6,-27 10,-44 13,-57 1,-11 4,-22 4,-32 2,-9 2,-19 2,-27 0,-20 -6,-36 -21,-45 -12,-8 -34,-13 -69,-15l9 -39 195 -8 46 0 -152 675z"/>
   <path class="fil2" d="M21639 5842l0 -95c38,-19 74,-32 109,-41 33,-10 67,-15 98,-15 38,0 70,7 98,18 29,13 51,30 67,52 14,21 22,48 22,78 0,28 -7,53 -18,75 -11,21 -26,40 -47,56 -21,16 -47,31 -81,47l0 5c21,3 41,10 59,19 19,8 36,21 50,35 16,12 27,30 37,50 8,19 12,42 12,67 0,38 -7,73 -25,103 -16,30 -43,53 -77,71 -35,17 -78,27 -127,27 -28,0 -60,-3 -93,-10 -33,-8 -63,-16 -92,-27l0 -106 60 0c13,35 27,60 46,76 21,16 46,24 79,24 44,0 76,-13 98,-36 24,-24 35,-59 35,-105 0,-49 -16,-87 -44,-112 -30,-25 -73,-40 -130,-40l-46 0 0 -44c46,-1 84,-11 114,-25 32,-14 55,-33 70,-57 15,-24 22,-49 22,-78 0,-38 -10,-66 -29,-85 -20,-21 -49,-30 -87,-30 -31,0 -57,8 -76,25 -20,18 -34,43 -44,78l-60 0z"/>
   <path class="fil2" d="M23240 5639l25 0c16,0 33,-3 52,-9 17,-7 38,-16 59,-29 22,-14 49,-34 85,-63 27,-21 46,-39 59,-54 14,-16 22,-30 26,-41 5,-11 7,-22 7,-31 0,-26 -18,-40 -52,-43l9 -38 250 0 14 38c-43,38 -88,76 -136,114l-194 152 115 292c10,25 21,46 32,60 11,14 23,26 36,32 14,6 33,11 55,13l-7 37 -208 0 -112 -317c-8,-21 -13,-34 -19,-42 -5,-6 -11,-12 -17,-15 -7,-4 -18,-5 -32,-5l-58 0 -80 379 -134 0 199 -882c5,-27 10,-44 11,-57 4,-11 5,-22 5,-32 2,-9 2,-19 2,-27 0,-20 -7,-36 -19,-45 -13,-8 -37,-13 -71,-15l9 -39 196 -8 44 0 -151 675z"/>
   <path class="fil2" d="M23817 6357l0 -106 62 0c9,35 23,59 44,76 20,16 47,24 79,24 44,0 77,-14 101,-41 22,-27 33,-67 33,-119 0,-36 -4,-65 -17,-88 -13,-24 -28,-41 -49,-51 -21,-11 -44,-16 -71,-16 -22,0 -43,2 -59,5 -16,3 -33,6 -52,13l-41 -24 0 -331 277 0c11,0 20,0 25,-1 5,-2 8,-5 11,-10 3,-3 6,-11 11,-20l40 0 -8 115 -290 0 0 220c18,-6 37,-13 57,-16 21,-3 41,-5 62,-5 40,0 76,8 106,24 30,16 55,40 71,70 18,30 25,65 25,104 0,44 -9,82 -28,116 -19,31 -46,55 -81,72 -36,16 -77,26 -126,26 -57,0 -119,-13 -182,-37l0 0z"/>
   <path class="fil2" d="M18231 1643l0 11c0,3 -2,7 -2,11 44,-64 90,-109 134,-141 45,-30 91,-44 136,-44 49,0 87,12 113,41 25,27 38,68 38,122 0,33 -5,72 -16,118l-65 275c-8,38 -13,67 -13,89 0,16 4,27 8,36 5,8 13,16 24,19 11,5 29,10 54,11l-8 38 -242 0 98 -392c6,-28 13,-57 17,-85 7,-30 10,-56 10,-79 0,-38 -6,-64 -19,-80 -14,-15 -33,-23 -62,-23 -20,0 -43,8 -68,23 -25,18 -50,43 -77,76 -29,35 -51,68 -68,102 -18,33 -30,74 -41,121l-70 337 -134 0 90 -392c9,-47 17,-82 20,-106 5,-22 7,-43 7,-58 0,-38 -7,-64 -21,-80 -13,-15 -33,-23 -60,-23 -21,0 -44,8 -70,25 -23,16 -50,43 -77,78 -29,34 -51,69 -68,102 -16,34 -29,75 -38,121l-71 333 -133 0 117 -526c3,-13 6,-30 9,-53 5,-23 8,-42 8,-58 0,-14 -3,-25 -8,-33 -3,-8 -11,-15 -22,-18 -9,-4 -28,-8 -52,-9l8 -41 177 -7 43 0 -51 201 10 2c47,-70 93,-122 140,-157 48,-33 95,-50 143,-50 49,0 87,14 112,41 25,28 40,69 40,122l0 0z"/>
   <path class="fil2" d="M18833 2003l0 -95c38,-19 75,-33 108,-42 35,-8 66,-13 98,-13 38,0 71,6 99,17 29,11 51,29 65,51 16,22 24,47 24,79 0,28 -6,52 -17,74 -11,22 -27,41 -49,57 -19,16 -46,32 -79,48l0 3c20,5 39,11 58,20 19,8 36,19 51,34 15,14 27,31 34,50 10,19 15,41 15,67 0,39 -8,74 -26,104 -17,30 -42,54 -77,71 -35,18 -78,26 -127,26 -30,0 -60,-4 -93,-10 -33,-6 -65,-14 -92,-25l0 -108 60 0c11,35 27,60 46,76 19,16 46,24 79,24 43,0 76,-11 98,-35 23,-24 34,-58 34,-106 0,-49 -15,-85 -45,-112 -28,-26 -71,-38 -128,-38l-46 0 0 -44c46,-4 84,-12 114,-27 32,-15 54,-34 70,-56 14,-23 22,-49 22,-79 0,-36 -10,-65 -30,-85 -19,-21 -48,-30 -86,-30 -31,0 -56,9 -77,25 -19,17 -33,44 -43,79l-60 0z"/>
   <path class="fil2" d="M18227 4331l0 11c0,5 0,8 -1,13 44,-63 90,-111 134,-141 45,-30 90,-46 138,-46 47,0 85,15 111,41 25,29 38,69 38,122 0,33 -5,73 -15,120l-65 274c-9,38 -14,67 -14,89 0,15 3,28 8,36 5,10 13,16 24,21 11,4 28,8 54,11l-7 38 -243 0 98 -393c6,-28 12,-57 17,-87 7,-28 10,-55 10,-79 0,-36 -7,-63 -19,-79 -15,-16 -33,-23 -62,-23 -21,0 -43,7 -68,25 -25,16 -51,41 -77,76 -29,33 -51,66 -68,101 -16,32 -31,73 -42,120l-69 339 -135 0 91 -393c9,-49 17,-83 20,-106 5,-23 6,-44 6,-60 0,-36 -6,-63 -19,-79 -14,-16 -33,-23 -61,-23 -21,0 -45,7 -70,25 -24,17 -50,43 -77,77 -29,35 -51,70 -68,103 -16,35 -29,74 -38,120l-71 336 -133 0 117 -529c3,-11 6,-28 9,-52 5,-24 8,-43 8,-58 0,-15 -3,-26 -8,-34 -3,-7 -11,-14 -22,-17 -9,-5 -27,-6 -52,-8l8 -41 177 -8 43 0 -51 201 9 3c48,-71 94,-123 141,-156 48,-35 95,-53 143,-53 49,0 87,15 112,43 27,27 39,68 39,120l0 0z"/>
   <path class="fil2" d="M19206 4570l0 24c-50,0 -96,11 -136,33 -39,22 -72,55 -99,98 -27,43 -44,93 -56,152l5 3c29,-20 56,-35 84,-44 27,-10 57,-14 89,-14 38,0 69,7 96,25 27,16 46,39 60,69 13,31 19,65 19,105 0,44 -8,82 -24,115 -17,34 -42,59 -79,79 -34,19 -77,29 -128,29 -74,0 -129,-24 -166,-70 -38,-44 -57,-112 -57,-201 0,-58 10,-115 29,-166 19,-52 46,-98 80,-136 35,-39 75,-69 121,-91 44,-23 93,-35 142,-38l20 28zm-148 304c-18,0 -33,1 -48,6 -15,3 -30,8 -42,16 -15,6 -27,16 -40,27 -5,3 -8,6 -9,11 -4,6 -5,14 -7,24 -1,9 -1,25 -1,47 0,63 11,112 31,146 22,33 54,50 98,50 26,0 46,-5 64,-14 17,-8 30,-21 41,-35 11,-16 19,-33 22,-54 5,-20 8,-42 8,-68 0,-49 -11,-87 -32,-115 -20,-27 -49,-41 -85,-41l0 0z"/>
   <polygon class="fil2" points="18454,3412 18454,3705 18341,3705 18341,3412 18055,3412 18055,3305 18341,3305 18341,3014 18454,3014 18454,3305 18740,3305 18740,3412 "/>
   <polygon class="fil2" points="22559,5728 22559,6020 22446,6020 22446,5728 22161,5728 22161,5620 22446,5620 22446,5329 22559,5329 22559,5620 22844,5620 22844,5728 "/>
   <path class="fil1 str3" d="M24804 6323l0 -5924c0,-155 123,-280 278,-280l3148 0c155,0 278,125 278,280l0 5924c0,155 -123,279 -278,279l-3148 0c-155,0 -278,-124 -278,-279l0 0z"/>
   <path class="fil2" d="M26488 1643l0 11c0,3 0,7 -1,11 46,-64 90,-109 134,-141 44,-30 90,-44 138,-44 49,0 85,12 110,41 26,27 40,68 40,122 0,33 -6,72 -16,118l-65 275c-9,38 -14,67 -14,89 0,16 3,27 8,36 6,8 14,16 24,19 11,5 30,10 53,11l-6 38 -243 0 98 -392c8,-28 12,-57 19,-85 4,-30 8,-56 8,-79 0,-38 -7,-64 -19,-80 -13,-15 -34,-23 -62,-23 -19,0 -43,8 -68,23 -24,18 -51,43 -78,76 -27,35 -49,68 -66,102 -17,33 -32,74 -41,121l-71 337 -133 0 88 -392c11,-47 18,-82 22,-106 4,-22 5,-43 5,-58 0,-38 -6,-64 -19,-80 -12,-15 -33,-23 -61,-23 -21,0 -43,8 -68,25 -26,16 -51,43 -80,78 -28,34 -50,69 -68,102 -15,34 -28,75 -37,121l-70 333 -135 0 118 -526c3,-13 6,-30 11,-53 4,-23 6,-42 6,-58 0,-14 -2,-25 -6,-33 -5,-8 -13,-15 -23,-18 -11,-4 -28,-8 -53,-9l9 -41 176 -7 42 0 -50 201 9 2c48,-70 95,-122 141,-157 48,-33 95,-50 142,-50 49,0 87,14 114,41 26,28 38,69 38,122l0 0z"/>
   <path class="fil2" d="M27270 2522c20,-6 34,-11 42,-17 7,-8 11,-18 13,-29 3,-13 3,-30 3,-55l0 -83 -278 0 0 -38 294 -442 71 0 0 431 11 0c19,0 33,-1 41,-3 8,-3 16,-9 21,-16 6,-7 11,-19 16,-36l38 0 -7 104 -120 0 0 83c0,22 0,38 2,49 1,11 4,19 8,25 3,5 9,11 15,14 7,5 18,8 34,13l0 24 -204 0 0 -24zm-138 -233l196 0 0 -125c0,-31 2,-66 2,-106 1,-37 3,-68 4,-87l-6 0 -196 312 0 6z"/>
   <path class="fil2" d="M26485 4331l0 11c0,5 0,8 0,13 44,-63 89,-111 133,-141 44,-30 90,-46 138,-46 49,0 85,15 110,41 27,29 40,69 40,122 0,33 -7,73 -16,120l-65 274c-9,38 -13,67 -13,89 0,15 2,28 7,36 6,10 14,16 25,21 10,4 29,8 52,11l-6 38 -242 0 96 -393c8,-28 15,-57 19,-87 5,-28 8,-55 8,-79 0,-36 -6,-63 -19,-79 -12,-16 -33,-23 -61,-23 -19,0 -43,7 -68,25 -24,16 -51,41 -78,76 -27,33 -49,66 -66,101 -18,32 -32,73 -41,120l-72 339 -132 0 88 -393c11,-49 18,-83 22,-106 3,-23 7,-44 7,-60 0,-36 -8,-63 -21,-79 -13,-16 -33,-23 -62,-23 -20,0 -42,7 -68,25 -25,17 -50,43 -79,77 -28,35 -50,70 -66,103 -18,35 -30,74 -40,120l-69 336 -135 0 117 -529c4,-11 7,-28 11,-52 5,-24 7,-43 7,-58 0,-15 -2,-26 -7,-34 -4,-7 -12,-14 -22,-17 -11,-5 -28,-6 -53,-8l9 -41 176 -8 42 0 -50 201 9 3c48,-71 95,-123 141,-156 47,-35 95,-53 142,-53 51,0 87,15 114,43 25,27 38,68 38,120l0 0z"/>
   <path class="fil2" d="M27523 4575l-291 664 -75 0 0 -25 272 -573 0 -8 -221 0c-14,0 -25,2 -33,5 -8,2 -15,6 -21,11 -5,3 -9,10 -14,18 -3,7 -8,23 -14,45l-43 0 9 -162 431 0 0 25z"/>
   <polygon class="fil2" points="26713,3412 26713,3705 26599,3705 26599,3412 26314,3412 26314,3305 26599,3305 26599,3014 26713,3014 26713,3305 26998,3305 26998,3412 "/>
  </g>
 </g>
</svg>
