<?xml version="1.0" encoding="UTF-8" standalone="no"?>
<!-- Creator: CorelDRAW X7 -->

<svg
   xml:space="preserve"
   width="383.40329mm"
   height="95.00238mm"
   version="1.1"
   style="clip-rule:evenodd;fill-rule:evenodd;image-rendering:optimizeQuality;shape-rendering:geometricPrecision;text-rendering:geometricPrecision"
   viewBox="0 0 18563.111 4599.396"
   id="svg24"
   sodipodi:docname="B.svg"
   inkscape:version="1.3.2 (091e20e, 2023-11-25, custom)"
   xmlns:inkscape="http://www.inkscape.org/namespaces/inkscape"
   xmlns:sodipodi="http://sodipodi.sourceforge.net/DTD/sodipodi-0.dtd"
   xmlns="http://www.w3.org/2000/svg"
   xmlns:svg="http://www.w3.org/2000/svg"><sodipodi:namedview
   id="namedview24"
   pagecolor="#ffffff"
   bordercolor="#666666"
   borderopacity="1.0"
   inkscape:showpageshadow="2"
   inkscape:pageopacity="0.0"
   inkscape:pagecheckerboard="0"
   inkscape:deskcolor="#d1d1d1"
   inkscape:document-units="mm"
   inkscape:zoom="0.83156517"
   inkscape:cx="724.53732"
   inkscape:cy="179.78146"
   inkscape:window-width="1920"
   inkscape:window-height="1001"
   inkscape:window-x="-9"
   inkscape:window-y="-9"
   inkscape:window-maximized="1"
   inkscape:current-layer="Layer_x0020_1" />
 <defs
   id="defs1">
  <style
   type="text/css"
   id="style1">
   <![CDATA[
    .str2 {stroke:#373435;stroke-width:85.3977}
    .str0 {stroke:#373435;stroke-width:128.111;stroke-linecap:round;stroke-linejoin:round}
    .str1 {stroke:#373536;stroke-width:128.111;stroke-linecap:round;stroke-linejoin:round}
    .fil0 {fill:none}
    .fil3 {fill:#D2D3D5}
    .fil2 {fill:black}
    .fil1 {fill:#E05757}
    .fil4 {fill:#373435;fill-rule:nonzero}
   ]]>
  </style>
 </defs>
 <g
   id="Layer_x0020_1"
   inkscape:label="Layer 1"
   inkscape:groupmode="layer"
   transform="translate(0.05549622,0.5473209)">
  <metadata
   id="CorelCorpID_0Corel-Layer" />
  <g
   id="_2995872175040">
   <polyline
   class="fil0 str0"
   points="2526,2663 3096,2663 3096,3349 3650,1977 3650,3349 4205,1977 4205,3349 4744,1977 4744,2663 5314,2663 "
   id="polyline1" />
   <path
   class="fil1 str1"
   d="M 64,3895 V 1430 c 0,-101 81,-183 182,-183 h 2064 c 100,0 182,82 182,183 v 2465 c 0,102 -82,184 -182,184 H 246 C 145,4079 64,3997 64,3895 Z"
   id="path1" />
   <path
   class="fil2"
   d="m 1162,2442 v 7 c 0,2 0,4 -1,7 29,-41 58,-71 87,-91 29,-19 58,-30 89,-30 32,0 55,10 72,28 16,17 24,44 24,79 0,21 -3,47 -9,77 l -42,178 c -6,24 -9,43 -9,57 0,10 2,18 5,24 3,5 8,9 15,12 8,3 19,5 35,8 l -4,24 h -158 l 64,-254 c 4,-18 8,-37 12,-55 3,-20 5,-37 5,-53 0,-23 -4,-41 -12,-50 -8,-10 -22,-15 -40,-15 -13,0 -28,5 -44,15 -15,11 -33,28 -50,49 -18,23 -33,44 -44,66 -11,21 -20,47 -27,79 l -45,218 h -86 l 57,-254 c 7,-31 11,-54 13,-69 4,-15 5,-27 5,-39 0,-23 -5,-41 -13,-50 -9,-10 -21,-15 -40,-15 -13,0 -27,5 -44,16 -16,10 -34,27 -51,49 -18,24 -33,45 -44,68 -10,22 -19,47 -25,78 l -46,216 h -86 l 76,-341 c 2,-8 4,-20 7,-35 2,-14 4,-28 4,-37 0,-9 -2,-16 -4,-21 -3,-7 -8,-10 -15,-13 -6,-2 -18,-4 -34,-5 l 6,-26 114,-5 h 28 l -33,130 6,2 c 31,-45 61,-79 91,-102 31,-22 62,-34 92,-34 32,0 57,10 73,28 18,18 26,44 26,79 z"
   id="path2" />
   <path
   class="fil2"
   d="m 1549,3010 v -70 h 39 c 7,23 16,39 30,49 13,10 30,16 51,16 29,0 50,-9 66,-26 14,-17 21,-43 21,-78 0,-24 -4,-42 -11,-57 -8,-15 -19,-26 -32,-33 -13,-6 -29,-10 -46,-10 -15,0 -28,1 -38,3 -11,2 -22,5 -35,9 l -25,-15 v -215 h 179 c 7,0 12,-1 15,-2 4,-1 6,-3 9,-5 2,-3 4,-7 7,-14 h 24 l -4,75 h -187 v 143 c 11,-5 23,-8 37,-11 13,-2 26,-3 40,-3 25,0 48,5 68,15 20,11 35,26 46,45 11,20 17,42 17,68 0,29 -6,54 -19,75 -12,20 -29,37 -53,47 -23,11 -49,16 -81,16 -38,0 -77,-7 -118,-22 z"
   id="path3" />
   <path
   class="fil2"
   d="m 3671,4110 h 16 c 10,0 22,-2 34,-6 11,-4 25,-10 38,-18 14,-9 32,-23 55,-41 18,-13 30,-26 39,-35 8,-10 13,-19 17,-27 3,-7 5,-14 5,-20 0,-17 -13,-26 -35,-28 l 6,-24 h 162 l 9,24 c -28,25 -57,49 -88,74 l -126,98 75,190 c 6,17 13,30 20,40 7,8 16,15 24,19 9,5 21,8 36,9 l -5,24 h -135 l -72,-206 c -6,-13 -9,-21 -13,-26 -3,-5 -7,-9 -11,-11 -4,-1 -11,-2 -21,-2 h -37 l -52,245 h -87 l 129,-572 c 3,-17 6,-28 7,-36 3,-8 4,-15 4,-21 1,-6 1,-12 1,-17 0,-14 -5,-24 -13,-29 -8,-6 -23,-9 -46,-10 l 6,-26 127,-4 h 29 z"
   id="path4" />
   <path
   class="fil2"
   d="m 4164,4578 c 14,-3 22,-7 27,-11 4,-5 8,-11 9,-19 2,-7 3,-19 3,-36 v -53 h -182 v -24 l 191,-288 h 46 v 281 h 7 c 12,0 22,-1 27,-3 5,-2 10,-5 13,-9 4,-5 7,-13 10,-24 h 25 l -4,67 h -78 v 53 c 0,16 1,26 1,33 1,6 3,11 5,15 2,4 6,8 10,11 4,2 13,5 22,7 v 16 h -132 z m -89,-150 h 128 v -81 c 0,-20 0,-44 1,-68 0,-26 1,-45 2,-58 h -3 l -128,202 z"
   id="path5" />
   <polyline
   class="fil0 str0"
   points="7853,2663 8423,2663 8423,3349 8978,1977 8978,3349 9532,1977 9532,3349 10071,1977 10071,2663 10641,2663 "
   id="polyline5" />
   <path
   class="fil1 str1"
   d="M 5392,3895 V 1430 c 0,-101 80,-183 182,-183 h 2062 c 102,0 184,82 184,183 v 2465 c 0,102 -82,184 -184,184 H 5574 c -102,0 -182,-82 -182,-184 z"
   id="path6" />
   <path
   class="fil2"
   d="m 6489,2442 v 7 c 0,2 -1,4 -1,7 29,-41 59,-71 87,-91 29,-19 58,-30 88,-30 32,0 57,10 73,28 17,17 25,44 25,79 0,21 -3,47 -10,77 l -42,178 c -6,24 -9,43 -9,57 0,10 2,18 5,24 4,5 9,9 16,12 7,3 18,5 35,8 l -5,24 h -157 l 63,-254 c 4,-18 8,-37 12,-55 4,-20 6,-37 6,-53 0,-23 -4,-41 -14,-50 -8,-10 -21,-15 -39,-15 -13,0 -27,5 -44,15 -16,11 -32,28 -50,49 -18,23 -33,44 -44,66 -11,21 -19,47 -27,79 l -45,218 h -87 l 58,-254 c 7,-31 12,-54 14,-69 3,-15 4,-27 4,-39 0,-23 -4,-41 -13,-50 -8,-10 -22,-15 -39,-15 -14,0 -29,5 -45,16 -16,10 -33,27 -51,49 -18,24 -32,45 -44,68 -10,22 -18,47 -24,78 l -46,216 h -86 l 75,-341 c 2,-8 5,-20 7,-35 3,-14 5,-28 5,-37 0,-9 -2,-16 -5,-21 -2,-7 -8,-10 -15,-13 -6,-2 -18,-4 -35,-5 l 7,-26 114,-5 h 28 l -33,130 6,2 c 31,-45 61,-79 92,-102 30,-22 61,-34 92,-34 32,0 56,10 73,28 16,18 25,44 25,79 z"
   id="path7" />
   <path
   class="fil2"
   d="m 7124,2596 v 16 c -33,0 -63,7 -89,22 -26,14 -48,34 -64,62 -18,28 -29,61 -36,99 l 3,2 c 19,-14 36,-23 53,-29 19,-6 37,-9 59,-9 23,0 45,5 61,16 18,10 31,26 40,45 8,20 13,42 13,69 0,27 -6,52 -17,74 -10,21 -27,38 -50,51 -23,12 -50,18 -83,18 -48,0 -84,-14 -108,-44 -24,-30 -37,-73 -37,-130 0,-39 7,-75 19,-109 12,-33 30,-62 52,-88 22,-24 48,-45 77,-58 30,-16 60,-24 93,-25 z m -97,197 c -11,0 -21,1 -32,4 -9,2 -18,6 -26,10 -9,5 -18,10 -26,17 -3,2 -5,5 -6,7 -2,4 -3,10 -4,16 -1,6 -1,16 -1,30 0,41 7,73 20,95 15,22 35,33 64,33 16,0 30,-4 41,-9 11,-6 19,-13 27,-23 7,-9 11,-22 14,-35 3,-13 5,-28 5,-43 0,-32 -7,-57 -20,-75 -14,-18 -32,-27 -56,-27 z"
   id="path8" />
   <path
   class="fil2"
   d="m 8998,4110 h 17 c 10,0 21,-2 32,-6 13,-4 26,-10 39,-18 14,-9 32,-23 56,-41 17,-13 29,-26 38,-35 8,-10 14,-19 17,-27 3,-7 4,-14 4,-20 0,-17 -11,-26 -34,-28 l 5,-24 h 163 l 10,24 c -28,25 -58,49 -89,74 l -127,98 76,190 c 6,17 14,30 21,40 7,8 14,15 23,19 9,5 22,8 36,9 l -6,24 h -133 l -73,-206 c -5,-13 -9,-21 -12,-26 -3,-5 -7,-9 -12,-11 -4,-1 -11,-2 -21,-2 h -37 l -52,245 h -86 l 128,-572 c 4,-17 6,-28 8,-36 1,-8 3,-15 3,-21 1,-6 1,-12 1,-17 0,-14 -4,-24 -13,-29 -8,-6 -23,-9 -45,-10 l 6,-26 126,-4 h 30 z"
   id="path9" />
   <path
   class="fil2"
   d="m 9372,4576 v -69 h 39 c 7,23 17,39 30,49 13,11 31,16 51,16 29,0 50,-10 66,-26 14,-17 21,-44 21,-78 0,-23 -4,-42 -11,-57 -8,-16 -18,-26 -32,-33 -13,-7 -28,-10 -46,-10 -14,0 -28,1 -38,3 -11,2 -22,5 -35,8 l -25,-15 v -214 h 179 c 7,0 12,-1 15,-2 5,-1 7,-3 9,-5 2,-3 4,-8 7,-14 h 25 l -5,75 h -187 v 143 c 11,-5 23,-9 37,-11 13,-2 26,-3 40,-3 25,0 48,5 68,15 20,10 35,26 46,45 11,20 17,42 17,68 0,29 -6,53 -19,75 -12,20 -29,36 -52,47 -23,11 -50,16 -82,16 -38,0 -77,-8 -118,-23 z"
   id="path10" />
   <polyline
   class="fil0 str0"
   points="13202,2663 13772,2663 13772,3349 14327,1977 14327,3349 14881,1977 14881,3349 15420,1977 15420,2663 15990,2663 "
   id="polyline10" />
   <path
   class="fil1 str1"
   d="M 10740,3895 V 1430 c 0,-101 82,-183 184,-183 h 2062 c 102,0 182,82 182,183 v 2465 c 0,102 -80,184 -182,184 h -2062 c -102,0 -184,-82 -184,-184 z"
   id="path11" />
   <path
   class="fil2"
   d="m 11838,2442 v 7 c 0,2 0,4 -1,7 30,-41 59,-71 87,-91 29,-19 59,-30 89,-30 32,0 56,10 72,28 17,17 26,44 26,79 0,21 -4,47 -10,77 l -42,178 c -7,24 -9,43 -9,57 0,10 1,18 4,24 5,5 10,9 17,12 6,3 18,5 34,8 l -4,24 h -158 l 63,-254 c 5,-18 8,-37 13,-55 3,-20 5,-37 5,-53 0,-23 -4,-41 -13,-50 -8,-10 -21,-15 -40,-15 -12,0 -27,5 -44,15 -15,11 -32,28 -50,49 -17,23 -32,44 -43,66 -11,21 -20,47 -27,79 l -46,218 h -86 l 58,-254 c 7,-31 11,-54 14,-69 2,-15 4,-27 4,-39 0,-23 -5,-41 -13,-50 -8,-10 -22,-15 -40,-15 -14,0 -28,5 -44,16 -17,10 -33,27 -52,49 -18,24 -32,45 -44,68 -10,22 -18,47 -24,78 l -45,216 h -87 l 75,-341 c 2,-8 5,-20 8,-35 3,-14 4,-28 4,-37 0,-9 -1,-16 -4,-21 -3,-7 -9,-10 -15,-13 -7,-2 -18,-4 -35,-5 l 7,-26 113,-5 h 28 l -33,130 6,2 c 31,-45 62,-79 92,-102 30,-22 61,-34 92,-34 33,0 56,10 74,28 16,18 24,44 24,79 z"
   id="path12" />
   <path
   class="fil2"
   d="m 12511,2599 -190,430 h -47 v -15 l 175,-371 v -5 h -142 c -10,0 -17,1 -22,2 -5,2 -10,4 -13,7 -3,3 -6,7 -10,12 -2,5 -5,15 -9,30 h -28 l 7,-106 h 279 z"
   id="path13" />
   <path
   class="fil2"
   d="m 14347,4110 h 17 c 10,0 21,-2 33,-6 13,-4 25,-10 38,-18 15,-9 33,-23 56,-41 17,-13 30,-26 39,-35 8,-10 13,-19 16,-27 3,-7 5,-14 5,-20 0,-17 -11,-26 -34,-28 l 5,-24 h 162 l 10,24 c -28,25 -57,49 -89,74 l -126,98 75,190 c 7,17 13,30 21,40 7,8 15,15 24,19 9,5 21,8 35,9 l -5,24 h -133 l -74,-206 c -4,-13 -8,-21 -11,-26 -4,-5 -7,-9 -13,-11 -4,-1 -11,-2 -20,-2 h -37 l -52,245 h -87 l 129,-572 c 3,-17 6,-28 7,-36 2,-8 3,-15 4,-21 0,-6 1,-12 1,-17 0,-14 -5,-24 -13,-29 -8,-6 -24,-9 -46,-10 l 6,-26 127,-4 h 29 z"
   id="path14" />
   <path
   class="fil2"
   d="m 14969,4163 v 16 c -34,0 -62,6 -89,21 -26,14 -47,35 -63,63 -18,28 -30,61 -36,100 l 3,1 c 18,-14 36,-23 53,-29 17,-6 37,-9 57,-9 25,0 47,5 63,16 17,10 31,26 39,45 9,20 13,42 13,68 0,29 -5,53 -16,75 -10,21 -28,39 -50,51 -23,12 -51,18 -84,18 -48,0 -83,-15 -108,-44 -24,-29 -36,-73 -36,-131 0,-38 6,-74 19,-108 12,-33 29,-63 51,-88 22,-24 48,-45 78,-59 29,-14 60,-23 93,-25 z m -97,197 c -10,0 -21,1 -31,4 -9,2 -18,5 -28,10 -8,4 -16,10 -24,17 -3,2 -5,5 -6,7 -2,5 -4,10 -4,16 -1,6 -1,16 -1,31 0,41 7,72 20,94 14,21 35,33 64,33 15,0 29,-3 41,-9 10,-6 19,-13 26,-23 6,-10 12,-22 15,-35 3,-13 4,-28 4,-43 0,-33 -6,-57 -20,-75 -13,-18 -32,-27 -56,-27 z"
   id="path15" />
   <path
   class="fil1 str1"
   d="M 16071,3895 V 1430 c 0,-101 82,-183 183,-183 h 2063 c 101,0 182,82 182,183 v 2465 c 0,102 -81,184 -182,184 h -2063 c -101,0 -183,-82 -183,-184 z"
   id="path16" />
   <path
   class="fil2"
   d="m 17169,2442 v 7 c 0,2 0,4 0,7 28,-41 57,-71 86,-91 28,-19 58,-30 89,-30 32,0 55,10 72,28 17,17 25,44 25,79 0,21 -4,47 -10,77 l -42,178 c -6,24 -8,43 -8,57 0,10 1,18 4,24 4,5 9,9 16,12 7,3 19,5 34,8 l -4,24 h -157 l 63,-254 c 5,-18 9,-37 12,-55 3,-20 5,-37 5,-53 0,-23 -4,-41 -12,-50 -8,-10 -22,-15 -40,-15 -12,0 -28,5 -44,15 -15,11 -33,28 -50,49 -18,23 -32,44 -43,66 -12,21 -21,47 -27,79 l -46,218 h -86 l 57,-254 c 7,-31 11,-54 14,-69 3,-15 5,-27 5,-39 0,-23 -6,-41 -14,-50 -8,-10 -21,-15 -40,-15 -13,0 -27,5 -44,16 -16,10 -33,27 -51,49 -18,24 -33,45 -43,68 -11,22 -20,47 -26,78 l -45,216 h -87 l 76,-341 c 2,-8 4,-20 7,-35 3,-14 4,-28 4,-37 0,-9 -1,-16 -4,-21 -3,-7 -8,-10 -14,-13 -7,-2 -19,-4 -35,-5 l 6,-26 114,-5 h 28 l -33,130 6,2 c 31,-45 61,-79 91,-102 31,-22 62,-34 92,-34 33,0 57,10 74,28 17,18 25,44 25,79 z"
   id="path17" />
   <path
   class="fil2"
   d="m 17765,2792 1,5 c 25,10 43,23 56,42 12,18 18,41 18,66 0,25 -6,47 -17,67 -13,19 -31,34 -54,45 -23,10 -50,15 -81,15 -28,0 -54,-5 -76,-14 -21,-9 -38,-24 -51,-42 -11,-19 -17,-41 -17,-66 0,-19 3,-36 9,-49 7,-14 15,-26 26,-34 10,-9 23,-17 40,-25 v -4 c -48,-20 -71,-55 -71,-104 0,-23 6,-42 18,-59 13,-19 30,-32 53,-42 22,-10 48,-15 75,-15 31,0 58,4 79,14 21,8 37,21 48,37 11,17 16,36 16,60 0,23 -6,44 -17,61 -12,18 -30,32 -55,42 z m -156,-101 c 0,13 1,25 5,36 3,11 8,21 15,30 6,8 15,14 26,19 11,5 24,7 39,7 18,0 33,-3 46,-10 12,-7 21,-17 27,-31 5,-13 8,-30 8,-47 0,-19 -3,-36 -10,-49 -7,-14 -16,-24 -28,-31 -13,-6 -27,-9 -44,-9 -27,0 -48,7 -62,22 -14,15 -22,36 -22,63 z m -4,213 c 0,14 2,28 5,40 4,12 9,23 16,32 7,9 16,15 27,21 12,6 25,8 40,8 18,0 33,-4 47,-11 12,-8 21,-18 28,-32 6,-15 11,-32 11,-52 0,-20 -5,-38 -12,-53 -7,-15 -17,-27 -29,-35 -14,-7 -29,-11 -46,-11 -16,0 -29,2 -41,7 -11,5 -19,11 -26,21 -7,8 -11,18 -15,29 -3,12 -5,24 -5,36 z"
   id="path18" />
  </g>
  <circle
   class="fil3 str2"
   cx="1301"
   cy="529"
   r="487"
   id="circle18" />
  <circle
   class="fil3 str2"
   cx="6628"
   cy="529"
   r="487"
   id="circle19" />
  <circle
   class="fil3 str2"
   cx="11955"
   cy="529"
   r="487"
   id="circle20" />
  <circle
   class="fil3 str2"
   cx="17282"
   cy="529"
   r="487"
   id="circle21" />
  <path
   class="fil4"
   d="m 1461,638 c 0,-98 -67,-180 -156,-180 -39,0 -74,13 -104,42 V 340 c 16,5 44,11 70,11 101,0 158,-75 158,-86 0,-4 -2,-9 -8,-9 0,0 -3,0 -7,3 -16,7 -56,24 -111,24 -33,0 -71,-6 -109,-23 -7,-3 -10,-3 -10,-3 -8,0 -8,7 -8,20 v 243 c 0,14 0,21 11,21 6,0 8,-2 11,-7 9,-14 39,-58 106,-58 42,0 63,38 69,53 13,30 15,62 15,103 0,29 0,78 -20,112 -19,32 -50,54 -87,54 -60,0 -107,-44 -121,-92 3,1 5,1 14,1 27,0 41,-20 41,-40 0,-19 -14,-40 -41,-40 -11,0 -40,6 -40,44 0,70 56,150 148,150 95,0 179,-79 179,-183 z"
   id="path21" />
  <path
   class="fil4"
   d="m 6794,635 c 0,-104 -72,-183 -163,-183 -56,0 -87,42 -103,82 v -20 c 0,-208 102,-237 144,-237 19,0 54,5 72,33 -13,0 -45,0 -45,37 0,25 19,37 37,37 13,0 38,-7 38,-39 0,-49 -36,-89 -104,-89 -105,0 -216,106 -216,287 0,219 95,278 172,278 91,0 168,-78 168,-186 z m -73,-1 c 0,40 0,81 -14,110 -25,49 -63,54 -81,54 -52,0 -77,-50 -82,-62 -14,-38 -14,-104 -14,-119 0,-64 26,-146 100,-146 13,0 51,0 76,51 15,30 15,72 15,112 z"
   id="path22" />
  <path
   class="fil4"
   d="m 12144,275 h -199 c -100,0 -101,-11 -105,-27 h -20 l -27,169 h 20 c 3,-13 10,-65 21,-74 5,-5 69,-5 80,-5 h 170 l -92,129 c -74,111 -101,225 -101,308 0,9 0,46 38,46 37,0 37,-37 37,-46 v -41 c 0,-45 3,-91 10,-135 3,-19 14,-89 50,-140 l 111,-156 c 7,-10 7,-11 7,-28 z"
   id="path23" />
  <path
   class="fil4"
   d="m 17448,665 c 0,-30 -9,-67 -40,-101 -15,-17 -28,-25 -81,-58 59,-31 99,-73 99,-127 0,-76 -73,-123 -147,-123 -82,0 -149,61 -149,137 0,15 2,52 36,91 9,9 40,30 60,44 -47,24 -118,70 -118,151 0,87 84,142 170,142 93,0 170,-69 170,-156 z m -58,-286 c 0,46 -32,86 -81,114 l -102,-65 c -37,-25 -41,-53 -41,-67 0,-50 54,-84 112,-84 60,0 112,43 112,102 z m 17,315 c 0,61 -61,104 -128,104 -71,0 -130,-51 -130,-119 0,-48 26,-100 96,-139 l 101,64 c 23,16 61,40 61,90 z"
   id="path24" />
 </g>
</svg>
