<?xml version="1.0" encoding="UTF-8"?>
<!DOCTYPE svg PUBLIC "-//W3C//DTD SVG 1.1//EN" "http://www.w3.org/Graphics/SVG/1.1/DTD/svg11.dtd">
<!-- Creator: CorelDRAW X7 -->
<svg xmlns="http://www.w3.org/2000/svg" xml:space="preserve" width="566.187mm" height="354.007mm" version="1.1" style="shape-rendering:geometricPrecision; text-rendering:geometricPrecision; image-rendering:optimizeQuality; fill-rule:evenodd; clip-rule:evenodd"
viewBox="0 0 40223 25149"
 xmlns:xlink="http://www.w3.org/1999/xlink">
 <defs>
  <style type="text/css">
   <![CDATA[
    .str5 {stroke:#373435;stroke-width:75.1839}
    .str6 {stroke:#373435;stroke-width:125.304}
    .str4 {stroke:#373435;stroke-width:75.1839;stroke-dasharray:375.919501 75.183900}
    .str2 {stroke:#373435;stroke-width:338.36;stroke-linecap:round;stroke-linejoin:round}
    .str0 {stroke:#373435;stroke-width:187.978;stroke-linecap:round;stroke-linejoin:round}
    .str1 {stroke:#373536;stroke-width:187.978;stroke-linecap:round;stroke-linejoin:round}
    .str3 {stroke:#373536;stroke-width:227.079;stroke-linecap:round;stroke-linejoin:round}
    .fil0 {fill:none}
    .fil6 {fill:#D2D3D5}
    .fil2 {fill:black}
    .fil1 {fill:#57A9E2}
    .fil3 {fill:#E05757}
    .fil4 {fill:#FFCC29}
    .fil5 {fill:#373435;fill-rule:nonzero}
   ]]>
  </style>
 </defs>
 <g id="Layer_x0020_1">
  <metadata id="CorelCorpID_0Corel-Layer"/>
  <g id="_2854720061456">
   <polyline class="fil0 str0" points="8935,22309 9771,22309 9771,23315 10585,21303 10585,23315 11398,21303 11398,23315 12189,21303 12189,22309 13025,22309 "/>
   <path class="fil1 str1" d="M5323 24118l0 -3618c0,-149 120,-268 269,-268l3026 0c148,0 267,119 267,268l0 3618c0,147 -119,267 -267,267l-3026 0c-149,0 -269,-120 -269,-267l0 0z"/>
   <path class="fil2" d="M6933 21984l0 10c0,3 0,8 0,12 42,-61 84,-105 127,-133 42,-31 85,-44 130,-44 47,0 82,13 106,39 25,26 37,65 37,116 0,31 -6,69 -15,114l-61 260c-9,36 -12,63 -12,85 0,15 1,25 7,34 5,9 12,15 23,20 9,4 27,7 49,10l-6 35 -230 0 92 -373c7,-26 13,-54 18,-81 4,-27 7,-53 7,-76 0,-36 -6,-60 -18,-75 -12,-15 -31,-22 -58,-22 -18,0 -41,7 -65,24 -22,15 -48,39 -74,70 -25,33 -46,65 -63,97 -16,31 -30,70 -39,115l-68 321 -126 0 84 -373c11,-45 17,-78 21,-99 3,-23 6,-43 6,-58 0,-36 -7,-60 -19,-75 -12,-15 -32,-22 -59,-22 -19,0 -40,7 -64,24 -24,16 -49,40 -76,73 -25,33 -48,67 -63,98 -16,33 -28,71 -37,114l-67 318 -127 0 112 -501c2,-12 5,-29 9,-50 5,-22 6,-40 6,-55 0,-14 -1,-24 -6,-32 -4,-7 -10,-13 -21,-16 -10,-5 -27,-6 -51,-8l9 -39 167 -8 42 0 -49 191 9 3c45,-67 90,-117 135,-148 44,-34 89,-50 134,-50 48,0 83,13 108,41 24,25 36,64 36,114l0 0z"/>
   <path class="fil2" d="M7762 22719c0,18 1,32 3,42 3,9 6,17 10,23 6,6 14,10 24,13 9,3 22,6 37,8 15,1 34,3 60,3l0 35 -354 0 0 -35c36,-2 60,-3 76,-6 16,-3 27,-6 36,-12 7,-6 13,-14 16,-23 5,-10 6,-27 6,-48l0 -388c0,-12 -3,-21 -7,-27 -5,-6 -11,-9 -20,-9 -9,0 -24,5 -44,15 -18,11 -40,26 -69,44l-21 -36 224 -134 26 0c-2,30 -3,74 -3,128l0 407z"/>
   <path class="fil2" d="M10616 24432l23 0c15,0 31,-3 49,-9 18,-4 36,-15 58,-27 19,-12 46,-32 79,-59 26,-21 45,-37 57,-52 12,-15 21,-27 24,-38 5,-10 8,-21 8,-31 0,-25 -17,-38 -50,-41l8 -36 237 0 14 36c-41,38 -83,74 -128,108l-186 145 109 278c11,25 20,45 31,58 10,14 22,23 36,31 13,6 30,9 51,10l-8 36 -195 0 -109 -301c-6,-19 -12,-33 -16,-39 -6,-7 -11,-12 -18,-15 -6,-3 -17,-4 -30,-4l-54 0 -77 359 -128 0 190 -839c6,-24 9,-42 10,-53 3,-12 5,-21 6,-31 0,-9 2,-17 2,-24 0,-21 -8,-35 -20,-44 -12,-7 -34,-13 -66,-13l7 -40 187 -6 42 0 -143 641z"/>
   <path class="fil2" d="M11425 25017c0,20 0,33 2,42 3,9 6,18 12,24 4,5 12,9 22,14 11,3 23,6 38,7 15,2 35,3 59,3l0 35 -352 0 0 -35c34,-1 60,-3 75,-6 15,-3 27,-7 34,-12 8,-6 14,-13 17,-24 5,-9 6,-25 6,-48l0 -386c0,-12 -1,-23 -6,-27 -5,-6 -12,-9 -20,-9 -10,0 -25,4 -43,15 -20,10 -42,25 -71,43l-21 -37 224 -133 26 0c-2,30 -2,72 -2,127l0 407z"/>
   <polyline class="fil0 str0" points="16752,22309 17588,22309 17588,23315 18402,21303 18402,23315 19215,21303 19215,23315 20006,21303 20006,22309 20842,22309 "/>
   <path class="fil1 str1" d="M13140 24118l0 -3618c0,-149 120,-268 267,-268l3028 0c147,0 267,119 267,268l0 3618c0,147 -120,267 -267,267l-3028 0c-147,0 -267,-120 -267,-267l0 0z"/>
   <path class="fil2" d="M14750 21984l0 10c0,3 0,8 -1,12 43,-61 85,-105 128,-133 42,-31 85,-44 130,-44 47,0 82,13 106,39 24,26 36,65 36,116 0,31 -5,69 -14,114l-61 260c-9,36 -14,63 -14,85 0,15 3,25 8,34 6,9 13,15 22,20 11,4 27,7 51,10l-6 35 -231 0 93 -373c6,-26 12,-54 18,-81 4,-27 7,-53 7,-76 0,-36 -6,-60 -18,-75 -12,-15 -31,-22 -58,-22 -18,0 -41,7 -65,24 -22,15 -48,39 -74,70 -25,33 -46,65 -64,97 -15,31 -29,70 -38,115l-68 321 -126 0 84 -373c11,-45 17,-78 20,-99 4,-23 6,-43 6,-58 0,-36 -6,-60 -18,-75 -12,-15 -32,-22 -59,-22 -19,0 -40,7 -64,24 -25,16 -50,40 -76,73 -27,33 -48,67 -64,98 -15,33 -27,71 -36,114l-67 318 -127 0 111 -501c3,-12 6,-29 10,-50 5,-22 6,-40 6,-55 0,-14 -1,-24 -6,-32 -4,-7 -12,-13 -22,-16 -9,-5 -26,-6 -50,-8l9 -39 167 -8 41 0 -48 191 9 3c45,-67 90,-117 134,-148 45,-34 90,-50 135,-50 46,0 83,13 107,41 25,25 37,64 37,114l0 0z"/>
   <path class="fil2" d="M15582 22767c16,0 28,-1 37,-3 11,-1 19,-6 25,-10 4,-5 9,-9 12,-17 4,-7 9,-18 13,-33l41 0 -8 139 -394 0 0 -23c14,-33 33,-68 56,-102 24,-35 57,-77 99,-124 36,-40 63,-72 80,-93 18,-22 31,-42 39,-58 9,-17 15,-34 19,-49 3,-13 6,-28 6,-43 0,-24 -4,-45 -12,-63 -7,-20 -19,-33 -34,-44 -17,-11 -36,-17 -60,-17 -59,0 -100,34 -121,100l-57 0 0 -92c38,-18 74,-30 108,-39 34,-8 64,-12 91,-12 58,0 103,13 134,39 30,26 45,63 45,113 0,16 -2,33 -5,46 -3,15 -9,29 -16,42 -6,14 -17,29 -29,46 -12,15 -26,31 -39,48 -15,16 -41,43 -77,81 -60,65 -105,120 -132,168l179 0z"/>
   <path class="fil2" d="M18432 24432l24 0c15,0 31,-3 49,-9 17,-4 36,-15 56,-27 21,-12 48,-32 81,-59 26,-21 44,-37 57,-52 12,-15 20,-27 24,-38 5,-10 8,-21 8,-31 0,-25 -17,-38 -51,-41l9 -36 237 0 14 36c-41,38 -83,74 -129,108l-185 145 109 278c11,25 20,45 31,58 10,14 22,23 34,31 15,6 32,9 53,10l-8 36 -197 0 -107 -301c-6,-19 -12,-33 -18,-39 -4,-7 -10,-12 -16,-15 -6,-3 -17,-4 -30,-4l-54 0 -77 359 -128 0 190 -839c4,-24 9,-42 10,-53 3,-12 5,-21 5,-31 1,-9 1,-17 1,-24 0,-21 -6,-35 -18,-44 -12,-7 -35,-13 -68,-13l9 -40 187 -6 42 0 -144 641z"/>
   <path class="fil2" d="M19245 25065c15,0 27,0 38,-1 9,-3 16,-6 22,-11 6,-4 11,-10 14,-16 3,-8 7,-18 12,-33l41 0 -8 138 -392 0 0 -23c13,-33 31,-67 54,-102 24,-36 57,-77 99,-123 38,-42 63,-72 80,-93 18,-23 31,-43 40,-59 8,-18 15,-33 18,-48 5,-15 6,-30 6,-45 0,-23 -3,-44 -12,-64 -7,-18 -18,-31 -34,-42 -15,-10 -36,-16 -59,-16 -60,0 -101,33 -120,99l-59 0 0 -92c39,-18 75,-31 108,-39 33,-7 64,-12 91,-12 60,0 103,14 133,39 32,26 47,63 47,113 0,17 -3,32 -6,47 -3,13 -9,28 -15,42 -8,13 -17,28 -29,43 -12,17 -25,34 -40,50 -15,17 -41,44 -77,81 -60,65 -104,121 -132,167l180 0z"/>
   <polyline class="fil0 str0" points="24600,22309 25437,22309 25437,23315 26250,21303 26250,23315 27065,21303 27065,23315 27856,21303 27856,22309 28692,22309 "/>
   <path class="fil1 str1" d="M20988 24118l0 -3618c0,-149 120,-268 269,-268l3026 0c149,0 269,119 269,268l0 3618c0,147 -120,267 -269,267l-3026 0c-149,0 -269,-120 -269,-267l0 0z"/>
   <path class="fil2" d="M22599 21984l0 10c0,3 0,8 0,12 42,-61 84,-105 126,-133 42,-31 86,-44 131,-44 47,0 83,13 105,39 26,26 38,65 38,116 0,31 -5,69 -15,114l-62 260c-7,36 -12,63 -12,85 0,15 2,25 8,34 4,9 12,15 22,20 11,4 27,7 51,10l-7 35 -230 0 91 -373c8,-26 14,-54 18,-81 6,-27 8,-53 8,-76 0,-36 -6,-60 -18,-75 -12,-15 -32,-22 -57,-22 -20,0 -41,7 -65,24 -24,15 -48,39 -75,70 -26,33 -47,65 -63,97 -17,31 -29,70 -39,115l-66 321 -128 0 84 -373c10,-45 18,-78 21,-99 4,-23 6,-43 6,-58 0,-36 -6,-60 -20,-75 -12,-15 -31,-22 -57,-22 -19,0 -42,7 -66,24 -24,16 -48,40 -75,73 -26,33 -47,67 -63,98 -17,33 -29,71 -38,114l-66 318 -128 0 113 -501c1,-12 4,-29 9,-50 4,-22 6,-40 6,-55 0,-14 -2,-24 -6,-32 -5,-7 -11,-13 -21,-16 -11,-5 -27,-6 -51,-8l9 -39 167 -8 42 0 -48 191 7 3c45,-67 90,-117 136,-148 43,-34 88,-50 135,-50 47,0 83,13 107,41 24,25 36,64 36,114l0 0z"/>
   <path class="fil2" d="M23172 22327l0 -91c37,-18 72,-31 104,-39 33,-9 63,-13 93,-13 36,0 67,6 95,16 27,12 48,27 61,49 15,21 21,46 21,75 0,27 -4,51 -15,70 -12,21 -27,39 -46,55 -20,15 -46,30 -76,45l0 4c20,3 38,9 56,18 18,8 35,18 48,32 14,13 26,30 33,48 9,19 14,40 14,65 0,36 -9,69 -24,97 -17,29 -41,51 -74,68 -33,17 -74,26 -122,26 -27,0 -57,-3 -89,-9 -31,-8 -60,-16 -85,-26l0 -101 57 0c10,33 25,57 44,72 18,15 43,23 75,23 40,0 72,-12 93,-35 21,-22 32,-55 32,-100 0,-47 -14,-82 -43,-106 -27,-25 -69,-37 -123,-37l-42 0 0 -42c42,-2 78,-11 108,-24 29,-15 51,-34 66,-55 14,-22 21,-46 21,-73 0,-36 -9,-63 -28,-83 -18,-18 -47,-29 -81,-29 -30,0 -56,9 -74,26 -18,15 -33,41 -42,74l-57 0z"/>
   <path class="fil2" d="M26282 24432l22 0c17,0 32,-3 50,-9 18,-4 36,-15 57,-27 20,-12 47,-32 80,-59 25,-21 45,-37 57,-52 12,-15 21,-27 25,-38 5,-10 6,-21 6,-31 0,-25 -16,-38 -49,-41l7 -36 238 0 15 36c-41,38 -84,74 -129,108l-187 145 110 278c11,25 21,45 30,58 11,14 23,23 36,31 14,6 32,9 53,10l-9 36 -196 0 -106 -301c-8,-19 -14,-33 -19,-39 -4,-7 -10,-12 -16,-15 -8,-3 -17,-4 -32,-4l-54 0 -77 359 -126 0 188 -839c6,-24 9,-42 12,-53 2,-12 3,-21 5,-31 1,-9 1,-17 1,-24 0,-21 -6,-35 -19,-44 -12,-7 -35,-13 -67,-13l10 -40 184 -6 43 0 -143 641z"/>
   <path class="fil2" d="M26835 24626l0 -90c36,-18 71,-32 104,-39 31,-9 63,-14 92,-14 36,0 67,6 94,17 27,10 48,27 62,48 15,21 23,45 23,75 0,27 -6,50 -17,71 -10,21 -26,39 -45,54 -20,15 -45,30 -77,45l0 3c20,5 38,11 56,20 18,7 34,18 48,31 15,14 26,30 33,48 9,18 14,41 14,63 0,38 -8,71 -24,100 -17,28 -41,51 -74,67 -33,17 -74,24 -120,24 -29,0 -58,-3 -89,-9 -32,-6 -62,-13 -87,-24l0 -100 57 0c10,33 25,55 43,70 18,15 44,23 76,23 40,0 72,-11 93,-33 21,-23 31,-56 31,-101 0,-47 -13,-81 -40,-107 -29,-24 -69,-36 -124,-36l-43 0 0 -42c43,-3 80,-11 108,-24 30,-15 51,-33 66,-54 14,-23 21,-47 21,-75 0,-35 -9,-62 -28,-82 -18,-19 -45,-28 -81,-28 -31,0 -55,9 -74,24 -18,16 -32,42 -41,75l-57 0z"/>
   <path class="fil1 str1" d="M28810 24118l0 -3618c0,-149 120,-268 269,-268l3026 0c148,0 269,119 269,268l0 3618c0,147 -121,267 -269,267l-3026 0c-149,0 -269,-120 -269,-267l0 0z"/>
   <path class="fil2" d="M30420 21984l0 10c0,3 0,8 0,12 42,-61 85,-105 127,-133 42,-31 85,-44 130,-44 47,0 83,13 107,39 24,26 36,65 36,116 0,31 -4,69 -15,114l-61 260c-8,36 -12,63 -12,85 0,15 3,25 7,34 5,9 12,15 23,20 10,4 27,7 51,10l-8 35 -230 0 92 -373c7,-26 13,-54 18,-81 6,-27 9,-53 9,-76 0,-36 -8,-60 -20,-75 -12,-15 -31,-22 -57,-22 -19,0 -40,7 -64,24 -24,15 -48,39 -76,70 -25,33 -46,65 -63,97 -16,31 -28,70 -39,115l-66 321 -128 0 84 -373c11,-45 18,-78 21,-99 5,-23 6,-43 6,-58 0,-36 -6,-60 -19,-75 -12,-15 -32,-22 -57,-22 -20,0 -42,7 -66,24 -23,16 -49,40 -76,73 -25,33 -46,67 -63,98 -16,33 -28,71 -37,114l-67 318 -126 0 111 -501c2,-12 6,-29 9,-50 5,-22 8,-40 8,-55 0,-14 -3,-24 -8,-32 -3,-7 -10,-13 -21,-16 -10,-5 -27,-6 -51,-8l9 -39 167 -8 42 0 -48 191 8 3c45,-67 90,-117 135,-148 44,-34 89,-50 135,-50 47,0 83,13 107,41 24,25 36,64 36,114l0 0z"/>
   <path class="fil2" d="M31165 22820c19,-5 33,-11 39,-17 6,-6 10,-15 13,-27 2,-12 3,-28 3,-52l0 -78 -266 0 0 -37 280 -421 68 0 0 411 10 0c18,0 32,-2 39,-3 9,-3 15,-8 20,-15 6,-6 10,-18 15,-33l36 0 -5 98 -115 0 0 78c0,21 1,37 3,46 1,11 3,18 6,24 4,6 9,11 15,14 7,4 18,7 33,12l0 23 -194 0 0 -23zm-131 -221l186 0 0 -119c0,-30 0,-63 2,-99 0,-38 1,-66 3,-84l-5 0 -186 296 0 6z"/>
  </g>
  <g id="_2854720066448">
   <polyline class="fil0 str0" points="16692,13916 17528,13916 17528,14922 18341,12908 18341,14922 19155,12908 19155,14922 19946,12908 19946,13916 20782,13916 "/>
   <path class="fil3 str1" d="M13079 15724l0 -3617c0,-149 119,-269 268,-269l3027 0c148,0 268,120 268,269l0 3617c0,149 -120,269 -268,269l-3027 0c-149,0 -268,-120 -268,-269l0 0z"/>
   <path class="fil2" d="M14690 13591l0 11c0,3 0,6 -1,10 43,-60 85,-105 127,-134 43,-28 86,-43 131,-43 47,0 81,13 106,40 24,26 36,65 36,116 0,32 -5,69 -14,113l-62 262c-9,34 -13,63 -13,84 0,13 3,25 7,34 5,8 12,14 23,19 10,4 27,7 51,10l-6 36 -232 0 94 -373c6,-27 12,-54 18,-81 4,-29 7,-54 7,-77 0,-34 -6,-60 -18,-73 -12,-15 -31,-23 -58,-23 -20,0 -41,8 -65,23 -23,16 -48,40 -74,72 -25,33 -48,64 -64,96 -15,32 -29,69 -40,116l-66 320 -126 0 84 -373c11,-45 17,-80 20,-101 4,-22 6,-40 6,-57 0,-34 -6,-60 -18,-73 -14,-15 -32,-23 -59,-23 -19,0 -41,8 -65,24 -24,15 -49,39 -75,72 -27,35 -48,66 -64,100 -15,31 -28,69 -37,114l-67 317 -127 0 112 -501c3,-12 6,-28 10,-51 3,-21 6,-40 6,-54 0,-13 -3,-24 -6,-31 -4,-10 -12,-14 -22,-19 -9,-3 -26,-6 -50,-7l9 -39 167 -6 41 0 -48 189 9 3c45,-66 90,-115 133,-149 45,-33 91,-49 136,-49 46,0 82,13 106,40 26,27 38,65 38,116l0 0z"/>
   <path class="fil2" d="M15259 14424l0 -102 57 0c10,33 24,57 43,72 20,15 44,23 75,23 43,0 74,-12 97,-38 21,-25 31,-63 31,-114 0,-35 -6,-62 -16,-84 -12,-21 -27,-38 -47,-48 -19,-9 -42,-15 -68,-15 -22,0 -40,1 -55,4 -17,3 -33,8 -51,14l-38 -23 0 -314 263 0c11,0 18,-2 23,-3 6,-2 9,-5 12,-8 3,-4 6,-10 10,-21l36 0 -6 110 -275 0 0 210c17,-7 35,-12 54,-16 20,-3 40,-5 59,-5 38,0 71,8 101,23 28,17 51,38 67,66 16,29 25,62 25,99 0,43 -9,80 -28,110 -18,30 -43,54 -78,69 -33,17 -72,24 -119,24 -55,0 -112,-10 -172,-33l0 0z"/>
   <path class="fil2" d="M18372 16039l24 0c15,0 31,-3 49,-9 17,-6 36,-15 56,-27 21,-13 46,-33 81,-60 26,-19 44,-37 57,-51 12,-15 20,-28 24,-39 5,-11 8,-21 8,-30 0,-24 -18,-38 -51,-41l9 -36 237 0 14 36c-41,36 -84,73 -130,109l-184 144 109 278c9,26 20,44 30,59 11,12 23,22 35,28 13,6 32,11 53,12l-8 37 -197 0 -107 -303c-7,-19 -12,-31 -18,-39 -4,-6 -10,-12 -16,-15 -6,-1 -17,-3 -30,-3l-56 0 -75 360 -128 0 189 -840c5,-25 9,-42 11,-52 3,-12 4,-23 4,-32 2,-9 2,-18 2,-25 0,-20 -6,-35 -18,-43 -12,-9 -35,-13 -68,-15l9 -37 187 -6 42 0 -144 640z"/>
   <path class="fil2" d="M19095 16725c21,-4 33,-10 40,-16 6,-6 11,-15 12,-27 3,-11 5,-29 5,-53l0 -78 -266 0 0 -35 280 -422 67 0 0 412 11 0c18,0 31,-2 39,-5 7,-3 15,-7 19,-13 6,-8 11,-20 15,-35l37 0 -7 98 -114 0 0 78c0,23 2,38 2,48 1,9 4,17 7,23 3,6 9,10 15,15 6,3 18,7 32,10l0 24 -194 0 0 -24zm-131 -219l188 0 0 -119c0,-30 0,-65 2,-101 0,-37 1,-65 3,-84l-5 0 -188 296 0 8z"/>
   <polyline class="fil0 str0" points="24509,13916 25345,13916 25345,14922 26158,12908 26158,14922 26972,12908 26972,14922 27763,12908 27763,13916 28599,13916 "/>
   <path class="fil3 str1" d="M20896 15724l0 -3617c0,-149 119,-269 268,-269l3026 0c149,0 269,120 269,269l0 3617c0,149 -120,269 -269,269l-3026 0c-149,0 -268,-120 -268,-269l0 0z"/>
   <path class="fil2" d="M22507 13591l0 11c0,3 -1,6 -1,10 42,-60 85,-105 127,-134 43,-28 85,-43 130,-43 46,0 82,13 107,40 24,26 36,65 36,116 0,32 -5,69 -15,113l-62 262c-8,34 -12,63 -12,84 0,13 3,25 7,34 5,8 12,14 23,19 10,4 27,7 51,10l-7 36 -231 0 94 -373c6,-27 12,-54 16,-81 6,-29 9,-54 9,-77 0,-34 -6,-60 -19,-73 -12,-15 -32,-23 -57,-23 -20,0 -41,8 -65,23 -24,16 -48,40 -74,72 -27,33 -48,64 -64,96 -17,32 -29,69 -40,116l-66 320 -128 0 85 -373c10,-45 18,-80 21,-101 4,-22 6,-40 6,-57 0,-34 -6,-60 -20,-73 -12,-15 -31,-23 -57,-23 -19,0 -42,8 -66,24 -23,15 -48,39 -74,72 -27,35 -48,66 -64,100 -16,31 -28,69 -37,114l-67 317 -127 0 112 -501c3,-12 6,-28 9,-51 4,-21 7,-40 7,-54 0,-13 -3,-24 -7,-31 -3,-10 -11,-14 -21,-19 -9,-3 -27,-6 -51,-7l9 -39 168 -6 41 0 -49 189 10 3c45,-66 88,-115 133,-149 45,-33 91,-49 136,-49 46,0 82,13 106,40 25,27 38,65 38,116l0 0z"/>
   <path class="fil2" d="M23438 13817l0 24c-48,0 -92,10 -129,31 -39,21 -71,52 -95,92 -26,41 -42,89 -53,146l5 2c27,-20 52,-34 78,-43 27,-9 54,-13 86,-13 34,0 66,7 90,24 25,15 45,38 59,66 12,29 18,62 18,101 0,41 -8,77 -24,108 -15,32 -41,57 -74,75 -33,18 -74,27 -122,27 -71,0 -123,-21 -158,-64 -36,-44 -54,-107 -54,-191 0,-57 9,-110 27,-160 18,-49 44,-91 77,-129 31,-36 70,-66 113,-86 43,-22 88,-34 136,-36l20 26zm-141 290c-17,0 -32,2 -47,5 -14,3 -27,9 -39,15 -14,7 -26,15 -38,25 -4,3 -7,8 -9,11 -3,6 -4,13 -6,22 -1,9 -1,24 -1,45 0,61 10,107 30,139 21,33 51,48 93,48 24,0 44,-5 60,-12 17,-9 29,-20 39,-35 11,-13 17,-31 21,-51 5,-19 8,-41 8,-63 0,-47 -11,-84 -30,-110 -20,-27 -47,-39 -81,-39l0 0z"/>
   <path class="fil2" d="M26188 16039l25 0c15,0 31,-3 48,-9 18,-6 37,-15 57,-27 19,-13 46,-33 81,-60 26,-19 44,-37 56,-51 12,-15 21,-28 25,-39 5,-11 6,-21 6,-30 0,-24 -16,-38 -49,-41l7 -36 239 0 14 36c-41,36 -84,73 -130,109l-186 144 111 278c9,26 20,44 30,59 11,12 21,22 35,28 13,6 32,11 53,12l-9 37 -196 0 -107 -303c-7,-19 -13,-31 -18,-39 -4,-6 -10,-12 -16,-15 -6,-1 -17,-3 -32,-3l-54 0 -77 360 -126 0 188 -840c6,-25 9,-42 12,-52 1,-12 4,-23 4,-32 2,-9 2,-18 2,-25 0,-20 -6,-35 -20,-43 -12,-9 -33,-13 -66,-15l9 -37 185 -6 44 0 -145 640z"/>
   <path class="fil2" d="M26737 16722l0 -101 58 0c10,34 24,58 43,73 20,15 45,22 75,22 42,0 74,-13 97,-37 21,-26 31,-65 31,-115 0,-34 -6,-61 -16,-84 -12,-22 -27,-37 -47,-48 -20,-11 -42,-15 -68,-15 -21,0 -40,1 -55,4 -17,3 -33,8 -51,12l-38 -22 0 -313 263 0c11,0 18,-1 23,-3 6,-1 9,-4 12,-7 3,-5 6,-12 10,-21l38 0 -8 109 -275 0 0 211c17,-8 35,-14 54,-17 20,-3 39,-4 59,-4 38,0 71,7 101,22 28,15 51,38 67,67 15,28 24,61 24,99 0,42 -9,78 -27,110 -18,30 -43,52 -76,69 -35,16 -74,24 -121,24 -55,0 -112,-12 -173,-35l0 0z"/>
   <polyline class="fil0 str0" points="32357,13916 33193,13916 33193,14922 34007,12908 34007,14922 34821,12908 34821,14922 35612,12908 35612,13916 36448,13916 "/>
   <path class="fil3 str1" d="M28745 15724l0 -3617c0,-149 120,-269 269,-269l3026 0c149,0 268,120 268,269l0 3617c0,149 -119,269 -268,269l-3026 0c-149,0 -269,-120 -269,-269l0 0z"/>
   <path class="fil2" d="M30356 13591l0 11c0,3 0,6 -2,10 44,-60 86,-105 128,-134 42,-28 86,-43 131,-43 46,0 81,13 105,40 24,26 38,65 38,116 0,32 -6,69 -15,113l-62 262c-9,34 -12,63 -12,84 0,13 1,25 6,34 6,8 13,14 24,19 9,4 27,7 50,10l-6 36 -232 0 93 -373c8,-27 12,-54 18,-81 5,-29 8,-54 8,-77 0,-34 -6,-60 -18,-73 -12,-15 -32,-23 -59,-23 -18,0 -40,8 -65,23 -22,16 -48,40 -73,72 -26,33 -47,64 -63,96 -17,32 -30,69 -39,116l-68 320 -126 0 84 -373c10,-45 16,-80 21,-101 3,-22 6,-40 6,-57 0,-34 -8,-60 -20,-73 -12,-15 -31,-23 -58,-23 -20,0 -41,8 -65,24 -24,15 -48,39 -75,72 -27,35 -48,66 -65,100 -15,31 -27,69 -36,114l-66 317 -128 0 111 -501c3,-12 6,-28 11,-51 4,-21 6,-40 6,-54 0,-13 -2,-24 -6,-31 -5,-10 -12,-14 -21,-19 -11,-3 -27,-6 -51,-7l9 -39 167 -6 40 0 -48 189 9 3c45,-66 90,-115 134,-149 45,-33 90,-49 135,-49 48,0 83,13 109,40 24,27 36,65 36,116l0 0z"/>
   <path class="fil2" d="M31342 13821l-278 632 -69 0 0 -23 257 -544 0 -8 -209 0c-14,0 -24,2 -32,3 -7,3 -15,6 -19,11 -5,5 -9,11 -14,18 -3,8 -7,21 -13,44l-42 0 10 -155 409 0 0 22z"/>
   <path class="fil2" d="M34037 16039l24 0c15,0 32,-3 50,-9 18,-6 36,-15 55,-27 21,-13 49,-33 82,-60 25,-19 45,-37 57,-51 12,-15 19,-28 24,-39 4,-11 7,-21 7,-30 0,-24 -16,-38 -49,-41l7 -36 238 0 13 36c-40,36 -82,73 -129,109l-185 144 110 278c10,26 19,44 30,59 10,12 22,22 36,28 14,6 30,11 51,12l-7 37 -196 0 -108 -303c-6,-19 -12,-31 -17,-39 -6,-6 -10,-12 -18,-15 -6,-1 -16,-3 -30,-3l-54 0 -77 360 -127 0 189 -840c5,-25 9,-42 11,-52 3,-12 4,-23 6,-32 0,-9 1,-18 1,-25 0,-20 -7,-35 -20,-43 -12,-9 -34,-13 -67,-15l9 -37 186 -6 42 0 -144 640z"/>
   <path class="fil2" d="M34950 16116l0 24c-50,0 -92,9 -131,30 -38,21 -69,53 -93,94 -26,40 -44,88 -53,145l5 2c27,-20 52,-33 78,-42 25,-9 54,-14 84,-14 36,0 68,8 92,24 25,15 45,38 57,67 14,28 20,61 20,99 0,42 -8,78 -25,110 -15,31 -40,57 -73,75 -33,18 -74,27 -124,27 -69,0 -121,-23 -157,-65 -35,-43 -53,-107 -53,-192 0,-56 9,-109 27,-158 18,-50 44,-93 75,-130 33,-36 71,-66 114,-87 44,-21 89,-33 137,-36l20 27zm-143 289c-15,0 -30,1 -45,6 -14,3 -27,7 -41,15 -12,6 -24,15 -36,26 -4,3 -7,7 -9,10 -3,6 -6,14 -6,23 -1,9 -1,24 -1,45 0,60 10,107 30,138 21,32 51,48 93,48 23,0 44,-4 60,-12 15,-9 29,-19 39,-34 9,-15 17,-32 21,-52 5,-19 6,-40 6,-63 0,-48 -9,-84 -28,-109 -20,-28 -47,-41 -83,-41l0 0z"/>
   <path class="fil3 str1" d="M36567 15724l0 -3617c0,-149 120,-269 269,-269l3025 0c149,0 268,120 268,269l0 3617c0,149 -119,269 -268,269l-3025 0c-149,0 -269,-120 -269,-269l0 0z"/>
   <path class="fil2" d="M38177 13591l0 11c0,3 0,6 0,10 42,-60 84,-105 126,-134 43,-28 86,-43 131,-43 47,0 82,13 106,40 25,26 37,65 37,116 0,32 -6,69 -15,113l-62 262c-9,34 -12,63 -12,84 0,13 2,25 6,34 6,8 14,14 25,19 9,4 27,7 49,10l-6 36 -230 0 92 -373c7,-27 13,-54 18,-81 4,-29 7,-54 7,-77 0,-34 -6,-60 -18,-73 -12,-15 -31,-23 -58,-23 -18,0 -41,8 -65,23 -23,16 -48,40 -74,72 -25,33 -46,64 -63,96 -16,32 -30,69 -39,116l-68 320 -126 0 84 -373c11,-45 17,-80 21,-101 3,-22 6,-40 6,-57 0,-34 -7,-60 -19,-73 -12,-15 -32,-23 -59,-23 -19,0 -40,8 -65,24 -24,15 -48,39 -75,72 -27,35 -48,66 -63,100 -16,31 -28,69 -38,114l-66 317 -127 0 111 -501c3,-12 6,-28 10,-51 5,-21 6,-40 6,-54 0,-13 -1,-24 -6,-31 -4,-10 -12,-14 -21,-19 -10,-3 -27,-6 -51,-7l9 -39 167 -6 41 0 -48 189 9 3c45,-66 90,-115 133,-149 46,-33 91,-49 136,-49 48,0 82,13 108,40 24,27 36,65 36,116l0 0z"/>
   <path class="fil2" d="M39052 14106l2 6c36,15 63,34 81,61 18,27 27,60 27,98 0,36 -9,69 -25,98 -18,28 -46,49 -79,66 -34,15 -73,22 -118,22 -43,0 -80,-7 -112,-21 -31,-13 -57,-34 -75,-61 -16,-27 -25,-60 -25,-97 0,-28 4,-52 13,-72 11,-21 23,-37 38,-49 15,-14 34,-26 58,-38l0 -6c-69,-29 -103,-80 -103,-152 0,-33 9,-61 27,-87 18,-27 43,-47 76,-62 33,-13 71,-21 112,-21 45,0 84,6 115,20 30,12 55,31 70,55 16,24 24,53 24,88 0,34 -9,64 -26,90 -16,25 -44,47 -80,62l0 0zm-228 -149c0,19 1,36 6,52 4,17 12,32 22,44 9,12 23,21 38,28 17,8 36,11 59,11 25,0 48,-5 66,-15 18,-11 31,-26 40,-45 8,-20 12,-44 12,-69 0,-29 -4,-53 -15,-73 -10,-21 -24,-34 -42,-45 -18,-9 -39,-13 -63,-13 -40,0 -71,10 -92,33 -21,21 -31,53 -31,92l0 0zm-6 312c0,22 3,41 7,59 5,18 12,33 23,47 10,13 24,22 40,31 17,8 37,11 59,11 26,0 48,-5 68,-15 18,-12 31,-27 42,-48 9,-21 15,-47 15,-76 0,-30 -6,-55 -17,-78 -10,-22 -25,-39 -43,-51 -20,-10 -42,-16 -66,-16 -24,0 -44,3 -61,10 -16,8 -28,17 -39,30 -10,12 -16,27 -21,44 -4,16 -7,34 -7,52l0 0z"/>
  </g>
  <g id="_2854720074992">
   <polyline class="fil0 str0" points="8935,4332 9771,4332 9771,5340 10585,3326 10585,5340 11398,3326 11398,5340 12189,3326 12189,4332 13025,4332 "/>
   <path class="fil4 str1" d="M5323 6142l0 -3617c0,-149 120,-269 269,-269l3026 0c148,0 267,120 267,269l0 3617c0,148 -119,269 -267,269l-3026 0c-149,0 -269,-121 -269,-269l0 0z"/>
   <path class="fil2" d="M6933 4009l0 11c0,3 0,6 0,10 42,-60 84,-105 127,-134 42,-28 85,-43 130,-43 47,0 82,13 106,40 25,26 37,65 37,116 0,32 -6,69 -15,113l-61 262c-9,34 -12,63 -12,84 0,13 1,25 6,33 6,9 13,15 24,19 9,5 27,8 49,11l-6 36 -230 0 92 -373c7,-27 13,-54 18,-81 4,-29 7,-54 7,-77 0,-34 -6,-60 -18,-74 -12,-15 -31,-24 -58,-24 -18,0 -41,9 -65,24 -22,17 -48,40 -74,73 -25,31 -46,64 -63,96 -16,31 -30,69 -39,116l-68 320 -126 0 84 -373c11,-45 17,-80 21,-101 3,-22 6,-40 6,-57 0,-34 -7,-60 -19,-74 -12,-15 -32,-24 -59,-24 -19,0 -40,9 -64,26 -24,15 -49,39 -76,72 -27,35 -48,66 -63,99 -16,32 -28,70 -37,115l-67 317 -127 0 111 -502c3,-11 6,-27 10,-50 5,-21 6,-41 6,-54 0,-14 -1,-24 -6,-32 -4,-9 -12,-13 -21,-18 -10,-3 -27,-6 -51,-7l9 -39 167 -6 41 0 -48 189 9 3c45,-66 90,-116 134,-149 45,-33 90,-49 135,-49 48,0 83,13 108,40 24,27 36,65 36,116l0 0z"/>
   <path class="fil2" d="M7762 4743c0,18 1,33 3,42 3,9 6,17 10,23 6,6 14,10 24,13 9,5 22,6 37,9 15,2 34,2 60,3l0 35 -354 0 0 -35c36,-1 60,-4 76,-6 15,-3 27,-7 34,-13 9,-5 15,-12 18,-23 3,-9 6,-25 6,-48l0 -387c0,-13 -3,-22 -7,-28 -5,-6 -11,-9 -20,-9 -10,0 -24,6 -44,16 -18,11 -42,24 -69,44l-21 -38 224 -132 26 0c-2,30 -3,72 -3,126l0 408z"/>
   <path class="fil2" d="M10616 6457l23 0c15,0 31,-3 49,-9 18,-6 36,-15 56,-27 21,-13 48,-33 81,-60 26,-19 45,-38 57,-51 12,-15 20,-29 24,-39 5,-11 8,-21 8,-30 0,-24 -17,-38 -50,-41l8 -36 237 0 14 36c-41,36 -83,72 -129,108l-185 145 109 278c11,24 20,44 31,57 10,14 22,24 36,30 13,6 30,11 51,12l-8 36 -195 0 -109 -302c-6,-19 -12,-31 -16,-39 -6,-6 -11,-12 -18,-15 -6,-3 -17,-5 -30,-5l-54 0 -77 361 -128 0 190 -839c6,-25 9,-42 10,-54 3,-10 5,-21 6,-30 0,-9 2,-18 2,-26 0,-19 -8,-34 -20,-42 -12,-9 -34,-13 -66,-15l7 -37 187 -8 42 0 -143 642z"/>
   <path class="fil2" d="M11424 7042c0,18 1,32 3,42 3,9 6,17 12,23 4,6 12,11 22,14 9,3 23,6 38,7 15,2 35,3 59,5l0 34 -354 0 0 -34c36,-3 62,-5 77,-8 15,-1 27,-6 34,-12 8,-5 14,-14 17,-23 5,-10 6,-25 6,-48l0 -388c0,-12 -1,-21 -6,-27 -5,-6 -12,-9 -20,-9 -10,0 -25,6 -43,17 -20,10 -42,24 -71,42l-21 -36 224 -134 26 0c-2,32 -3,74 -3,128l0 407z"/>
   <polyline class="fil0 str2" points="16752,5352 17588,5352 17588,6358 18402,4344 18402,6358 19215,4344 19215,6358 20006,4344 20006,5352 20842,5352 "/>
   <path class="fil4 str3" d="M13159 8097l0 -5632c0,-148 119,-267 266,-267l2992 0c147,0 266,119 266,267l0 5632c0,147 -119,266 -266,266l-2992 0c-147,0 -266,-119 -266,-266l0 0z"/>
   <path class="fil2" d="M17450 7518l22 0c15,0 32,-3 50,-9 18,-6 36,-16 57,-28 20,-13 47,-33 80,-60 25,-19 45,-37 57,-51 12,-15 21,-28 25,-39 5,-10 6,-21 6,-30 0,-24 -16,-38 -49,-41l7 -36 238 0 15 36c-41,36 -84,73 -129,109l-187 144 110 278c10,24 21,44 30,57 11,14 23,24 36,30 14,6 32,11 53,13l-9 36 -196 0 -108 -303c-6,-19 -12,-31 -17,-39 -4,-6 -10,-12 -16,-15 -8,-3 -18,-4 -32,-4l-54 0 -77 361 -126 0 188 -840c6,-25 9,-42 11,-54 3,-10 4,-21 6,-30 1,-9 1,-18 1,-25 0,-20 -6,-35 -19,-44 -12,-7 -35,-12 -67,-13l9 -38 185 -8 43 0 -143 643z"/>
   <path class="fil2" d="M18262 8151c15,0 28,-2 37,-3 9,-2 17,-5 23,-9 6,-5 10,-11 13,-18 3,-8 8,-18 14,-33l41 0 -9 139 -393 0 0 -24c14,-33 32,-67 56,-102 22,-35 55,-75 99,-123 36,-41 63,-72 80,-94 16,-22 30,-42 39,-58 9,-17 15,-33 19,-47 3,-15 5,-30 5,-45 0,-24 -3,-45 -11,-63 -7,-18 -19,-33 -36,-44 -15,-10 -34,-15 -58,-15 -61,0 -100,33 -121,100l-57 0 0 -92c38,-18 74,-32 107,-39 34,-9 64,-14 92,-14 58,0 103,14 133,39 30,27 46,63 46,113 0,17 -2,33 -6,47 -4,15 -8,28 -16,42 -7,13 -16,28 -28,45 -12,15 -26,31 -41,48 -13,17 -39,44 -75,81 -60,65 -105,121 -134,169l181 0z"/>
   <path class="fil2" d="M19525 7518l24 0c15,0 32,-3 48,-9 18,-6 38,-16 57,-28 20,-13 47,-33 81,-60 26,-19 44,-37 56,-51 12,-15 21,-28 26,-39 4,-10 6,-21 6,-30 0,-24 -17,-38 -50,-41l8 -36 239 0 13 36c-40,36 -84,73 -129,109l-187 144 112 278c9,24 19,44 30,57 9,14 21,24 34,30 14,6 32,11 53,13l-9 36 -195 0 -107 -303c-8,-19 -14,-31 -18,-39 -5,-6 -11,-12 -17,-15 -6,-3 -16,-4 -31,-4l-55 0 -76 361 -127 0 188 -840c6,-25 9,-42 12,-54 2,-10 3,-21 5,-30 1,-9 1,-18 1,-25 0,-20 -6,-35 -19,-44 -12,-7 -35,-12 -66,-13l9 -38 185 -8 43 0 -144 643z"/>
   <path class="fil2" d="M20248 8203c20,-4 33,-10 39,-16 8,-6 12,-15 14,-27 1,-11 3,-29 3,-53l0 -78 -265 0 0 -36 278 -421 70 0 0 410 9 0c19,0 33,0 40,-3 8,-3 14,-7 20,-15 4,-6 10,-18 15,-33l36 0 -6 98 -114 0 0 78c0,21 0,38 1,47 2,10 5,18 8,24 3,6 7,10 15,13 6,5 16,9 31,12l0 24 -194 0 0 -24zm-131 -221l187 0 0 -119c0,-28 1,-63 1,-99 2,-37 3,-66 3,-84l-4 0 -187 296 0 6z"/>
   <path class="fil2" d="M14761 3717l0 11c0,3 0,7 0,10 42,-60 84,-103 126,-133 42,-29 86,-43 131,-43 47,0 83,12 105,40 26,25 38,64 38,115 0,32 -5,70 -15,113l-62 262c-7,36 -12,63 -12,84 0,15 2,26 8,35 4,7 12,15 22,18 11,4 27,9 51,10l-7 36 -230 0 91 -373c8,-27 14,-54 18,-81 6,-28 8,-53 8,-75 0,-36 -6,-60 -18,-75 -12,-15 -32,-23 -57,-23 -20,0 -41,8 -65,23 -24,16 -48,40 -75,72 -26,33 -47,65 -63,96 -17,32 -29,71 -39,116l-67 320 -127 0 84 -373c10,-45 18,-78 21,-100 4,-22 6,-41 6,-56 0,-36 -6,-60 -20,-75 -12,-15 -31,-23 -57,-23 -19,0 -42,8 -66,24 -24,15 -48,41 -75,74 -26,33 -47,66 -63,98 -17,31 -29,69 -38,114l-66 317 -128 0 113 -501c1,-12 4,-28 9,-51 4,-21 6,-39 6,-54 0,-13 -2,-24 -6,-31 -5,-8 -11,-14 -21,-17 -11,-4 -27,-7 -51,-9l9 -39 167 -6 42 0 -48 189 7 3c45,-66 90,-115 136,-148 43,-34 88,-49 135,-49 47,0 83,14 107,40 24,27 36,66 36,115l0 0z"/>
   <path class="fil2" d="M15594 4499c15,0 27,0 37,-1 10,-3 17,-6 23,-11 6,-4 11,-10 14,-16 3,-8 7,-20 12,-33l40 0 -7 138 -393 0 0 -23c14,-33 32,-67 56,-102 22,-36 55,-76 98,-123 37,-42 64,-72 79,-93 18,-23 32,-42 41,-59 9,-18 15,-33 18,-48 4,-15 6,-30 6,-45 0,-24 -3,-44 -11,-63 -9,-18 -19,-32 -36,-43 -15,-10 -34,-16 -58,-16 -60,0 -101,33 -121,99l-58 0 0 -92c39,-18 75,-31 108,-39 33,-7 65,-12 90,-12 60,0 104,14 136,39 30,26 45,64 45,113 0,17 -2,32 -6,47 -3,13 -8,28 -15,42 -8,13 -17,29 -29,44 -12,16 -25,33 -41,49 -15,17 -40,44 -75,81 -61,65 -105,121 -134,167l181 0z"/>
   <path class="fil2" d="M14758 6274l0 10c0,5 0,8 0,12 42,-60 84,-105 126,-133 42,-29 86,-44 131,-44 47,0 83,14 107,39 24,27 36,65 36,116 0,31 -5,69 -15,114l-62 260c-7,36 -12,63 -12,85 0,15 3,27 8,34 4,9 12,15 22,20 11,4 27,7 51,10l-7 36 -230 0 91 -374c8,-26 14,-53 18,-81 6,-27 9,-53 9,-76 0,-34 -7,-60 -19,-75 -12,-15 -32,-22 -57,-22 -20,0 -41,7 -65,24 -24,15 -48,39 -75,72 -26,32 -47,63 -63,95 -17,31 -29,70 -39,115l-67 322 -127 0 84 -374c10,-45 18,-78 21,-99 4,-23 6,-43 6,-58 0,-34 -6,-60 -20,-75 -12,-15 -31,-22 -57,-22 -19,0 -42,7 -66,24 -22,16 -48,40 -75,73 -26,34 -47,67 -63,98 -17,33 -29,71 -38,114l-66 319 -126 0 111 -502c1,-11 6,-29 9,-50 4,-22 7,-40 7,-55 0,-14 -3,-24 -7,-32 -3,-7 -11,-13 -21,-16 -11,-5 -27,-6 -51,-8l9 -39 167 -8 42 0 -48 191 7 3c45,-67 90,-117 136,-148 43,-33 88,-50 135,-50 47,0 83,14 107,41 24,25 36,64 36,114l0 0z"/>
   <path class="fil2" d="M15328 7107l0 -101 57 0c9,32 24,56 43,71 19,16 44,24 74,24 42,0 75,-14 96,-39 23,-26 33,-63 33,-114 0,-33 -6,-62 -18,-83 -10,-23 -27,-39 -45,-48 -19,-11 -42,-15 -69,-15 -21,0 -39,1 -55,4 -16,2 -32,6 -50,12l-38 -22 0 -315 262 0c12,0 20,0 24,-1 5,-3 9,-5 12,-9 3,-3 6,-11 9,-21l38 0 -8 111 -274 0 0 209c17,-6 35,-12 55,-15 19,-3 37,-6 57,-6 39,0 72,9 100,24 31,15 53,38 68,66 17,29 24,60 24,98 0,44 -9,80 -25,110 -18,31 -44,54 -79,71 -33,15 -73,24 -120,24 -54,0 -111,-12 -171,-35l0 0z"/>
   <polygon class="fil2" points="14974,5400 14974,5678 14866,5678 14866,5400 14595,5400 14595,5298 14866,5298 14866,5021 14974,5021 14974,5298 15247,5298 15247,5400 "/>
   <polygon class="fil2" points="18877,7602 18877,7880 18770,7880 18770,7602 18498,7602 18498,7499 18770,7499 18770,7223 18877,7223 18877,7499 19149,7499 19149,7602 "/>
   <polyline class="fil0 str0" points="32357,6269 33193,6269 33193,7277 34007,5263 34007,7277 34821,5263 34821,7277 35612,5263 35612,6269 36448,6269 "/>
   <path class="fil2" d="M34037 4296l24 0c15,0 32,-3 50,-9 16,-6 36,-15 55,-27 21,-13 47,-33 82,-60 25,-19 43,-38 57,-51 12,-15 19,-29 24,-39 4,-11 7,-21 7,-30 0,-24 -18,-38 -51,-41l9 -36 238 0 13 36c-40,36 -82,72 -129,108l-185 145 110 278c9,26 19,44 30,59 10,12 22,22 34,28 16,6 32,11 53,12l-7 36 -197 0 -107 -302c-8,-19 -12,-31 -18,-39 -5,-6 -11,-12 -17,-15 -6,-2 -16,-3 -30,-3l-55 0 -76 359 -127 0 189 -839c5,-25 9,-42 11,-52 3,-12 4,-23 4,-32 2,-9 2,-18 2,-26 0,-19 -6,-34 -19,-42 -12,-9 -34,-13 -67,-15l9 -37 186 -6 42 0 -144 640z"/>
   <path class="fil2" d="M34950 4373l0 23c-50,0 -93,10 -131,31 -38,21 -69,53 -95,93 -24,41 -42,89 -52,145l6 3c25,-20 52,-33 78,-42 25,-9 54,-14 84,-14 36,0 66,8 92,24 25,15 45,38 57,66 14,29 20,62 20,100 0,42 -8,78 -25,109 -16,32 -40,58 -73,76 -33,18 -74,27 -124,27 -69,0 -121,-23 -157,-65 -35,-44 -53,-107 -53,-193 0,-55 9,-108 27,-157 18,-50 42,-94 75,-130 33,-36 71,-66 114,-87 44,-21 89,-33 137,-36l20 27zm-143 289c-15,0 -30,1 -45,6 -14,3 -27,7 -41,15 -12,6 -25,15 -37,25 -3,3 -6,8 -8,11 -3,6 -6,13 -7,22 0,9 0,25 0,46 0,60 9,106 30,138 19,31 51,48 91,48 25,0 46,-4 61,-12 16,-9 30,-20 39,-35 10,-15 18,-31 22,-51 5,-19 6,-40 6,-63 0,-48 -9,-84 -28,-110 -20,-27 -47,-40 -83,-40l0 0z"/>
   <path class="fil4 str1" d="M36567 8078l0 -3616c0,-149 120,-269 267,-269l3027 0c148,0 268,120 268,269l0 3616c0,149 -120,270 -268,270l-3027 0c-147,0 -267,-121 -267,-270l0 0z"/>
   <path class="fil2" d="M38177 5946l0 11c0,3 0,6 -1,10 43,-60 85,-105 127,-134 43,-28 86,-43 131,-43 47,0 82,13 106,40 24,26 36,65 36,116 0,32 -5,69 -14,113l-62 261c-9,35 -13,64 -13,85 0,13 3,25 7,34 6,8 14,14 23,18 11,5 27,8 51,11l-6 36 -231 0 93 -373c6,-27 12,-54 18,-81 4,-29 7,-54 7,-77 0,-34 -6,-60 -18,-74 -12,-15 -31,-22 -58,-22 -18,0 -41,7 -65,22 -23,17 -48,41 -74,73 -25,31 -46,64 -64,96 -15,31 -29,69 -38,116l-68 320 -126 0 84 -373c11,-45 17,-80 20,-101 4,-22 6,-40 6,-57 0,-34 -6,-60 -18,-74 -12,-15 -32,-22 -59,-22 -19,0 -40,7 -65,24 -24,15 -49,39 -75,72 -27,35 -48,66 -64,99 -15,32 -27,70 -37,115l-66 317 -127 0 111 -501c3,-12 6,-28 10,-51 5,-21 6,-41 6,-54 0,-14 -1,-24 -6,-32 -4,-9 -12,-13 -22,-18 -9,-3 -26,-6 -50,-7l9 -39 167 -6 41 0 -48 189 9 3c45,-66 90,-116 133,-149 46,-33 91,-49 136,-49 46,0 82,13 107,40 25,27 37,65 37,116l0 0z"/>
   <path class="fil2" d="M39052 6460l0 6c36,15 64,35 83,62 18,27 27,60 27,98 0,36 -9,69 -27,98 -18,28 -44,49 -77,66 -34,15 -73,22 -118,22 -43,0 -80,-7 -112,-21 -33,-13 -57,-34 -75,-61 -18,-28 -25,-61 -25,-97 0,-28 4,-52 13,-72 11,-21 23,-37 38,-50 15,-13 34,-25 58,-37l-1 -6c-68,-29 -102,-80 -102,-152 0,-33 9,-62 27,-87 18,-27 43,-47 76,-62 33,-13 71,-21 112,-21 45,0 84,6 114,20 31,12 56,31 71,55 16,24 24,53 24,87 0,35 -9,65 -26,91 -18,25 -44,46 -80,61l0 0zm-228 -149c0,20 1,37 6,53 4,17 12,32 21,44 10,12 24,21 39,28 15,8 35,11 59,11 25,0 48,-5 66,-15 18,-11 31,-26 39,-45 9,-20 13,-44 13,-70 0,-28 -4,-52 -15,-72 -10,-21 -24,-34 -42,-45 -19,-9 -39,-13 -63,-13 -41,0 -71,10 -92,33 -21,21 -31,51 -31,91l0 0zm-6 313c0,21 3,41 7,59 5,18 12,33 23,47 10,13 24,22 40,30 15,9 37,12 59,12 26,0 48,-5 66,-15 20,-12 33,-27 44,-49 9,-21 13,-46 13,-75 0,-30 -4,-55 -15,-78 -10,-22 -25,-39 -45,-51 -18,-11 -40,-17 -66,-17 -22,0 -44,3 -59,11 -16,7 -30,16 -39,30 -10,12 -18,27 -22,44 -3,16 -6,34 -6,52l0 0z"/>
   <polyline class="fil0 str2" points="24552,5281 25388,5281 25388,6287 26202,4274 26202,6287 27016,4274 27016,6287 27807,4274 27807,5281 28643,5281 "/>
   <path class="fil4 str3" d="M20960 8097l0 -5632c0,-148 118,-267 266,-267l2992 0c146,0 265,119 265,267l0 5632c0,147 -119,266 -265,266l-2992 0c-148,0 -266,-119 -266,-266l0 0z"/>
   <path class="fil2" d="M25250 7447l24 0c15,0 32,-3 48,-9 18,-6 38,-15 57,-27 20,-14 47,-33 82,-60 25,-20 43,-38 55,-52 12,-15 21,-28 26,-39 4,-10 6,-21 6,-30 0,-24 -17,-37 -50,-40l8 -36 239 0 13 36c-40,36 -84,72 -129,108l-186 144 111 279c9,24 19,43 30,57 10,13 21,24 35,30 13,6 31,10 52,12l-9 36 -195 0 -107 -302c-8,-20 -14,-32 -18,-39 -5,-6 -11,-12 -17,-16 -6,-3 -16,-4 -31,-4l-54 0 -77 361 -126 0 188 -839c6,-26 9,-42 12,-54 1,-11 4,-21 4,-30 2,-9 2,-18 2,-26 0,-20 -6,-35 -20,-44 -12,-7 -33,-12 -66,-13l9 -38 185 -7 43 0 -144 642z"/>
   <path class="fil2" d="M25804 7639l0 -90c36,-18 70,-30 103,-39 32,-9 63,-14 94,-14 36,0 66,7 93,17 27,12 48,29 63,50 13,19 21,45 21,73 0,27 -6,51 -17,73 -10,19 -25,37 -45,52 -19,15 -45,30 -76,45l0 5c19,3 39,9 55,18 18,7 35,19 48,33 15,12 26,29 35,48 7,18 12,39 12,63 0,36 -8,69 -24,98 -15,29 -41,51 -74,68 -33,16 -73,25 -120,25 -27,0 -57,-3 -89,-9 -31,-7 -60,-15 -87,-25l0 -101 57 0c12,33 26,57 44,72 19,15 43,23 75,23 42,0 72,-12 93,-35 23,-23 33,-56 33,-99 0,-47 -15,-83 -42,-107 -28,-24 -69,-38 -123,-38l-44 0 0 -42c44,-1 80,-10 108,-24 31,-13 53,-31 67,-54 15,-22 21,-47 21,-74 0,-36 -9,-63 -27,-81 -20,-19 -47,-28 -83,-28 -30,0 -54,7 -72,24 -20,16 -33,40 -42,73l-57 0z"/>
   <path class="fil2" d="M27325 7447l24 0c15,0 32,-3 50,-9 17,-6 36,-15 56,-27 21,-14 46,-33 81,-60 25,-20 44,-38 56,-52 13,-15 21,-28 25,-39 5,-10 6,-21 6,-30 0,-24 -16,-37 -49,-40l9 -36 237 0 14 36c-41,36 -85,72 -130,108l-185 144 110 279c9,24 20,43 30,57 11,13 23,24 35,30 13,6 31,10 52,12l-7 36 -197 0 -107 -302c-7,-20 -12,-32 -18,-39 -4,-6 -10,-12 -16,-16 -6,-3 -17,-4 -30,-4l-56 0 -75 361 -128 0 189 -839c5,-26 9,-42 11,-54 3,-11 4,-21 4,-30 2,-9 2,-18 2,-26 0,-20 -6,-35 -18,-44 -12,-7 -35,-12 -68,-13l9 -38 187 -7 42 0 -145 642z"/>
   <path class="fil2" d="M27874 8130l0 -101 59 0c9,33 23,55 42,72 20,15 45,23 75,23 42,0 74,-14 96,-40 22,-25 32,-63 32,-112 0,-35 -4,-62 -16,-85 -13,-22 -28,-39 -47,-48 -20,-10 -42,-15 -68,-15 -21,0 -40,2 -55,5 -15,3 -32,6 -50,12l-39 -23 0 -314 263 0c11,0 20,0 24,-1 5,-2 8,-5 11,-10 3,-3 6,-10 10,-19l38 0 -8 110 -275 0 0 209c17,-6 35,-12 54,-15 20,-3 39,-5 59,-5 37,0 72,8 101,23 28,15 52,37 67,66 17,29 24,62 24,99 0,42 -9,78 -27,110 -18,30 -43,53 -76,69 -35,15 -74,24 -121,24 -54,0 -113,-12 -173,-34l0 0z"/>
   <path class="fil2" d="M22563 3647l0 10c0,3 -2,8 -2,11 42,-60 86,-104 128,-134 42,-29 86,-42 129,-42 47,0 83,12 107,39 24,25 36,65 36,116 0,31 -4,69 -15,112l-61 262c-8,36 -12,63 -12,84 0,15 3,26 7,35 5,7 12,15 23,18 10,4 27,9 51,10l-8 37 -230 0 93 -373c6,-27 12,-55 17,-82 6,-28 9,-52 9,-75 0,-36 -6,-60 -18,-75 -14,-15 -32,-23 -59,-23 -19,0 -40,8 -64,23 -25,17 -49,41 -74,72 -27,33 -48,65 -65,96 -16,32 -28,71 -39,116l-66 321 -128 0 86 -373c9,-45 16,-79 19,-101 5,-21 6,-41 6,-56 0,-36 -6,-60 -19,-75 -12,-15 -32,-23 -57,-23 -20,0 -42,8 -66,25 -23,15 -49,40 -74,73 -27,33 -48,66 -65,98 -15,32 -27,71 -36,114l-68 318 -126 0 111 -501c3,-12 6,-29 9,-50 5,-22 8,-40 8,-55 0,-14 -3,-25 -8,-32 -3,-8 -10,-14 -21,-17 -9,-4 -27,-7 -49,-9l7 -39 169 -6 40 0 -48 191 9 2c45,-66 89,-116 134,-149 45,-32 90,-48 135,-48 47,0 83,13 107,39 24,27 38,66 38,116l0 0z"/>
   <path class="fil2" d="M23136 3990l0 -91c36,-18 70,-31 102,-40 33,-8 63,-12 93,-12 36,0 68,6 95,16 27,11 48,27 62,48 15,21 22,45 22,76 0,27 -6,49 -16,70 -11,21 -26,39 -47,54 -18,15 -44,30 -75,45l0 3c19,5 37,11 55,20 18,8 35,18 49,32 15,13 25,30 33,48 9,18 13,39 13,63 0,37 -7,71 -24,99 -16,29 -40,51 -74,68 -33,16 -73,24 -120,24 -28,0 -57,-3 -89,-9 -31,-6 -61,-14 -87,-24l0 -102 57 0c11,33 26,57 44,72 18,15 44,22 75,22 41,0 72,-10 93,-33 21,-22 32,-55 32,-101 0,-46 -14,-81 -42,-106 -27,-24 -68,-36 -122,-36l-44 0 0 -43c44,-3 80,-10 109,-25 30,-14 51,-32 66,-53 13,-22 21,-46 21,-75 0,-35 -9,-62 -29,-81 -18,-20 -45,-29 -81,-29 -30,0 -54,9 -74,24 -18,17 -31,42 -40,76l-57 0z"/>
   <path class="fil2" d="M22560 6203l0 11c0,4 0,7 -2,12 42,-60 86,-106 128,-134 42,-29 86,-44 131,-44 45,0 81,14 105,39 24,27 36,65 36,116 0,32 -4,69 -13,114l-62 261c-9,36 -13,63 -13,84 0,15 3,27 7,34 5,9 12,15 23,20 10,5 27,8 51,11l-6 36 -232 0 93 -373c6,-27 12,-54 17,-83 6,-27 9,-53 9,-75 0,-35 -6,-60 -18,-75 -14,-15 -32,-23 -59,-23 -19,0 -40,8 -64,24 -25,15 -49,39 -74,72 -27,32 -48,63 -65,97 -15,30 -28,69 -39,114l-66 322 -128 0 86 -373c9,-47 16,-80 19,-101 5,-23 6,-42 6,-57 0,-35 -6,-60 -18,-75 -13,-15 -31,-23 -58,-23 -20,0 -42,8 -66,24 -23,17 -49,41 -74,74 -27,33 -48,66 -65,98 -15,33 -27,70 -36,114l-68 319 -126 0 111 -503c3,-10 6,-27 9,-49 5,-23 8,-41 8,-56 0,-13 -3,-24 -8,-32 -3,-7 -10,-13 -21,-16 -9,-5 -25,-6 -49,-8l7 -39 169 -7 40 0 -48 191 9 3c45,-68 89,-117 134,-149 45,-33 90,-50 135,-50 47,0 83,14 107,41 26,25 38,65 38,114l0 0z"/>
   <path class="fil2" d="M23491 6430l0 23c-49,0 -92,10 -130,31 -37,21 -69,53 -94,94 -26,40 -43,88 -53,144l4 3c27,-20 53,-33 80,-42 26,-9 54,-14 84,-14 36,0 66,8 92,24 26,15 44,38 57,67 12,28 18,61 18,99 0,42 -7,78 -22,110 -17,31 -41,55 -76,75 -33,18 -73,27 -121,27 -71,0 -124,-23 -158,-66 -36,-42 -54,-107 -54,-191 0,-56 9,-110 27,-158 18,-50 43,-93 76,-129 33,-38 71,-67 115,-88 42,-21 88,-33 135,-36l20 27zm-142 289c-16,0 -31,2 -45,6 -15,3 -28,8 -40,15 -14,6 -26,15 -38,26 -5,3 -8,6 -9,10 -3,6 -5,14 -6,23 -2,9 -2,24 -2,45 0,60 11,107 30,138 21,32 52,48 94,48 24,0 43,-4 60,-13 16,-8 28,-20 39,-33 10,-15 18,-32 21,-51 5,-20 8,-41 8,-65 0,-47 -11,-83 -31,-110 -19,-25 -46,-39 -81,-39l0 0z"/>
   <polygon class="fil2" points="22775,5329 22775,5608 22668,5608 22668,5329 22396,5329 22396,5227 22668,5227 22668,4950 22775,4950 22775,5227 23047,5227 23047,5329 "/>
   <polygon class="fil2" points="26679,7531 26679,7809 26570,7809 26570,7531 26300,7531 26300,7429 26570,7429 26570,7152 26679,7152 26679,7429 26949,7429 26949,7531 "/>
   <path class="fil4 str3" d="M28813 8097l0 -5632c0,-148 117,-267 264,-267l2993 0c147,0 265,119 265,267l0 5632c0,147 -118,266 -265,266l-2993 0c-147,0 -264,-119 -264,-266l0 0z"/>
   <path class="fil2" d="M30414 3647l0 10c0,3 0,8 -1,11 43,-60 86,-104 128,-134 42,-29 85,-42 130,-42 47,0 82,12 106,39 24,25 37,65 37,116 0,31 -6,69 -15,112l-61 262c-9,36 -14,63 -14,84 0,15 3,26 8,35 6,7 13,15 22,18 11,4 29,9 51,10l-6 37 -231 0 93 -373c7,-27 12,-55 18,-82 4,-28 7,-52 7,-75 0,-36 -6,-60 -18,-75 -12,-15 -31,-23 -58,-23 -18,0 -41,8 -65,23 -22,17 -48,41 -74,72 -25,33 -46,65 -63,96 -16,32 -30,71 -39,116l-68 321 -126 0 84 -373c11,-45 17,-79 21,-101 3,-21 5,-41 5,-56 0,-36 -6,-60 -18,-75 -12,-15 -32,-23 -59,-23 -19,0 -40,8 -64,25 -24,15 -49,40 -76,73 -27,33 -48,66 -64,98 -15,32 -27,71 -36,114l-67 318 -127 0 111 -501c3,-12 6,-29 10,-50 5,-22 6,-40 6,-55 0,-14 -1,-25 -6,-32 -4,-8 -12,-14 -21,-17 -10,-4 -27,-7 -51,-9l9 -39 167 -6 41 0 -48 191 9 2c45,-66 90,-116 134,-149 45,-32 90,-48 135,-48 47,0 83,13 108,39 24,27 36,66 36,116l0 0z"/>
   <path class="fil2" d="M31157 4483c20,-6 33,-11 41,-17 6,-7 10,-16 12,-27 3,-12 3,-28 3,-52l0 -79 -265 0 0 -36 280 -421 68 0 0 411 10 0c18,0 32,-2 39,-3 8,-3 15,-9 20,-15 6,-8 10,-18 15,-35l36 0 -6 99 -114 0 0 79c0,21 0,36 1,46 2,11 5,18 8,24 3,5 9,11 15,14 6,4 16,7 31,12l0 22 -194 0 0 -22zm-131 -221l187 0 0 -119c0,-30 1,-63 1,-101 2,-36 3,-65 5,-83l-6 0 -187 297 0 6z"/>
   <path class="fil2" d="M30411 6203l0 11c0,4 0,7 0,12 42,-60 85,-106 127,-134 42,-29 85,-44 130,-44 47,0 82,14 106,39 25,27 37,65 37,116 0,32 -6,69 -15,114l-61 261c-9,36 -12,63 -12,84 0,15 1,27 6,34 6,9 13,15 24,20 9,5 27,8 49,11l-6 36 -230 0 92 -373c7,-27 13,-54 18,-83 4,-27 7,-53 7,-75 0,-35 -6,-60 -18,-75 -12,-15 -31,-23 -58,-23 -18,0 -41,8 -65,24 -22,15 -48,39 -74,72 -25,32 -46,63 -63,97 -16,30 -30,69 -39,114l-68 322 -126 0 84 -373c11,-47 17,-80 21,-101 3,-23 6,-42 6,-57 0,-35 -7,-60 -19,-75 -12,-15 -32,-23 -59,-23 -19,0 -40,8 -64,24 -24,17 -49,41 -76,74 -27,33 -48,66 -63,98 -16,33 -28,70 -37,114l-67 319 -127 0 111 -503c3,-10 6,-27 10,-49 5,-23 6,-41 6,-56 0,-13 -1,-24 -6,-32 -4,-7 -12,-13 -21,-16 -10,-5 -27,-6 -51,-8l9 -39 167 -7 41 0 -48 191 9 3c45,-68 90,-117 134,-149 45,-33 90,-50 135,-50 48,0 83,14 108,41 24,25 36,65 36,114l0 0z"/>
   <path class="fil2" d="M31398 6435l-277 631 -71 0 0 -24 259 -544 0 -8 -210 0c-14,0 -25,2 -32,5 -8,1 -14,6 -20,10 -4,3 -9,9 -13,17 -3,8 -8,23 -14,44l-40 0 9 -155 409 0 0 24z"/>
   <polygon class="fil2" points="30628,5329 30628,5608 30520,5608 30520,5329 30249,5329 30249,5227 30520,5227 30520,4950 30628,4950 30628,5227 30899,5227 30899,5329 "/>
  </g>
  <line class="fil0 str4" x1="14921" y1="8363" x2="14921" y2= "11838" />
  <line class="fil0 str4" x1="22722" y1="8363" x2="22722" y2= "11838" />
  <line class="fil0 str4" x1="30574" y1="8363" x2="30574" y2= "11838" />
  <path class="fil5" d="M1305 5925l0 -60 -31 0c-114,0 -132,-16 -153,-74l-423 -1115c-9,-23 -14,-40 -45,-40 -32,0 -38,15 -47,40l-402 1063c-18,49 -56,126 -204,126l0 60c58,-6 153,-6 186,-6 58,0 112,0 200,6l0 -60c-79,-2 -126,-38 -126,-90 0,-13 0,-16 9,-38l85 -225 490 0 102 267c9,21 9,32 9,32 0,54 -94,54 -145,54l0 60 256 -6c101,0 134,0 239,6zm-484 -473l-446 0 224 -590 222 590z"/>
  <path id="1" class="fil5" d="M2620 5595c0,-147 -139,-289 -364,-314 196,-42 310,-161 310,-284 0,-160 -180,-305 -422,-305l-686 0 0 60 40 0c139,0 142,20 142,86l0 941c0,66 -3,86 -142,86l-40 0 0 60 736 0c249,0 426,-159 426,-330l0 0zm-229 -598c0,123 -108,262 -314,262l-283 0 0 -433c0,-62 3,-74 86,-74l251 0c179,0 260,139 260,245l0 0zm47 596c0,146 -121,272 -305,272l-253 0c-83,0 -86,-12 -86,-74l0 -482 366 0c175,0 278,141 278,284l0 0z"/>
  <path class="fil5" d="M1891 14583c0,-146 -139,-288 -364,-314 196,-41 310,-160 310,-283 0,-161 -180,-305 -422,-305l-686 0 0 60 40 0c139,0 142,19 142,86l0 940c0,67 -3,87 -142,87l-40 0 0 60 736 0c249,0 426,-159 426,-331l0 0zm-229 -597c0,123 -108,262 -314,262l-283 0 0 -433c0,-62 3,-74 86,-74l251 0c179,0 260,139 260,245l0 0zm47 595c0,147 -121,273 -305,273l-253 0c-83,0 -86,-13 -86,-74l0 -482 366 0c175,0 278,141 278,283l0 0z"/>
  <path class="fil5" d="M1962 23335l0 -60 -30 0c-114,0 -132,-16 -154,-74l-422 -1115c-9,-23 -14,-40 -45,-40 -33,0 -38,15 -47,40l-402 1063c-18,49 -56,126 -204,126l0 60c57,-6 153,-6 186,-6 57,0 111,0 200,6l0 -60c-80,-2 -126,-38 -126,-90 0,-13 0,-16 9,-38l84 -225 491 0 101 267c9,21 9,32 9,32 0,54 -94,54 -144,54l0 60 256 -6c101,0 134,0 238,6zm-483 -473l-446 0 224 -590 222 590z"/>
  <line class="fil0 str5" x1="671" y1="9803" x2="1949" y2= "9803" />
  <g id="_2854720026672">
   <line class="fil0 str5" x1="671" y1="18269" x2="1949" y2= "18269" />
   <line class="fil0 str5" x1="671" y1="18691" x2="1949" y2= "18691" />
  </g>
  <circle class="fil6 str6" cx="7090" cy="891" r="714"/>
  <circle class="fil6 str6" cx="14875" cy="17250" r="714"/>
  <circle class="fil6 str6" cx="14906" cy="891" r="714"/>
  <circle class="fil6 str6" cx="22691" cy="17250" r="714"/>
  <circle class="fil6 str6" cx="22722" cy="891" r="714"/>
  <circle class="fil6 str6" cx="30559" cy="834" r="714"/>
  <circle class="fil6 str6" cx="38395" cy="777" r="714"/>
  <circle class="fil6 str6" cx="30507" cy="17250" r="714"/>
  <circle class="fil6 str6" cx="38323" cy="17250" r="714"/>
  <path class="fil5" d="M7288 1292l0 -37 -38 0c-109,0 -112,-14 -112,-58l0 -675c0,-29 0,-31 -28,-31 -74,77 -180,77 -219,77l0 37c24,0 95,0 158,-31l0 623c0,43 -4,58 -112,58l-39 0 0 37c42,-4 147,-4 195,-4 48,0 153,0 195,4z"/>
  <path class="fil5" d="M15119 17405c0,-152 -107,-268 -241,-268 -81,0 -126,61 -150,119l0 -29c0,-304 149,-347 211,-347 28,0 79,7 105,48 -18,0 -66,0 -66,54 0,37 29,55 56,55 19,0 55,-11 55,-57 0,-73 -53,-130 -153,-130 -154,0 -316,155 -316,421 0,321 139,406 251,406 134,0 248,-113 248,-272zm-108 -1c0,58 0,118 -21,161 -36,73 -91,79 -119,79 -76,0 -112,-73 -119,-91 -22,-56 -22,-152 -22,-174 0,-94 39,-214 147,-214 19,0 75,0 112,74 22,45 22,106 22,165z"/>
  <path class="fil5" d="M15140 1082l-30 0c-6,37 -14,90 -26,108 -8,9 -88,9 -114,9l-217 0 128 -124c187,-166 259,-231 259,-351 0,-137 -108,-233 -255,-233 -136,0 -225,110 -225,217 0,68 61,68 64,68 21,0 63,-15 63,-64 0,-31 -22,-63 -64,-63 -10,0 -12,0 -16,2 28,-79 93,-123 163,-123 109,0 161,97 161,196 0,96 -60,191 -126,266l-231 257c-14,14 -14,16 -14,45l447 0 33 -210z"/>
  <path class="fil5" d="M22969 16876l-292 0c-147,0 -150,-16 -154,-38l-30 0 -40 247 30 0c3,-19 14,-95 30,-109 8,-7 102,-7 118,-7l249 0 -135 190c-108,162 -148,329 -148,452 0,12 0,66 55,66 56,0 56,-54 56,-66l0 -61c0,-66 3,-133 13,-198 5,-27 22,-131 75,-205l162 -229c11,-14 11,-17 11,-42z"/>
  <path class="fil5" d="M22966 1086c0,-99 -75,-192 -201,-218 99,-32 169,-116 169,-211 0,-99 -106,-166 -222,-166 -121,0 -212,72 -212,163 0,40 26,63 61,63 37,0 61,-27 61,-62 0,-60 -56,-60 -74,-60 37,-59 116,-74 160,-74 49,0 115,26 115,134 0,15 -2,85 -34,138 -36,57 -77,61 -107,62 -9,1 -38,4 -46,4 -10,1 -19,2 -19,14 0,13 9,13 29,13l53 0c99,0 143,82 143,200 0,164 -83,199 -136,199 -51,0 -141,-21 -184,-92 43,6 80,-20 80,-66 0,-43 -33,-67 -68,-67 -28,0 -67,16 -67,69 0,110 112,189 243,189 147,0 256,-109 256,-232z"/>
  <path class="fil5" d="M30820 1036l0 -37 -121 0 0 -547c0,-25 0,-32 -19,-32 -11,0 -14,0 -24,15l-369 564 0 37 320 0 0 105c0,43 -3,56 -92,56l-25 0 0 38c49,-4 112,-4 162,-4 51,0 115,0 164,4l0 -38 -25 0c-89,0 -92,-13 -92,-56l0 -105 121 0zm-206 -37l-294 0 294 -449 0 449z"/>
  <path class="fil5" d="M38630 936c0,-143 -99,-264 -229,-264 -58,0 -109,20 -153,62l0 -235c24,7 64,16 103,16 148,0 232,-110 232,-125 0,-8 -4,-14 -12,-14 0,0 -4,0 -10,4 -24,11 -83,35 -163,35 -49,0 -104,-9 -160,-34 -10,-3 -15,-3 -15,-3 -12,0 -12,9 -12,28l0 356c0,22 0,32 17,32 8,0 11,-4 16,-11 13,-19 57,-84 155,-84 62,0 92,55 102,77 19,44 22,91 22,151 0,42 0,115 -29,165 -29,47 -74,78 -129,78 -88,0 -156,-63 -177,-134 4,1 7,2 21,2 39,0 60,-30 60,-59 0,-29 -21,-59 -60,-59 -17,0 -59,8 -59,64 0,103 83,220 218,220 139,0 262,-116 262,-268l0 0z"/>
  <path class="fil5" d="M30751 17449c0,-44 -13,-98 -59,-148 -22,-26 -42,-38 -119,-86 87,-44 146,-107 146,-186 0,-111 -107,-179 -217,-179 -120,0 -217,89 -217,201 0,21 2,75 53,132 13,14 57,44 87,65 -69,35 -173,102 -173,221 0,128 123,208 249,208 136,0 250,-100 250,-228zm-85 -420c0,68 -47,126 -119,168l-149 -96c-56,-36 -60,-77 -60,-97 0,-74 78,-124 163,-124 88,0 165,62 165,149zm25 463c0,89 -90,152 -189,152 -103,0 -190,-75 -190,-175 0,-70 39,-147 141,-203l148 94c34,23 90,59 90,132z"/>
  <path class="fil5" d="M38568 17255c0,-324 -139,-405 -246,-405 -66,0 -125,21 -177,75 -49,55 -77,105 -77,195 0,151 106,269 241,269 73,0 123,-51 150,-121l0 39c0,281 -125,337 -194,337 -21,0 -86,-3 -118,-44 53,0 62,-35 62,-55 0,-37 -29,-55 -55,-55 -19,0 -55,10 -55,57 0,81 64,130 167,130 155,0 302,-163 302,-422zm-111 -111c0,100 -41,217 -147,217 -19,0 -74,0 -112,-76 -21,-44 -21,-105 -21,-164 0,-64 0,-121 25,-166 32,-60 78,-75 120,-75 56,0 95,41 116,95 14,38 19,114 19,169l0 0z"/>
 </g>
</svg>
