<?xml version="1.0" encoding="UTF-8"?>
<!DOCTYPE svg PUBLIC "-//W3C//DTD SVG 1.1//EN" "http://www.w3.org/Graphics/SVG/1.1/DTD/svg11.dtd">
<!-- Creator: CorelDRAW X7 -->
<svg xmlns="http://www.w3.org/2000/svg" xml:space="preserve" width="74.6555mm" height="121.844mm" version="1.1" style="shape-rendering:geometricPrecision; text-rendering:geometricPrecision; image-rendering:optimizeQuality; fill-rule:evenodd; clip-rule:evenodd"
viewBox="0 0 12264 20016"
 xmlns:xlink="http://www.w3.org/1999/xlink">
 <defs>
  <style type="text/css">
   <![CDATA[
    .str0 {stroke:#373435;stroke-width:28.9788}
    .fil3 {fill:#ECCC91}
    .fil1 {fill:#CB9078}
    .fil19 {fill:#C9BFB3}
    .fil17 {fill:#D9C49C}
    .fil2 {fill:#DBA339}
    .fil5 {fill:#D1CB93}
    .fil0 {fill:#A64536}
    .fil21 {fill:#A3917F}
    .fil16 {fill:#BC9957}
    .fil11 {fill:#B6D3E1}
    .fil7 {fill:#ACB88E}
    .fil4 {fill:#ACA842}
    .fil9 {fill:#8D977B}
    .fil20 {fill:#66523C}
    .fil15 {fill:#6C7682}
    .fil10 {fill:#73B2C9}
    .fil6 {fill:#6E8B46}
    .fil8 {fill:#465D39}
    .fil14 {fill:#243843}
    .fil13 {fill:#83A9D2}
    .fil12 {fill:#265787}
    .fil18 {fill:#A89682}
    .fil22 {fill:#373435;fill-rule:nonzero}
   ]]>
  </style>
 </defs>
 <g id="Layer_x0020_1">
  <metadata id="CorelCorpID_0Corel-Layer"/>
  <g id="_2541686182208">
   <rect class="fil0 str0" x="4626" y="842" width="3812" height="1742"/>
   <rect class="fil1 str0" x="8438" y="842" width="3812" height="1742"/>
   <rect class="fil2 str0" x="4626" y="2584" width="3812" height="1742"/>
   <rect class="fil3 str0" x="8438" y="2584" width="3812" height="1742"/>
   <rect class="fil4 str0" x="4626" y="4326" width="3812" height="1742"/>
   <rect class="fil5 str0" x="8438" y="4326" width="3812" height="1742"/>
   <rect class="fil6 str0" x="4626" y="6068" width="3812" height="1742"/>
   <rect class="fil7 str0" x="8438" y="6068" width="3812" height="1742"/>
   <rect class="fil8 str0" x="4626" y="7810" width="3812" height="1742"/>
   <rect class="fil9 str0" x="8438" y="7810" width="3812" height="1742"/>
   <rect class="fil10 str0" x="4626" y="9551" width="3812" height="1742"/>
   <rect class="fil11 str0" x="8438" y="9551" width="3812" height="1742"/>
   <rect class="fil12 str0" x="4626" y="11293" width="3812" height="1742"/>
   <rect class="fil13 str0" x="8438" y="11293" width="3812" height="1742"/>
   <rect class="fil14 str0" x="4626" y="13035" width="3812" height="1742"/>
   <rect class="fil15 str0" x="8438" y="13035" width="3812" height="1742"/>
   <rect class="fil16 str0" x="4626" y="14777" width="3812" height="1742"/>
   <rect class="fil17 str0" x="8438" y="14777" width="3812" height="1742"/>
   <rect class="fil18 str0" x="4626" y="16518" width="3812" height="1742"/>
   <rect class="fil19 str0" x="8438" y="16518" width="3812" height="1742"/>
   <rect class="fil20 str0" x="4626" y="18260" width="3812" height="1742"/>
   <rect class="fil21 str0" x="8438" y="18260" width="3812" height="1742"/>
   <path class="fil22" d="M5480 197c0,-38 -25,-69 -57,-77l-49 -11c-23,-6 -38,-27 -38,-49 0,-26 21,-49 50,-49 64,0 72,62 74,79 1,2 1,5 5,5 5,0 5,-2 5,-9l0 -77c0,-6 0,-9 -4,-9 -3,0 -3,0 -6,5l-13 22c-12,-11 -27,-27 -61,-27 -42,0 -74,33 -74,74 0,31 20,59 49,69 5,2 24,6 51,13 10,2 21,5 32,19 8,10 12,23 12,35 0,27 -19,54 -51,54 -11,0 -40,-1 -60,-20 -22,-21 -23,-45 -24,-59 0,-3 -3,-3 -4,-3 -5,0 -5,2 -5,9l0 76c0,7 0,9 4,9 3,0 3,0 6,-5 0,0 1,-1 13,-21 12,13 36,26 70,26 45,0 75,-37 75,-79z"/>
   <path id="1" class="fil22" d="M5681 187c0,-49 -38,-89 -84,-89 -48,0 -85,41 -85,89 0,49 40,85 84,85 46,0 85,-37 85,-85zm-32 -3c0,13 0,34 -8,50 -9,18 -25,29 -44,29 -17,0 -33,-8 -44,-26 -9,-17 -9,-40 -9,-53 0,-15 0,-36 9,-53 10,-17 28,-25 43,-25 17,0 33,8 43,25 10,16 10,38 10,53z"/>
   <path id="2" class="fil22" d="M5789 268l0 -12c-26,0 -30,0 -30,-17l0 -235 -55 4 0 12c27,0 30,3 30,21l0 198c0,17 -4,17 -30,17l0 12 42 -1 43 1z"/>
   <path id="3" class="fil22" d="M5891 268l0 -12c-25,0 -26,-2 -26,-17l0 -139 -54 4 0 12c25,0 29,2 29,21l0 102c0,17 -5,17 -30,17l0 12 42 -1c13,0 26,1 39,1zm-21 -230c0,-10 -8,-20 -20,-20 -13,0 -20,11 -20,20 0,11 8,21 20,21 13,0 20,-11 20,-21z"/>
   <path id="4" class="fil22" d="M6103 268l0 -12c-26,0 -29,-3 -29,-21l0 -231 -55 4 0 12c27,0 30,3 30,21l0 83c-11,-14 -28,-24 -48,-24 -45,0 -85,37 -85,86 0,48 37,86 80,86 25,0 42,-13 51,-25l0 25 56 -4zm-56 -45c0,7 0,8 -4,14 -11,18 -28,27 -45,27 -17,0 -30,-10 -40,-25 -9,-15 -11,-37 -11,-52 0,-14 1,-37 12,-54 8,-12 23,-25 43,-25 13,0 29,6 41,23 4,7 4,7 4,14l0 78z"/>
   <path id="5" class="fil22" d="M6338 268l0 -12c-26,0 -30,0 -30,-17l0 -235 -55 4 0 12c27,0 30,3 30,21l0 198c0,17 -4,17 -30,17l0 12 43 -1 42 1z"/>
   <path id="6" class="fil22" d="M6440 268l0 -12c-25,0 -26,-2 -26,-17l0 -139 -53 4 0 12c24,0 28,2 28,21l0 102c0,17 -5,17 -30,17l0 12 42 -1c13,0 26,1 39,1zm-21 -230c0,-10 -8,-20 -20,-20 -13,0 -20,11 -20,20 0,11 9,21 20,21 13,0 20,-11 20,-21z"/>
   <path id="7" class="fil22" d="M6655 268l0 -12c-19,0 -29,0 -29,-11l0 -73c0,-33 0,-44 -12,-58 -5,-6 -18,-14 -40,-14 -28,0 -45,16 -56,40l0 -40 -54 4 0 12c27,0 30,3 30,21l0 102c0,17 -4,17 -30,17l0 12 43 -1 43 1 0 -12c-26,0 -30,0 -30,-17l0 -70c0,-39 27,-61 51,-61 24,0 29,21 29,42l0 89c0,17 -5,17 -30,17l0 12 43 -1 42 1z"/>
   <path id="8" class="fil22" d="M6821 223c0,-4 -3,-5 -5,-5 -3,0 -4,2 -5,5 -13,40 -47,40 -51,40 -19,0 -34,-12 -43,-26 -11,-18 -11,-43 -11,-57l106 0c8,0 9,0 9,-8 0,-37 -20,-74 -68,-74 -44,0 -79,39 -79,86 0,51 40,88 84,88 46,0 63,-42 63,-49zm-25 -51l-90 0c2,-56 34,-66 47,-66 39,0 43,51 43,66z"/>
   <path id="9" class="fil22" d="M7116 223c0,-4 -3,-4 -5,-4 -3,0 -4,1 -5,4 -11,35 -35,40 -49,40 -20,0 -54,-17 -54,-78 0,-62 31,-78 51,-78 4,0 28,1 41,14 -15,1 -18,13 -18,18 0,10 7,17 18,17 10,0 17,-6 17,-18 0,-26 -29,-40 -58,-40 -47,0 -82,41 -82,88 0,48 37,86 81,86 51,0 63,-46 63,-49z"/>
   <path id="10" class="fil22" d="M7306 187c0,-49 -38,-89 -84,-89 -47,0 -84,41 -84,89 0,49 40,85 84,85 46,0 84,-37 84,-85zm-31 -3c0,13 0,34 -9,50 -8,18 -25,29 -44,29 -16,0 -33,-8 -43,-26 -9,-17 -9,-40 -9,-53 0,-15 0,-36 9,-53 10,-17 28,-25 43,-25 17,0 33,8 43,25 10,16 10,38 10,53z"/>
   <path id="11" class="fil22" d="M7414 268l0 -12c-25,0 -29,0 -29,-17l0 -235 -55 4 0 12c27,0 30,3 30,21l0 198c0,17 -5,17 -30,17l0 12 42 -1 42 1z"/>
   <path id="12" class="fil22" d="M7602 187c0,-49 -38,-89 -84,-89 -47,0 -84,41 -84,89 0,49 39,85 84,85 46,0 84,-37 84,-85zm-32 -3c0,13 0,34 -8,50 -8,18 -25,29 -44,29 -16,0 -33,-8 -43,-26 -10,-17 -10,-40 -10,-53 0,-15 0,-36 9,-53 11,-17 28,-25 44,-25 16,0 33,8 43,25 9,16 9,38 9,53z"/>
   <path id="13" class="fil22" d="M7751 123c0,-12 -11,-23 -28,-23 -27,0 -41,25 -46,42l0 -42 -53 4 0 12c26,0 29,3 29,21l0 102c0,17 -4,17 -29,17l0 12 43 -1c15,0 33,0 48,1l0 -12 -8 0c-28,0 -29,-4 -29,-18l0 -58c0,-38 16,-72 45,-72 3,0 4,0 4,1 -1,0 -8,5 -8,15 0,10 8,16 16,16 7,0 16,-5 16,-17l0 0z"/>
   <path class="fil22" d="M1041 1838l0 -12 -7 0c-22,0 -28,-2 -32,-15l-82 -237c-2,-5 -3,-8 -9,-8 -6,0 -7,2 -9,8l-79 227c-6,19 -22,25 -42,25l0 12 39 -1 43 1 0 -12c-19,0 -28,-9 -28,-19 0,-1 0,-5 1,-6l17 -49 94 0 20 58c1,1 1,3 1,5 0,11 -21,11 -31,11l0 12c13,-1 40,-1 54,-1l50 1zm-98 -98l-86 0 43 -124 43 124z"/>
   <path id="1" class="fil22" d="M1257 1838l0 -12c-20,0 -29,0 -30,-11l0 -73c0,-32 0,-44 -11,-58 -6,-6 -18,-14 -40,-14 -28,0 -46,17 -56,40l0 -40 -54 4 0 12c27,0 30,3 30,21l0 102c0,17 -5,17 -30,17l0 12 43 -1 42 1 0 -12c-25,0 -29,0 -29,-17l0 -70c0,-39 27,-60 51,-60 24,0 28,20 28,42l0 88c0,17 -4,17 -29,17l0 12 43 -1 42 1z"/>
   <path id="2" class="fil22" d="M1449 1804l0 -21 -10 0 0 21c0,22 -9,25 -14,25 -12,0 -14,-17 -14,-19l0 -76c0,-16 0,-31 -13,-45 -15,-15 -34,-21 -52,-21 -32,0 -58,18 -58,43 0,11 8,18 18,18 10,0 17,-8 17,-18 0,-4 -2,-17 -19,-17 10,-14 29,-18 41,-18 18,0 40,15 40,49l0 14c-19,1 -46,2 -70,14 -28,13 -38,32 -38,49 0,31 37,40 61,40 25,0 43,-15 50,-33 1,15 12,31 29,31 8,0 32,-5 32,-36l0 0zm-64 -19c0,36 -27,49 -44,49 -19,0 -35,-13 -35,-32 0,-21 16,-53 79,-55l0 38z"/>
   <path id="3" class="fil22" d="M1613 1793c0,-4 -4,-4 -5,-4 -4,0 -4,2 -5,4 -11,35 -36,40 -50,40 -20,0 -53,-17 -53,-78 0,-62 31,-78 51,-78 3,0 27,1 40,14 -15,2 -17,13 -17,18 0,10 6,17 17,17 10,0 18,-6 18,-17 0,-26 -29,-41 -59,-41 -47,0 -82,41 -82,88 0,49 38,86 82,86 51,0 63,-45 63,-49z"/>
   <path id="4" class="fil22" d="M1803 1757c0,-49 -38,-89 -84,-89 -48,0 -85,41 -85,89 0,49 40,85 84,85 46,0 85,-37 85,-85zm-32 -3c0,13 0,34 -8,51 -9,17 -25,28 -44,28 -17,0 -33,-8 -44,-26 -9,-16 -9,-40 -9,-53 0,-15 0,-36 9,-52 10,-18 28,-26 43,-26 17,0 33,9 43,25 10,16 10,38 10,53z"/>
   <path id="5" class="fil22" d="M2017 1838l0 -12c-20,0 -29,0 -30,-11l0 -73c0,-32 0,-44 -11,-58 -6,-6 -18,-14 -40,-14 -28,0 -46,17 -56,40l0 -40 -54 4 0 12c27,0 30,3 30,21l0 102c0,17 -5,17 -30,17l0 12 43 -1 42 1 0 -12c-25,0 -29,0 -29,-17l0 -70c0,-39 27,-60 51,-60 24,0 28,20 28,42l0 88c0,17 -4,17 -29,17l0 12 43 -1 42 1z"/>
   <path id="6" class="fil22" d="M2225 1838l0 -12c-26,0 -29,-2 -29,-21l0 -231 -55 5 0 11c27,0 30,3 30,22l0 82c-11,-14 -28,-24 -48,-24 -45,0 -85,37 -85,86 0,49 37,86 81,86 24,0 41,-13 50,-25l0 25 56 -4zm-56 -45c0,7 0,8 -4,14 -11,19 -28,27 -45,27 -17,0 -30,-10 -39,-24 -10,-16 -11,-38 -11,-53 0,-14 0,-37 11,-54 8,-12 23,-24 43,-24 14,0 30,5 41,22 4,7 4,8 4,14l0 78z"/>
   <path id="7" class="fil22" d="M2420 1804l0 -21 -10 0 0 21c0,22 -9,25 -13,25 -13,0 -14,-17 -14,-19l0 -76c0,-16 0,-31 -14,-45 -15,-15 -34,-21 -52,-21 -31,0 -57,18 -57,43 0,11 7,18 17,18 11,0 17,-8 17,-18 0,-4 -1,-17 -19,-17 10,-14 29,-18 41,-18 19,0 40,15 40,49l0 14c-19,1 -46,2 -70,14 -28,13 -38,32 -38,49 0,31 37,40 61,40 25,0 43,-15 50,-33 2,15 12,31 30,31 8,0 31,-5 31,-36l0 0zm-64 -19c0,36 -27,49 -44,49 -19,0 -34,-13 -34,-32 0,-21 16,-53 78,-55l0 38z"/>
   <path id="8" class="fil22" d="M2736 1804l0 -21 -9 0 0 21c0,22 -10,25 -14,25 -12,0 -14,-17 -14,-19l0 -76c0,-16 0,-31 -13,-45 -15,-15 -34,-21 -53,-21 -31,0 -57,18 -57,43 0,11 8,18 18,18 10,0 17,-8 17,-18 0,-4 -2,-17 -19,-17 10,-14 29,-18 41,-18 18,0 40,15 40,49l0 14c-19,1 -46,2 -70,14 -28,13 -38,32 -38,49 0,31 37,40 61,40 25,0 42,-15 50,-33 1,15 11,31 29,31 8,0 31,-5 31,-36l0 0zm-63 -19c0,36 -27,49 -44,49 -19,0 -35,-13 -35,-32 0,-21 16,-53 79,-55l0 38z"/>
   <path id="9" class="fil22" d="M2946 1838l0 -12c-20,0 -29,0 -29,-11l0 -73c0,-32 0,-44 -12,-58 -6,-6 -18,-14 -40,-14 -28,0 -46,17 -56,40l0 -40 -54 4 0 12c27,0 30,3 30,21l0 102c0,17 -4,17 -30,17l0 12 43 -1 43 1 0 -12c-26,0 -30,0 -30,-17l0 -70c0,-39 27,-60 51,-60 24,0 28,20 28,42l0 88c0,17 -4,17 -29,17l0 12 43 -1 42 1z"/>
   <path id="10" class="fil22" d="M3154 1838l0 -12c-26,0 -29,-2 -29,-21l0 -231 -55 5 0 11c27,0 30,3 30,22l0 82c-11,-14 -28,-24 -48,-24 -45,0 -85,37 -85,86 0,49 37,86 81,86 24,0 41,-13 51,-25l0 25 55 -4zm-55 -45c0,7 0,8 -5,14 -11,19 -28,27 -44,27 -18,0 -31,-10 -40,-24 -10,-16 -11,-38 -11,-53 0,-14 0,-37 11,-54 8,-12 23,-24 43,-24 14,0 30,5 41,22 5,7 5,8 5,14l0 78z"/>
   <path id="11" class="fil22" d="M3529 1649c0,-37 -38,-70 -90,-70l-134 0 0 11 9 0c30,0 30,5 30,18l0 201c0,13 0,17 -30,17l-9 0 0 12c14,-1 42,-1 56,-1 15,0 43,0 56,1l0 -12 -9 0c-29,0 -30,-4 -30,-17l0 -91 64 0c46,0 87,-31 87,-69zm-39 0c0,18 0,59 -60,59l-53 0 0 -102c0,-13 1,-16 19,-16l34 0c60,0 60,41 60,59z"/>
   <path id="12" class="fil22" d="M3744 1686l0 -12c-9,1 -20,2 -29,2l-33 -2 0 12c12,1 18,7 18,17 0,3 0,4 -2,9l-39 93 -42 -102c-1,-4 -2,-5 -2,-7 0,-10 14,-10 21,-10l0 -12 -41 2c-10,0 -26,-1 -37,-2l0 12c18,0 25,0 31,13l57 139 -10 23c-8,20 -19,47 -43,47 -2,0 -11,0 -18,-7 12,-2 15,-10 15,-16 0,-10 -7,-16 -16,-16 -8,0 -16,5 -16,16 0,17 16,31 35,31 24,0 39,-22 49,-43l66 -163c10,-23 30,-24 36,-24z"/>
   <path id="13" class="fil22" d="M3989 1649c0,-37 -38,-70 -90,-70l-134 0 0 11 9 0c29,0 30,5 30,18l0 201c0,13 -1,17 -30,17l-9 0 0 12c13,-1 41,-1 56,-1 14,0 43,0 56,1l0 -12 -9 0c-30,0 -30,-4 -30,-17l0 -91 64 0c46,0 87,-31 87,-69zm-40 0c0,18 0,59 -60,59l-52 0 0 -102c0,-13 0,-16 18,-16l34 0c60,0 60,41 60,59z"/>
   <path id="14" class="fil22" d="M4104 1838l0 -12c-25,0 -27,-2 -27,-16l0 -140 -53 4 0 12c25,0 28,2 28,21l0 102c0,17 -4,17 -29,17l0 12 42 -1c13,0 26,1 39,1zm-21 -229c0,-11 -9,-21 -20,-21 -13,0 -20,11 -20,21 0,10 8,20 20,20 13,0 20,-11 20,-20z"/>
   <path class="fil22" d="M1016 3464c0,-4 0,-7 -5,-7 -4,0 -4,2 -5,6 -3,55 -43,86 -85,86 -23,0 -97,-13 -97,-126 0,-114 74,-127 97,-127 41,0 75,35 83,90 1,5 1,7 6,7 6,0 6,-2 6,-10l0 -90c0,-6 0,-9 -4,-9 -2,0 -3,0 -6,5l-19 28c-14,-14 -34,-33 -70,-33 -71,0 -132,61 -132,138 0,79 61,139 132,139 62,0 99,-53 99,-97z"/>
   <path id="1" class="fil22" d="M1217 3471c0,-49 -38,-89 -84,-89 -48,0 -85,41 -85,89 0,49 40,85 84,85 46,0 85,-37 85,-85zm-32 -3c0,14 0,34 -8,51 -9,17 -25,28 -44,28 -17,0 -33,-8 -44,-26 -9,-16 -9,-39 -9,-53 0,-15 0,-36 9,-52 10,-18 28,-26 43,-26 17,0 33,9 43,25 10,16 10,38 10,53z"/>
   <path id="2" class="fil22" d="M1431 3552l0 -12c-20,0 -29,0 -30,-11l0 -73c0,-32 0,-44 -12,-58 -5,-6 -17,-14 -39,-14 -28,0 -46,17 -57,40l0 -40 -53 4 0 12c26,0 29,3 29,21l0 102c0,17 -4,17 -29,17l0 12 43 -1 42 1 0 -12c-25,0 -29,0 -29,-17l0 -70c0,-39 27,-60 51,-60 24,0 28,20 28,42l0 88c0,17 -4,17 -30,17l0 12 43 -1 43 1z"/>
   <path id="3" class="fil22" d="M1575 3311c0,-14 -15,-27 -35,-27 -26,0 -59,20 -59,61l0 43 -30 0 0 12 30 0 0 123c0,17 -4,17 -29,17l0 12 43 -1c15,0 33,0 48,1l0 -12 -8 0c-28,0 -28,-4 -28,-17l0 -123 43 0 0 -12 -45 0 0 -44c0,-33 19,-51 35,-51 1,0 7,0 13,2 -5,2 -12,7 -12,16 0,9 7,17 17,17 11,0 17,-8 17,-17z"/>
   <path id="4" class="fil22" d="M1713 3507c0,-4 -3,-5 -5,-5 -3,0 -4,3 -5,6 -13,39 -48,39 -51,39 -19,0 -35,-12 -43,-26 -12,-18 -12,-43 -12,-57l106 0c9,0 10,0 10,-8 0,-37 -21,-74 -68,-74 -44,0 -79,39 -79,87 0,51 40,87 83,87 47,0 64,-42 64,-49zm-25 -51l-90 0c2,-56 34,-66 47,-66 39,0 43,52 43,66z"/>
   <path id="5" class="fil22" d="M1862 3407c0,-12 -12,-23 -28,-23 -28,0 -41,26 -47,42l0 -42 -52 4 0 12c26,0 29,3 29,21l0 102c0,17 -4,17 -29,17l0 12 43 -1c15,0 33,0 48,1l0 -12 -8 0c-28,0 -29,-4 -29,-17l0 -59c0,-38 16,-71 45,-71 3,0 4,0 4,0 -1,0 -8,5 -8,15 0,10 8,16 16,16 7,0 16,-4 16,-17l0 0z"/>
   <path id="6" class="fil22" d="M2031 3507c0,-4 -3,-5 -5,-5 -4,0 -5,3 -5,6 -14,39 -48,39 -52,39 -19,0 -34,-12 -43,-26 -11,-18 -11,-43 -11,-57l106 0c8,0 10,0 10,-8 0,-37 -21,-74 -68,-74 -45,0 -79,39 -79,87 0,51 39,87 83,87 46,0 64,-42 64,-49zm-26 -51l-90 0c3,-56 35,-66 48,-66 39,0 42,52 42,66z"/>
   <path id="7" class="fil22" d="M2245 3552l0 -12c-20,0 -29,0 -30,-11l0 -73c0,-32 0,-44 -12,-58 -5,-6 -17,-14 -39,-14 -28,0 -46,17 -57,40l0 -40 -53 4 0 12c26,0 29,3 29,21l0 102c0,17 -4,17 -29,17l0 12 43 -1 42 1 0 -12c-25,0 -29,0 -29,-17l0 -70c0,-39 27,-60 51,-60 24,0 28,20 28,42l0 88c0,17 -4,17 -30,17l0 12 43 -1 43 1z"/>
   <path id="8" class="fil22" d="M2411 3507c0,-4 -4,-4 -5,-4 -4,0 -5,2 -5,4 -11,35 -36,40 -50,40 -20,0 -54,-16 -54,-78 0,-62 31,-78 52,-78 3,0 27,1 40,15 -15,1 -18,12 -18,17 0,10 7,17 18,17 10,0 17,-6 17,-17 0,-26 -28,-41 -58,-41 -47,0 -82,41 -82,88 0,49 37,86 81,86 51,0 64,-45 64,-49z"/>
   <path id="9" class="fil22" d="M2579 3507c0,-4 -3,-5 -5,-5 -3,0 -4,3 -5,6 -13,39 -47,39 -51,39 -19,0 -34,-12 -43,-26 -11,-18 -11,-43 -11,-57l106 0c8,0 9,0 9,-8 0,-37 -20,-74 -68,-74 -44,0 -79,39 -79,87 0,51 40,87 84,87 46,0 63,-42 63,-49zm-25 -51l-90 0c2,-56 34,-66 47,-66 39,0 43,52 43,66z"/>
   <path id="10" class="fil22" d="M2991 3423c0,-77 -58,-139 -127,-139 -68,0 -126,61 -126,139 0,78 59,138 126,138 69,0 127,-61 127,-138zm-39 -5c0,101 -52,133 -87,133 -37,0 -88,-34 -88,-133 0,-98 56,-124 87,-124 33,0 88,27 88,124z"/>
   <path id="11" class="fil22" d="M3211 3470c0,-48 -37,-86 -80,-86 -30,0 -46,17 -53,25l0 -25 -55 4 0 12c27,0 30,2 30,19l0 178c0,17 -4,17 -30,17l0 12 43 -1 43 1 0 -12c-26,0 -30,0 -30,-17l0 -64 0 -3c2,6 18,26 47,26 45,0 85,-37 85,-86l0 0zm-32 0c0,46 -27,78 -55,78 -15,0 -29,-8 -40,-23 -5,-8 -5,-9 -5,-16l0 -85c11,-19 30,-30 49,-30 28,0 51,33 51,76l0 0z"/>
   <path id="12" class="fil22" d="M3392 3507c0,-4 -3,-5 -5,-5 -3,0 -4,3 -5,6 -13,39 -47,39 -51,39 -19,0 -34,-12 -43,-26 -11,-18 -11,-43 -11,-57l106 0c8,0 9,0 9,-8 0,-37 -20,-74 -68,-74 -44,0 -79,39 -79,87 0,51 40,87 84,87 46,0 63,-42 63,-49zm-25 -51l-90 0c2,-56 34,-66 47,-66 39,0 43,52 43,66z"/>
   <path id="13" class="fil22" d="M3606 3552l0 -12c-19,0 -29,0 -29,-11l0 -73c0,-32 0,-44 -12,-58 -5,-6 -18,-14 -40,-14 -28,0 -45,17 -56,40l0 -40 -54 4 0 12c27,0 30,3 30,21l0 102c0,17 -4,17 -30,17l0 12 43 -1 43 1 0 -12c-26,0 -30,0 -30,-17l0 -70c0,-39 27,-60 51,-60 24,0 29,20 29,42l0 88c0,17 -5,17 -30,17l0 12 43 -1 42 1z"/>
   <path id="14" class="fil22" d="M3708 3552l0 -12c-25,0 -26,-1 -26,-16l0 -140 -53 4 0 12c24,0 28,2 28,21l0 102c0,17 -5,17 -30,17l0 12 42 -1c13,0 26,1 39,1zm-21 -229c0,-11 -8,-20 -20,-20 -13,0 -20,10 -20,20 0,10 8,20 20,20 13,0 20,-11 20,-20z"/>
   <path id="15" class="fil22" d="M3923 3552l0 -12c-19,0 -29,0 -29,-11l0 -73c0,-32 0,-44 -12,-58 -5,-6 -18,-14 -40,-14 -28,0 -46,17 -56,40l0 -40 -54 4 0 12c27,0 30,3 30,21l0 102c0,17 -4,17 -30,17l0 12 43 -1 43 1 0 -12c-26,0 -30,0 -30,-17l0 -70c0,-39 27,-60 51,-60 24,0 29,20 29,42l0 88c0,17 -5,17 -30,17l0 12 43 -1 42 1z"/>
   <path id="16" class="fil22" d="M4116 3399c0,-7 -5,-19 -20,-19 -7,0 -24,2 -40,18 -16,-13 -32,-14 -40,-14 -36,0 -62,26 -62,56 0,16 9,31 18,39 -5,6 -12,18 -12,31 0,12 5,27 17,34 -23,7 -35,23 -35,38 0,28 38,48 84,48 45,0 84,-19 84,-49 0,-13 -5,-32 -24,-43 -20,-11 -43,-11 -66,-11 -9,0 -26,0 -28,0 -12,-1 -20,-13 -20,-25 0,-2 0,-11 6,-18 15,10 31,12 38,12 35,0 61,-27 61,-56 0,-14 -6,-28 -15,-37 13,-13 27,-15 34,-15 0,0 3,0 4,1 -4,1 -6,5 -6,10 0,7 5,11 11,11 3,0 11,-3 11,-11l0 0zm-67 41c0,10 -1,22 -6,32 -3,4 -12,15 -27,15 -33,0 -33,-38 -33,-47 0,-10 0,-22 6,-32 3,-4 12,-15 27,-15 33,0 33,38 33,47l0 0zm42 142c0,21 -27,40 -65,40 -38,0 -64,-20 -64,-40 0,-17 14,-31 31,-32l22 0c33,0 76,0 76,32z"/>
   <path class="fil22" d="M623 5266l0 -12 -10 0c-30,0 -31,-4 -31,-17l0 -201c0,-13 1,-18 31,-18l10 0 0 -11c-13,1 -43,1 -58,1 -15,0 -45,0 -58,-1l0 11 10 0c30,0 31,5 31,18l0 201c0,13 -1,17 -31,17l-10 0 0 12c13,-1 43,-1 58,-1 15,0 45,0 58,1z"/>
   <path id="1" class="fil22" d="M837 5266l0 -12c-20,0 -29,0 -30,-11l0 -73c0,-32 0,-44 -12,-58 -5,-6 -18,-14 -40,-14 -27,0 -45,17 -56,40l0 -40 -53 4 0 12c26,0 29,3 29,22l0 101c0,17 -4,17 -29,17l0 12 43 -1 42 1 0 -12c-25,0 -29,0 -29,-17l0 -70c0,-39 26,-60 51,-60 24,0 28,20 28,42l0 88c0,17 -4,17 -30,17l0 12 43 -1 43 1z"/>
   <path id="2" class="fil22" d="M960 5219l0 -22 -9 0 0 21c0,28 -12,43 -26,43 -25,0 -25,-35 -25,-41l0 -106 54 0 0 -12 -54 0 0 -69 -10 0c0,31 -11,71 -49,73l0 8 33 0 0 105c0,47 35,51 49,51 27,0 37,-27 37,-51l0 0z"/>
   <path id="3" class="fil22" d="M1120 5121c0,-12 -12,-23 -28,-23 -28,0 -41,26 -47,42l0 -42 -52 4 0 12c26,0 29,3 29,22l0 101c0,17 -4,17 -29,17l0 12 43 -1c15,0 33,0 48,1l0 -12 -8 0c-28,0 -29,-4 -29,-17l0 -59c0,-38 16,-71 45,-71 3,0 4,0 4,0 -1,0 -8,5 -8,15 0,10 8,16 16,16 7,0 16,-4 16,-17l0 0z"/>
   <path id="4" class="fil22" d="M1310 5185c0,-49 -38,-89 -84,-89 -48,0 -84,41 -84,89 0,49 39,85 84,85 46,0 84,-37 84,-85zm-32 -3c0,14 0,34 -8,51 -8,17 -25,28 -44,28 -16,0 -33,-8 -43,-26 -10,-16 -10,-39 -10,-53 0,-15 0,-35 9,-52 10,-18 28,-26 44,-26 16,0 33,9 42,25 10,16 10,38 10,53z"/>
   <path id="5" class="fil22" d="M1532 5266l0 -12c-27,0 -30,-2 -30,-21l0 -230 -55 4 0 11c27,0 30,3 30,22l0 82c-11,-14 -27,-24 -48,-24 -45,0 -85,38 -85,87 0,48 38,85 81,85 24,0 41,-13 51,-25l0 25 56 -4zm-56 -45c0,7 0,8 -4,14 -12,19 -29,27 -45,27 -17,0 -31,-10 -40,-24 -10,-16 -11,-38 -11,-53 0,-14 1,-37 12,-54 8,-12 22,-24 43,-24 13,0 29,5 41,22 4,7 4,8 4,14l0 78z"/>
   <path id="6" class="fil22" d="M1746 5266l0 -12c-26,0 -30,-2 -30,-21l0 -135 -55 4 0 12c26,0 29,3 29,22l0 67c0,33 -18,59 -46,59 -32,0 -33,-18 -33,-38l0 -126 -56 4 0 12c30,0 30,1 30,35l0 57c0,30 0,64 57,64 22,0 38,-10 49,-34l0 34 55 -4z"/>
   <path id="7" class="fil22" d="M1912 5221c0,-4 -4,-4 -5,-4 -4,0 -4,2 -5,4 -11,35 -36,40 -50,40 -20,0 -53,-16 -53,-78 0,-62 31,-78 51,-78 3,0 27,1 41,15 -16,1 -18,12 -18,17 0,10 7,18 17,18 10,0 18,-7 18,-18 0,-26 -29,-41 -59,-41 -47,0 -82,41 -82,88 0,49 38,86 82,86 51,0 63,-45 63,-49z"/>
   <path id="8" class="fil22" d="M2049 5219l0 -22 -9 0 0 21c0,28 -12,43 -26,43 -25,0 -25,-35 -25,-41l0 -106 54 0 0 -12 -54 0 0 -69 -10 0c0,31 -12,71 -49,73l0 8 32 0 0 105c0,47 36,51 49,51 27,0 38,-27 38,-51l0 0z"/>
   <path id="9" class="fil22" d="M2165 5266l0 -12c-26,0 -27,-1 -27,-16l0 -140 -53 4 0 12c24,0 28,3 28,21l0 102c0,17 -4,17 -30,17l0 12 42 -1c13,0 27,1 40,1zm-21 -229c0,-11 -9,-20 -21,-20 -12,0 -20,10 -20,20 0,10 9,20 20,20 13,0 21,-11 21,-20z"/>
   <path id="10" class="fil22" d="M2355 5185c0,-49 -38,-89 -84,-89 -47,0 -84,41 -84,89 0,49 39,85 84,85 46,0 84,-37 84,-85zm-31 -3c0,14 0,34 -9,51 -8,17 -25,28 -44,28 -16,0 -33,-8 -43,-26 -9,-16 -9,-39 -9,-53 0,-15 0,-35 9,-52 10,-18 28,-26 43,-26 17,0 33,9 43,25 10,16 10,38 10,53z"/>
   <path id="11" class="fil22" d="M2570 5266l0 -12c-20,0 -30,0 -30,-11l0 -73c0,-32 0,-44 -12,-58 -5,-6 -18,-14 -40,-14 -27,0 -45,17 -56,40l0 -40 -54 4 0 12c27,0 30,3 30,22l0 101c0,17 -4,17 -30,17l0 12 43 -1 43 1 0 -12c-25,0 -30,0 -30,-17l0 -70c0,-39 27,-60 52,-60 24,0 28,20 28,42l0 88c0,17 -4,17 -30,17l0 12 43 -1 43 1z"/>
   <path id="12" class="fil22" d="M2830 5219l0 -22 -9 0 0 21c0,28 -12,43 -26,43 -25,0 -25,-35 -25,-41l0 -106 54 0 0 -12 -54 0 0 -69 -10 0c0,31 -11,71 -49,73l0 8 33 0 0 105c0,47 35,51 49,51 27,0 37,-27 37,-51l0 0z"/>
   <path id="13" class="fil22" d="M3031 5185c0,-49 -38,-89 -84,-89 -48,0 -84,41 -84,89 0,49 39,85 84,85 46,0 84,-37 84,-85zm-32 -3c0,14 0,34 -8,51 -8,17 -25,28 -44,28 -16,0 -33,-8 -43,-26 -10,-16 -10,-39 -10,-53 0,-15 0,-35 9,-52 11,-18 28,-26 44,-26 16,0 33,9 43,25 9,16 9,38 9,53z"/>
   <path id="14" class="fil22" d="M3406 5077c0,-37 -38,-70 -90,-70l-134 0 0 11 9 0c29,0 30,5 30,18l0 201c0,13 -1,17 -30,17l-9 0 0 12c13,-1 41,-1 56,-1 14,0 43,0 56,1l0 -12 -9 0c-29,0 -30,-4 -30,-17l0 -91 64 0c46,0 87,-31 87,-69zm-40 0c0,18 0,59 -60,59l-52 0 0 -102c0,-13 0,-16 18,-16l34 0c60,0 60,41 60,59z"/>
   <path id="15" class="fil22" d="M3620 5114l0 -12c-8,1 -19,2 -28,2l-33 -2 0 12c12,1 18,7 18,17 0,3 -1,4 -3,9l-38 93 -42 -102c-2,-4 -2,-5 -2,-7 0,-10 14,-10 21,-10l0 -12 -42 2c-10,0 -25,-1 -36,-2l0 12c18,0 25,0 30,14l57 138 -9 23c-9,21 -19,47 -44,47 -1,0 -10,0 -17,-7 11,-2 14,-10 14,-16 0,-10 -7,-16 -16,-16 -7,0 -15,5 -15,16 0,17 15,31 34,31 24,0 40,-22 49,-43l67 -162c10,-24 29,-25 35,-25z"/>
   <path id="16" class="fil22" d="M3754 5219l0 -22 -9 0 0 21c0,28 -12,43 -26,43 -25,0 -25,-35 -25,-41l0 -106 54 0 0 -12 -54 0 0 -69 -10 0c0,31 -12,71 -49,73l0 8 32 0 0 105c0,47 36,51 49,51 27,0 38,-27 38,-51l0 0z"/>
   <path id="17" class="fil22" d="M3979 5266l0 -12c-20,0 -29,0 -30,-11l0 -73c0,-32 0,-44 -11,-58 -6,-6 -18,-14 -40,-14 -32,0 -49,23 -55,37l0 0 0 -132 -55 4 0 11c27,0 30,3 30,22l0 197c0,17 -5,17 -30,17l0 12 43 -1 42 1 0 -12c-25,0 -29,0 -29,-17l0 -70c0,-39 27,-60 51,-60 24,0 28,20 28,42l0 88c0,17 -4,17 -29,17l0 12 43 -1 42 1z"/>
   <path id="18" class="fil22" d="M4166 5185c0,-49 -38,-89 -84,-89 -47,0 -84,41 -84,89 0,49 39,85 84,85 46,0 84,-37 84,-85zm-32 -3c0,14 0,34 -8,51 -8,17 -25,28 -44,28 -16,0 -33,-8 -43,-26 -10,-16 -10,-39 -10,-53 0,-15 0,-35 9,-52 11,-18 28,-26 44,-26 16,0 33,9 43,25 9,16 9,38 9,53z"/>
   <path id="19" class="fil22" d="M4380 5266l0 -12c-19,0 -29,0 -29,-11l0 -73c0,-32 0,-44 -12,-58 -5,-6 -18,-14 -40,-14 -28,0 -46,17 -56,40l0 -40 -54 4 0 12c27,0 30,3 30,22l0 101c0,17 -4,17 -30,17l0 12 43 -1 43 1 0 -12c-26,0 -30,0 -30,-17l0 -70c0,-39 27,-60 51,-60 24,0 28,20 28,42l0 88c0,17 -4,17 -29,17l0 12 43 -1 42 1z"/>
   <path class="fil22" d="M974 6980l0 -12 -10 0c-30,0 -31,-4 -31,-17l0 -201c0,-13 1,-18 31,-18l10 0 0 -11c-13,1 -43,1 -58,1 -15,0 -45,0 -58,-1l0 11 10 0c30,0 31,5 31,18l0 201c0,13 -1,17 -31,17l-10 0 0 12c13,-1 43,-1 58,-1 15,0 45,0 58,1z"/>
   <path id="1" class="fil22" d="M1188 6980l0 -12c-20,0 -29,0 -30,-11l0 -73c0,-32 0,-44 -12,-58 -5,-6 -17,-14 -39,-14 -28,0 -46,17 -57,40l0 -40 -53 4 0 12c26,0 29,3 29,22l0 101c0,17 -4,17 -29,17l0 12 43 -1 42 1 0 -12c-25,0 -29,0 -29,-17l0 -70c0,-39 27,-60 51,-60 24,0 28,20 28,42l0 88c0,17 -4,17 -30,17l0 12 43 -1 43 1z"/>
   <path id="2" class="fil22" d="M1311 6933l0 -22 -9 0 0 21c0,28 -11,43 -26,43 -25,0 -25,-35 -25,-41l0 -106 54 0 0 -12 -54 0 0 -69 -9 0c-1,31 -12,71 -50,73l0 8 33 0 0 105c0,47 35,51 49,51 27,0 37,-27 37,-51l0 0z"/>
   <path id="3" class="fil22" d="M1471 6835c0,-12 -11,-23 -28,-23 -27,0 -41,26 -46,42l0 -42 -53 4 0 12c26,0 29,3 29,22l0 101c0,17 -4,17 -29,17l0 12 43 -1c15,0 33,0 48,1l0 -12 -8 0c-28,0 -29,-4 -29,-17l0 -59c0,-38 16,-71 45,-71 3,0 4,0 4,0 -1,0 -8,5 -8,15 0,10 8,16 16,16 7,0 16,-4 16,-17l0 0z"/>
   <path id="4" class="fil22" d="M1661 6899c0,-49 -38,-89 -84,-89 -47,0 -84,41 -84,89 0,49 39,85 84,85 46,0 84,-37 84,-85zm-32 -3c0,14 0,34 -8,51 -8,17 -25,28 -44,28 -16,0 -33,-8 -43,-26 -10,-16 -10,-39 -10,-53 0,-15 0,-35 9,-52 11,-18 28,-26 44,-26 16,0 33,9 43,25 9,16 9,38 9,53z"/>
   <path id="5" class="fil22" d="M1883 6980l0 -12c-27,0 -30,-2 -30,-21l0 -230 -54 4 0 11c26,0 29,3 29,22l0 82c-11,-14 -27,-24 -48,-24 -44,0 -84,38 -84,87 0,48 37,85 80,85 24,0 42,-12 51,-25l0 25 56 -4zm-56 -45c0,7 0,8 -4,14 -11,19 -29,27 -45,27 -17,0 -31,-10 -40,-24 -10,-16 -11,-37 -11,-53 0,-14 1,-37 12,-54 8,-12 22,-24 43,-24 13,0 29,5 41,22 4,7 4,8 4,15l0 77z"/>
   <path id="6" class="fil22" d="M2097 6980l0 -12c-26,0 -29,-2 -29,-21l0 -135 -56 4 0 12c26,0 29,3 29,22l0 67c0,33 -18,59 -46,59 -31,0 -33,-18 -33,-38l0 -126 -56 4 0 12c30,0 30,1 30,35l0 57c0,30 0,64 58,64 21,0 38,-10 49,-34l0 34 54 -4z"/>
   <path id="7" class="fil22" d="M2263 6935c0,-4 -4,-4 -5,-4 -3,0 -4,2 -5,4 -11,35 -36,40 -50,40 -20,0 -53,-16 -53,-78 0,-62 31,-77 51,-77 3,0 27,0 41,14 -16,1 -18,12 -18,17 0,10 7,18 17,18 10,0 18,-7 18,-18 0,-26 -29,-41 -58,-41 -48,0 -83,41 -83,88 0,49 38,86 82,86 51,0 63,-45 63,-49z"/>
   <path id="8" class="fil22" d="M2368 6980l0 -12c-25,0 -27,-1 -27,-16l0 -140 -53 4 0 12c25,0 28,3 28,21l0 102c0,17 -4,17 -29,17l0 12 41 -1c14,0 27,1 40,1zm-21 -229c0,-11 -9,-20 -20,-20 -13,0 -21,10 -21,20 0,10 9,20 20,20 13,0 21,-11 21,-20z"/>
   <path id="9" class="fil22" d="M2583 6980l0 -12c-20,0 -29,0 -30,-11l0 -73c0,-32 0,-44 -11,-58 -6,-6 -18,-14 -40,-14 -28,0 -46,17 -57,40l0 -40 -53 4 0 12c26,0 29,3 29,22l0 101c0,17 -4,17 -29,17l0 12 43 -1 42 1 0 -12c-25,0 -29,0 -29,-17l0 -70c0,-39 27,-60 51,-60 24,0 28,20 28,42l0 88c0,17 -4,17 -30,17l0 12 43 -1 43 1z"/>
   <path id="10" class="fil22" d="M2775 6827c0,-7 -4,-19 -19,-19 -8,0 -24,2 -40,18 -16,-13 -32,-14 -41,-14 -35,0 -61,27 -61,56 0,16 8,31 18,39 -5,6 -12,18 -12,31 0,12 5,27 17,34 -23,7 -35,23 -35,38 0,28 37,49 84,49 44,0 84,-20 84,-49 0,-14 -5,-33 -25,-44 -20,-10 -42,-10 -65,-10 -10,0 -26,0 -29,-1 -12,-1 -20,-13 -20,-25 0,-2 0,-11 7,-18 14,10 30,12 37,12 36,0 62,-27 62,-56 0,-14 -6,-28 -16,-37 14,-13 28,-15 34,-15 0,0 3,0 4,1 -4,1 -6,6 -6,10 0,7 5,11 11,11 4,0 11,-3 11,-11l0 0zm-67 41c0,10 0,22 -6,32 -3,4 -12,15 -27,15 -33,0 -33,-38 -33,-47 0,-10 1,-22 6,-32 3,-4 12,-15 27,-15 33,0 33,38 33,47l0 0zm42 142c0,21 -27,40 -64,40 -38,0 -65,-20 -65,-40 0,-17 15,-31 31,-32l23 0c33,0 75,0 75,32z"/>
   <path id="11" class="fil22" d="M3105 6898c0,-48 -36,-86 -79,-86 -30,0 -46,17 -53,25l0 -25 -55 4 0 12c27,0 30,3 30,19l0 178c0,17 -4,17 -30,17l0 12 43 -1 43 1 0 -12c-26,0 -30,0 -30,-17l0 -64 0 -3c2,6 18,26 47,26 45,0 84,-37 84,-86l0 0zm-31 0c0,46 -27,78 -55,78 -15,0 -29,-8 -40,-23 -5,-8 -5,-8 -5,-16l0 -85c11,-19 30,-30 49,-30 28,0 51,33 51,76l0 0z"/>
   <path id="12" class="fil22" d="M3301 6828l0 -12c-9,1 -20,2 -28,2l-33 -2 0 12c11,1 17,7 17,17 0,3 0,4 -2,9l-38 93 -42 -102c-2,-4 -3,-5 -3,-7 0,-10 14,-10 22,-10l0 -12 -42 2c-10,0 -25,-1 -37,-2l0 12c19,0 26,0 31,14l57 138 -9 23c-9,21 -19,47 -44,47 -2,0 -10,0 -18,-7 12,-2 15,-10 15,-16 0,-10 -7,-16 -16,-16 -7,0 -16,5 -16,16 0,17 16,31 35,31 24,0 40,-21 49,-43l67 -162c10,-24 29,-25 35,-25z"/>
   <path id="13" class="fil22" d="M3541 6807l-11 -85 -209 0 0 12 9 0c30,0 30,4 30,17l0 200c0,13 0,17 -30,17l-9 0 0 12c14,-1 43,-1 58,-1 16,0 50,0 64,1l0 -12 -13 0c-36,0 -36,-4 -36,-18l0 -93 33 0c36,0 40,12 40,44l10 0 0 -100 -10 0c0,31 -4,44 -40,44l-33 0 0 -96c0,-13 1,-15 19,-15l45 0c57,0 67,21 73,73l10 0z"/>
   <path id="14" class="fil22" d="M3804 6911c0,-33 -31,-62 -73,-66 37,-8 63,-32 63,-60 0,-33 -35,-64 -84,-64l-139 0 0 11 9 0c29,0 30,5 30,18l0 201c0,13 -1,17 -30,17l-9 0 0 12 149 0c50,0 84,-34 84,-69l0 0zm-47 -126c0,24 -18,56 -61,56l-55 0 0 -93c0,-13 1,-16 19,-16l47 0c37,0 50,33 50,53l0 0zm9 125c0,27 -19,58 -59,58l-47 0c-18,0 -19,-2 -19,-15l0 -103 72 0c37,0 53,35 53,60l0 0z"/>
   <path id="15" class="fil22" d="M4016 6910c0,-38 -26,-70 -57,-77l-49 -12c-24,-6 -38,-26 -38,-48 0,-27 20,-50 50,-50 63,0 72,62 74,79 0,3 0,5 4,5 5,0 5,-2 5,-9l0 -77c0,-6 0,-9 -4,-9 -3,0 -3,1 -6,5l-13 22c-11,-11 -27,-27 -61,-27 -42,0 -74,34 -74,74 0,32 20,59 50,70 4,1 24,6 50,12 10,3 22,5 32,20 8,9 12,22 12,34 0,27 -19,55 -51,55 -11,0 -40,-2 -60,-21 -22,-20 -23,-45 -23,-58 -1,-4 -4,-4 -5,-4 -5,0 -5,3 -5,9l0 76c0,7 0,10 4,10 3,0 3,-1 6,-5 0,0 1,-2 14,-22 12,13 36,27 70,27 44,0 75,-38 75,-79z"/>
   <path class="fil22" d="M1354 8447l0 -12 -45 1 -44 -1 0 12c39,0 39,17 39,28l0 162 -134 -197c-4,-5 -4,-5 -11,-5l-65 0 0 12 11 0c6,0 14,0 19,0 9,1 9,2 9,9l0 198c0,11 0,29 -39,29l0 11 45 -1 44 1 0 -11c-39,0 -39,-18 -39,-29l0 -197c2,2 2,2 4,4l155 228c3,5 4,5 6,5 6,0 6,-2 6,-10l0 -209c0,-11 0,-28 39,-28z"/>
   <path id="1" class="fil22" d="M1570 8694l0 -11c-27,0 -30,-3 -30,-22l0 -135 -56 5 0 11c27,0 30,3 30,22l0 67c0,33 -18,59 -46,59 -32,0 -33,-18 -33,-38l0 -126 -56 5 0 11c29,0 29,1 29,35l0 57c0,30 0,64 58,64 22,0 38,-10 49,-34l0 34 55 -4z"/>
   <path id="2" class="fil22" d="M1887 8694l0 -11c-20,0 -29,0 -30,-12l0 -72c0,-33 0,-45 -12,-59 -5,-6 -17,-14 -39,-14 -32,0 -49,23 -56,38 -5,-33 -33,-38 -50,-38 -28,0 -46,17 -56,40l0 -40 -54 5 0 11c27,0 30,3 30,22l0 101c0,18 -4,18 -30,18l0 11 43 -1 43 1 0 -11c-26,0 -30,0 -30,-18l0 -70c0,-39 27,-60 51,-60 24,0 28,20 28,42l0 88c0,18 -4,18 -29,18l0 11 43 -1 42 1 0 -11c-25,0 -29,0 -29,-18l0 -70c0,-39 27,-60 51,-60 24,0 28,20 28,42l0 88c0,18 -4,18 -30,18l0 11 43 -1 43 1z"/>
   <path id="3" class="fil22" d="M2052 8649c0,-4 -3,-4 -5,-4 -3,0 -4,2 -5,5 -13,39 -47,39 -51,39 -19,0 -34,-11 -43,-25 -11,-19 -11,-44 -11,-57l106 0c8,0 9,0 9,-8 0,-38 -20,-75 -68,-75 -44,0 -79,39 -79,87 0,51 40,87 84,87 46,0 63,-42 63,-49zm-25 -50l-90 0c2,-57 34,-67 47,-67 39,0 43,52 43,67z"/>
   <path id="4" class="fil22" d="M2202 8550c0,-13 -12,-24 -29,-24 -27,0 -41,26 -46,42l0 -42 -53 5 0 11c26,0 30,3 30,22l0 101c0,18 -5,18 -30,18l0 11 43 -1c15,0 33,0 48,1l0 -11 -8 0c-28,0 -28,-5 -28,-18l0 -59c0,-37 16,-71 44,-71 3,0 4,0 5,0 -2,0 -9,5 -9,15 0,11 8,16 16,16 7,0 17,-4 17,-16l0 0z"/>
   <path id="5" class="fil22" d="M2306 8694l0 -11c-25,0 -27,-2 -27,-17l0 -140 -53 5 0 11c25,0 28,3 28,21l0 102c0,18 -4,18 -29,18l0 11 42 -1c13,0 26,1 39,1zm-21 -229c0,-10 -9,-20 -20,-20 -13,0 -20,10 -20,20 0,10 8,20 20,20 13,0 20,-11 20,-20z"/>
   <path id="6" class="fil22" d="M2476 8649c0,-4 -4,-4 -5,-4 -4,0 -5,2 -5,4 -11,35 -36,40 -50,40 -20,0 -54,-16 -54,-78 0,-61 31,-77 52,-77 3,0 27,0 40,14 -15,1 -18,12 -18,17 0,10 7,18 18,18 10,0 17,-7 17,-18 0,-26 -29,-41 -58,-41 -47,0 -82,41 -82,88 0,49 37,86 81,86 51,0 64,-45 64,-49z"/>
   <path id="7" class="fil22" d="M2670 8660l0 -21 -9 0 0 21c0,23 -10,25 -14,25 -13,0 -14,-17 -14,-19l0 -76c0,-16 0,-31 -14,-45 -15,-15 -34,-21 -52,-21 -31,0 -57,18 -57,43 0,11 7,18 17,18 11,0 18,-8 18,-18 0,-4 -2,-17 -20,-17 11,-13 29,-18 41,-18 19,0 41,15 41,49l0 14c-20,1 -46,2 -70,14 -29,13 -38,32 -38,49 0,31 37,40 61,40 25,0 42,-15 49,-33 2,16 12,32 30,32 8,0 31,-6 31,-37l0 0zm-63 -19c0,36 -28,49 -45,49 -18,0 -34,-13 -34,-32 0,-21 16,-53 79,-55l0 38z"/>
   <path id="8" class="fil22" d="M2774 8694l0 -11c-26,0 -30,0 -30,-18l0 -234 -55 4 0 12c27,0 30,2 30,21l0 197c0,18 -4,18 -30,18l0 11 42 -1 43 1z"/>
   <path id="9" class="fil22" d="M3141 8521l-11 -85 -209 0 0 12 9 0c30,0 30,4 30,18l0 199c0,13 0,18 -30,18l-9 0 0 11c14,-1 43,-1 58,-1 16,0 50,0 64,1l0 -11 -13 0c-36,0 -36,-5 -36,-19l0 -93 33 0c36,0 40,12 40,44l10 0 0 -100 -10 0c0,31 -4,44 -40,44l-33 0 0 -96c0,-13 1,-15 19,-15l46 0c57,0 66,21 72,73l10 0z"/>
   <path id="10" class="fil22" d="M3435 8661c0,-2 0,-7 -5,-7 -4,0 -4,4 -4,6 -3,27 -16,34 -25,34 -19,0 -22,-19 -27,-54l-5 -31c-7,-24 -26,-37 -47,-44 37,-9 67,-32 67,-62 0,-36 -44,-68 -99,-68l-120 0 0 12 9 0c30,0 30,4 30,17l0 201c0,13 0,18 -30,18l-9 0 0 11c14,-1 41,-1 56,-1 15,0 42,0 55,1l0 -11 -9 0c-29,0 -30,-5 -30,-18l0 -96 44 0c6,0 22,0 35,12 15,14 15,26 15,51 0,25 0,40 15,55 16,13 37,16 48,16 30,0 36,-32 36,-42l0 0zm-85 -158c0,26 -10,57 -66,57l-42 0 0 -98c0,-9 0,-14 8,-15 4,0 15,0 23,0 34,0 77,1 77,56z"/>
   <path id="11" class="fil22" d="M3668 8521l-10 -85 -209 0 0 12 9 0c30,0 30,4 30,18l0 199c0,13 0,18 -30,18l-9 0 0 11c13,-1 43,-1 58,-1 15,0 50,0 64,1l0 -11 -13 0c-36,0 -36,-5 -36,-19l0 -93 33 0c36,0 40,12 40,44l10 0 0 -100 -10 0c0,31 -4,44 -40,44l-33 0 0 -96c0,-13 1,-15 19,-15l45 0c57,0 67,21 73,73l9 0z"/>
   <path id="12" class="fil22" d="M3790 8646c0,-20 -11,-32 -16,-36 -12,-13 -27,-16 -43,-19 -22,-4 -47,-9 -47,-31 0,-13 10,-29 43,-29 41,0 43,34 44,46 0,4 5,4 5,4 5,0 5,-2 5,-9l0 -39c0,-6 0,-9 -5,-9 -2,0 -2,0 -7,5 -1,1 -5,5 -7,6 -14,-11 -30,-11 -35,-11 -47,0 -61,26 -61,47 0,13 6,24 16,32 12,10 23,12 50,18 9,1 40,7 40,35 0,19 -14,34 -43,34 -32,0 -46,-22 -53,-54 -1,-5 -2,-6 -5,-6 -5,0 -5,2 -5,9l0 50c0,7 0,9 4,9 2,0 2,0 9,-7 1,-1 1,-2 8,-9 17,16 34,16 42,16 44,0 61,-25 61,-52l0 0z"/>
   <path class="fil22" d="M1063 10310l-10 0c-9,59 -18,87 -83,87l-51 0c-18,0 -19,-3 -19,-16l0 -101 35 0c36,0 41,12 41,44l9 0 0 -100 -9 0c0,32 -5,44 -41,44l-35 0 0 -91c0,-13 1,-15 19,-15l49 0c58,0 68,21 75,73l9 0 -11 -85 -214 0 0 12 10 0c29,0 30,4 30,18l0 199c0,13 -1,18 -30,18l-10 0 0 11 220 0 16 -98z"/>
   <path id="1" class="fil22" d="M1270 10408l0 -11c-21,0 -28,-1 -36,-12l-51 -66c11,-14 26,-33 35,-43 11,-14 27,-19 45,-20l0 -11c-10,0 -21,1 -31,1 -12,0 -32,-1 -37,-1l0 11c8,1 11,6 11,12 0,6 -3,11 -5,13l-24 30 -30 -38c-3,-4 -3,-5 -3,-7 0,-6 6,-9 13,-10l0 -11 -41 1c-8,0 -26,-1 -36,-1l0 11c27,0 27,1 45,23l38 50c-18,22 -18,23 -36,45 -18,22 -41,23 -49,23l0 11c10,0 22,-1 32,-1l36 1 0 -11c-8,-2 -11,-7 -11,-12 0,-9 11,-21 34,-48l29 37c3,5 8,11 8,13 0,3 -3,9 -14,10l0 11 41 -1c11,0 25,1 37,1z"/>
   <path id="2" class="fil22" d="M1472 10326c0,-48 -37,-86 -79,-86 -30,0 -46,17 -53,25l0 -25 -55 5 0 11c27,0 30,3 30,19l0 178c0,17 -5,17 -30,17l0 12 43 -1 42 1 0 -12c-25,0 -29,0 -29,-17l0 -64 0 -3c2,6 18,26 47,26 45,0 84,-37 84,-86l0 0zm-31 0c0,46 -27,78 -55,78 -15,0 -30,-7 -40,-23 -5,-8 -5,-8 -5,-16l0 -85c11,-19 29,-30 49,-30 28,0 51,33 51,76l0 0z"/>
   <path id="3" class="fil22" d="M1654 10363c0,-4 -3,-4 -5,-4 -3,0 -4,2 -5,5 -13,39 -47,39 -51,39 -19,0 -34,-11 -43,-25 -12,-19 -12,-44 -12,-57l106 0c9,0 10,0 10,-8 0,-38 -21,-75 -68,-75 -44,0 -79,39 -79,87 0,51 40,87 84,87 46,0 63,-42 63,-49zm-25 -50l-90 0c2,-57 34,-67 47,-67 39,0 43,52 43,67z"/>
   <path id="4" class="fil22" d="M1803 10264c0,-13 -11,-24 -28,-24 -28,0 -41,26 -47,42l0 -42 -52 5 0 11c26,0 29,3 29,22l0 101c0,18 -4,18 -29,18l0 11 43 -1c15,0 33,0 48,1l0 -11 -8 0c-28,0 -29,-5 -29,-18l0 -59c0,-37 16,-71 45,-71 3,0 4,0 4,0 -1,0 -8,5 -8,15 0,11 8,16 16,16 7,0 16,-4 16,-16l0 0z"/>
   <path id="5" class="fil22" d="M1908 10408l0 -11c-25,0 -27,-2 -27,-17l0 -140 -53 5 0 11c25,0 28,3 28,21l0 102c0,18 -4,18 -29,18l0 11 41 -1c14,0 27,1 40,1zm-21 -229c0,-10 -9,-20 -20,-20 -13,0 -21,10 -21,20 0,10 9,20 20,20 13,0 21,-11 21,-20z"/>
   <path id="6" class="fil22" d="M2229 10408l0 -11c-20,0 -30,0 -30,-12l0 -72c0,-33 0,-45 -12,-59 -5,-6 -18,-14 -40,-14 -32,0 -48,23 -55,38 -5,-33 -33,-38 -50,-38 -28,0 -46,17 -57,40l0 -40 -53 5 0 11c26,0 29,3 29,22l0 101c0,18 -4,18 -29,18l0 11 43 -1 42 1 0 -11c-25,0 -29,0 -29,-18l0 -69c0,-40 27,-61 51,-61 24,0 28,20 28,42l0 88c0,18 -4,18 -30,18l0 11 43 -1 43 1 0 -11c-26,0 -30,0 -30,-18l0 -69c0,-40 27,-61 52,-61 24,0 28,20 28,42l0 88c0,18 -4,18 -30,18l0 11 43 -1 43 1z"/>
   <path id="7" class="fil22" d="M2394 10363c0,-4 -3,-4 -5,-4 -3,0 -4,2 -5,5 -13,39 -48,39 -51,39 -19,0 -35,-11 -43,-25 -12,-19 -12,-44 -12,-57l106 0c9,0 10,0 10,-8 0,-38 -21,-75 -68,-75 -44,0 -79,39 -79,87 0,51 40,87 83,87 47,0 64,-42 64,-49zm-25 -50l-90 0c2,-57 34,-67 47,-67 39,0 43,52 43,67z"/>
   <path id="8" class="fil22" d="M2608 10408l0 -11c-20,0 -29,0 -29,-12l0 -72c0,-33 0,-45 -12,-59 -6,-6 -18,-14 -40,-14 -28,0 -46,17 -56,40l0 -40 -54 5 0 11c27,0 30,3 30,22l0 101c0,18 -4,18 -30,18l0 11 43 -1 43 1 0 -11c-26,0 -30,0 -30,-18l0 -69c0,-40 27,-61 51,-61 24,0 28,20 28,42l0 88c0,18 -4,18 -29,18l0 11 43 -1 42 1z"/>
   <path id="9" class="fil22" d="M2732 10361l0 -21 -10 0 0 20c0,29 -11,43 -25,43 -26,0 -26,-35 -26,-41l0 -106 55 0 0 -11 -55 0 0 -70 -9 0c-1,31 -12,71 -49,73l0 8 32 0 0 105c0,47 35,51 49,51 27,0 38,-26 38,-51l0 0z"/>
   <path id="10" class="fil22" d="M2937 10374l0 -21 -10 0 0 21c0,23 -9,25 -13,25 -13,0 -14,-17 -14,-19l0 -76c0,-16 0,-31 -14,-45 -15,-15 -34,-21 -52,-21 -31,0 -57,18 -57,43 0,11 7,18 17,18 11,0 17,-8 17,-18 0,-4 -1,-17 -19,-17 10,-13 29,-18 41,-18 19,0 40,15 40,49l0 14c-19,1 -46,2 -69,14 -29,13 -38,33 -38,49 0,31 36,40 60,40 25,0 43,-15 50,-33 2,16 12,32 30,32 8,0 31,-6 31,-37l0 0zm-64 -19c0,36 -27,49 -44,49 -19,0 -34,-13 -34,-32 0,-21 16,-53 78,-55l0 38z"/>
   <path id="11" class="fil22" d="M3040 10408l0 -11c-25,0 -29,0 -29,-18l0 -234 -55 4 0 12c27,0 30,2 30,21l0 197c0,18 -5,18 -30,18l0 11 42 -1 42 1z"/>
   <path id="12" class="fil22" d="M3407 10235l-10 -85 -209 0 0 12 9 0c29,0 30,4 30,18l0 199c0,13 -1,18 -30,18l-9 0 0 11c13,-1 43,-1 58,-1 15,0 50,0 64,1l0 -11 -13 0c-36,0 -36,-5 -36,-19l0 -93 33 0c36,0 40,12 40,44l10 0 0 -100 -10 0c0,32 -4,44 -40,44l-33 0 0 -96c0,-13 1,-15 19,-15l45 0c57,0 67,21 73,73l9 0z"/>
   <path id="13" class="fil22" d="M3702 10375c0,-2 0,-7 -5,-7 -4,0 -4,4 -5,6 -2,27 -15,34 -25,34 -18,0 -21,-19 -27,-54l-5 -31c-6,-24 -25,-37 -46,-44 37,-9 67,-32 67,-62 0,-36 -44,-68 -100,-68l-119 0 0 12 9 0c29,0 30,4 30,17l0 201c0,13 -1,18 -30,18l-9 0 0 11c14,-1 41,-1 55,-1 15,0 42,0 56,1l0 -11 -9 0c-29,0 -30,-5 -30,-18l0 -96 44 0c6,0 22,0 35,12 14,14 14,26 14,51 0,25 0,40 16,55 15,13 36,16 48,16 29,0 36,-31 36,-42l0 0zm-86 -158c0,26 -9,57 -65,57l-42 0 0 -98c0,-9 0,-14 8,-15 4,0 15,0 23,0 34,0 76,1 76,56z"/>
   <path id="14" class="fil22" d="M3935 10235l-10 -85 -209 0 0 12 9 0c29,0 30,4 30,18l0 199c0,13 -1,18 -30,18l-9 0 0 11c13,-1 43,-1 58,-1 15,0 50,0 64,1l0 -11 -13 0c-36,0 -36,-5 -36,-19l0 -93 33 0c36,0 40,12 40,44l9 0 0 -100 -9 0c0,32 -4,44 -40,44l-33 0 0 -96c0,-13 1,-15 19,-15l45 0c57,0 67,21 73,73l9 0z"/>
   <path id="15" class="fil22" d="M4057 10360c0,-20 -12,-32 -16,-36 -13,-13 -28,-16 -43,-19 -22,-4 -47,-9 -47,-31 0,-13 10,-29 42,-29 42,0 44,34 45,46 0,4 4,4 4,4 5,0 5,-2 5,-9l0 -39c0,-6 0,-9 -4,-9 -2,0 -3,0 -7,5 -2,1 -5,5 -7,6 -14,-11 -30,-11 -36,-11 -46,0 -60,26 -60,47 0,13 6,24 16,32 12,10 23,12 50,18 8,1 40,7 40,35 0,19 -14,34 -43,34 -32,0 -46,-22 -53,-54 -1,-5 -2,-6 -6,-6 -4,0 -4,2 -4,9l0 50c0,7 0,9 4,9 2,0 2,0 9,-7 1,-1 1,-2 8,-9 17,16 34,16 42,16 43,0 61,-25 61,-52l0 0z"/>
   <path class="fil22" d="M1106 12122l0 -11 -10 0c-30,0 -31,-5 -31,-18l0 -201c0,-13 1,-17 31,-17l10 0 0 -12c-13,1 -44,1 -58,1 -15,0 -45,0 -58,-1l0 12 10 0c30,0 31,4 31,17l0 201c0,13 -1,18 -31,18l-10 0 0 11c13,-1 43,-1 58,-1 14,0 45,0 58,1z"/>
   <path id="1" class="fil22" d="M1320 12122l0 -11c-20,0 -30,0 -30,-12l0 -72c0,-33 0,-45 -12,-59 -5,-6 -18,-14 -40,-14 -27,0 -45,17 -56,40l0 -40 -53 5 0 11c26,0 29,3 29,22l0 101c0,18 -4,18 -29,18l0 11 43 -1 42 1 0 -11c-25,0 -30,0 -30,-18l0 -69c0,-40 27,-61 52,-61 24,0 28,20 28,42l0 88c0,18 -4,18 -30,18l0 11 43 -1 43 1z"/>
   <path id="2" class="fil22" d="M1443 12075l0 -21 -9 0 0 20c0,29 -12,43 -26,43 -25,0 -25,-35 -25,-41l0 -106 54 0 0 -11 -54 0 0 -70 -10 0c0,31 -11,71 -49,73l0 8 33 0 0 105c0,47 35,52 49,52 27,0 37,-27 37,-52l0 0z"/>
   <path id="3" class="fil22" d="M1623 12077c0,-4 -3,-4 -5,-4 -4,0 -4,2 -5,5 -14,39 -48,39 -52,39 -19,0 -34,-11 -42,-25 -12,-19 -12,-44 -12,-57l106 0c8,0 10,0 10,-8 0,-38 -21,-75 -68,-75 -44,0 -79,39 -79,87 0,51 39,88 83,88 47,0 64,-43 64,-50zm-25 -50l-91 0c3,-57 35,-67 48,-67 39,0 43,52 43,67z"/>
   <path id="4" class="fil22" d="M1772 11978c0,-13 -12,-24 -28,-24 -28,0 -42,26 -47,42l0 -42 -53 5 0 11c27,0 30,3 30,22l0 101c0,18 -4,18 -30,18l0 11 44 -1c15,0 33,0 48,1l0 -11 -8 0c-28,0 -29,-5 -29,-18l0 -59c0,-37 16,-71 45,-71 3,0 3,0 4,0 -1,1 -9,5 -9,15 0,11 8,16 17,16 6,0 16,-4 16,-16l0 0z"/>
   <path id="5" class="fil22" d="M1918 11881c0,-14 -14,-27 -34,-27 -27,0 -59,21 -59,61l0 44 -30 0 0 11 30 0 0 123c0,18 -4,18 -29,18l0 11 43 -1c15,0 33,0 48,1l0 -11 -8 0c-28,0 -29,-5 -29,-18l0 -123 44 0 0 -11 -45 0 0 -45c0,-33 18,-51 35,-51 1,0 7,0 13,2 -5,2 -12,7 -12,16 0,9 6,17 17,17 11,0 16,-8 16,-17z"/>
   <path id="6" class="fil22" d="M2082 12089l0 -22 -9 0 0 22c0,22 -10,24 -14,24 -12,0 -14,-17 -14,-19l0 -76c0,-16 0,-31 -13,-45 -15,-15 -34,-21 -53,-21 -31,0 -57,18 -57,43 0,11 8,18 18,18 10,0 17,-8 17,-18 0,-4 -2,-17 -19,-17 10,-13 29,-18 41,-18 18,0 40,15 40,49l0 14c-19,1 -46,2 -70,14 -28,13 -38,33 -38,49 0,31 37,41 61,41 25,0 42,-16 50,-34 1,16 11,32 29,32 8,0 31,-6 31,-36l0 0zm-63 -20c0,36 -27,49 -44,49 -19,0 -35,-13 -35,-32 0,-21 16,-53 79,-55l0 38z"/>
   <path id="7" class="fil22" d="M2247 12077c0,-4 -4,-4 -5,-4 -4,0 -5,2 -5,4 -11,35 -36,40 -50,40 -20,0 -54,-16 -54,-78 0,-61 32,-77 52,-77 3,0 27,0 40,14 -15,1 -18,12 -18,17 0,10 7,18 18,18 10,0 17,-7 17,-18 0,-26 -28,-41 -58,-41 -47,0 -82,41 -82,88 0,49 37,87 82,87 50,0 63,-46 63,-50z"/>
   <path id="8" class="fil22" d="M2415 12077c0,-4 -3,-4 -5,-4 -3,0 -4,2 -5,5 -13,39 -47,39 -51,39 -19,0 -34,-11 -43,-25 -11,-19 -11,-44 -11,-57l106 0c8,0 9,0 9,-8 0,-38 -20,-75 -68,-75 -44,0 -79,39 -79,87 0,51 40,88 84,88 46,0 63,-43 63,-50zm-25 -50l-90 0c2,-57 34,-67 47,-67 39,0 43,52 43,67z"/>
   <path id="9" class="fil22" d="M2751 12040c0,-48 -37,-86 -80,-86 -29,0 -45,17 -53,25l0 -25 -54 5 0 11c27,0 29,3 29,19l0 178c0,17 -4,17 -29,17l0 12 42 -1 43 1 0 -12c-25,0 -30,0 -30,-17l0 -64 0 -3c2,6 18,27 47,27 45,0 85,-38 85,-87l0 0zm-32 0c0,46 -26,78 -54,78 -16,0 -30,-7 -40,-23 -6,-8 -6,-8 -6,-16l0 -85c11,-19 30,-30 49,-30 28,0 51,33 51,76l0 0z"/>
   <path id="10" class="fil22" d="M2903 11978c0,-13 -12,-24 -29,-24 -27,0 -41,26 -46,42l0 -42 -53 5 0 11c26,0 29,3 29,22l0 101c0,18 -4,18 -29,18l0 11 43 -1c15,0 33,0 48,1l0 -11 -8 0c-28,0 -28,-5 -28,-18l0 -59c0,-37 16,-71 44,-71 3,0 4,0 5,0 -2,1 -9,5 -9,15 0,11 8,16 16,16 7,0 17,-4 17,-16l0 0z"/>
   <path id="11" class="fil22" d="M3092 12041c0,-49 -38,-89 -84,-89 -47,0 -84,42 -84,89 0,49 39,86 84,86 46,0 84,-38 84,-86zm-31 -3c0,14 0,34 -9,51 -8,17 -25,28 -44,28 -16,0 -33,-8 -43,-25 -10,-17 -10,-40 -10,-54 0,-15 0,-35 9,-52 11,-18 29,-26 44,-26 17,0 33,9 43,25 10,17 10,39 10,53z"/>
   <path id="12" class="fil22" d="M3301 12040c0,-48 -37,-86 -80,-86 -30,0 -46,18 -52,25l0 -120 -55 4 0 12c26,0 29,2 29,21l0 226 10 0 14 -23c5,9 21,28 49,28 46,0 85,-38 85,-87zm-31 0c0,14 -1,37 -12,54 -8,12 -23,24 -43,24 -17,0 -31,-9 -40,-23 -5,-8 -5,-9 -5,-16l0 -78c0,-7 0,-8 4,-14 15,-21 36,-24 45,-24 17,0 30,10 40,24 9,16 11,37 11,53l0 0z"/>
   <path id="13" class="fil22" d="M3411 12122l0 -11c-25,0 -29,0 -29,-18l0 -234 -55 4 0 12c27,0 30,2 30,21l0 197c0,18 -5,18 -30,18l0 11 42 -1 42 1z"/>
   <path id="14" class="fil22" d="M3578 12077c0,-4 -3,-4 -5,-4 -4,0 -4,2 -5,5 -13,39 -48,39 -51,39 -19,0 -35,-11 -43,-25 -12,-19 -12,-44 -12,-57l106 0c9,0 10,0 10,-8 0,-38 -21,-75 -68,-75 -44,0 -79,39 -79,87 0,51 40,88 83,88 47,0 64,-43 64,-50zm-25 -50l-90 0c2,-57 34,-67 47,-67 39,0 43,52 43,67z"/>
   <path id="15" class="fil22" d="M3898 12122l0 -11c-20,0 -29,0 -30,-12l0 -72c0,-33 0,-45 -12,-59 -5,-6 -18,-14 -40,-14 -31,0 -48,23 -55,38 -5,-33 -33,-38 -50,-38 -28,0 -46,17 -56,40l0 -40 -54 5 0 11c27,0 30,3 30,22l0 101c0,18 -5,18 -30,18l0 11 43 -1 42 1 0 -11c-25,0 -29,0 -29,-18l0 -69c0,-40 27,-61 51,-61 24,0 28,20 28,42l0 88c0,18 -4,18 -29,18l0 11 43 -1 42 1 0 -11c-25,0 -30,0 -30,-18l0 -69c0,-40 27,-61 52,-61 24,0 28,20 28,42l0 88c0,18 -4,18 -30,18l0 11 43 -1 43 1z"/>
   <path class="fil22" d="M270 13589l0 -12c-12,1 -27,1 -37,1l-43 -1 0 12c20,0 28,10 28,19 0,3 -1,5 -2,7l-70 183 -72 -192c-3,-5 -3,-6 -3,-6 0,-11 22,-11 32,-11l0 -12c-14,1 -40,1 -55,1l-48 -1 0 12c25,0 32,0 37,14l88 233c3,8 5,9 10,9 6,0 7,-2 9,-7l85 -224c5,-14 15,-25 41,-25z"/>
   <path id="1" class="fil22" d="M372 13836l0 -11c-25,0 -27,-2 -27,-17l0 -140 -53 5 0 11c25,0 28,3 28,21l0 102c0,18 -4,18 -30,18l0 11 42 -1c13,0 27,1 40,1zm-21 -229c0,-10 -9,-20 -20,-20 -13,0 -21,10 -21,20 0,10 9,20 20,20 13,0 21,-11 21,-20z"/>
   <path id="2" class="fil22" d="M522 13692c0,-13 -12,-24 -28,-24 -28,0 -42,26 -47,42l0 -42 -53 5 0 11c27,0 30,3 30,22l0 101c0,18 -4,18 -30,18l0 11 43 -1c16,0 33,0 49,1l0 -11 -8 0c-28,0 -29,-5 -29,-18l0 -59c0,-37 16,-71 45,-71 2,0 3,0 4,0 -1,1 -9,5 -9,15 0,11 8,16 16,16 7,0 17,-4 17,-16l0 0z"/>
   <path id="3" class="fil22" d="M659 13789l0 -21 -10 0 0 20c0,29 -11,43 -25,43 -26,0 -26,-35 -26,-41l0 -106 54 0 0 -11 -54 0 0 -70 -9 0c-1,31 -12,71 -49,73l0 8 32 0 0 105c0,47 35,52 49,52 27,0 38,-27 38,-52l0 0z"/>
   <path id="4" class="fil22" d="M884 13836l0 -11c-27,0 -30,-3 -30,-22l0 -135 -56 5 0 11c27,0 30,3 30,22l0 67c0,33 -19,59 -46,59 -32,0 -34,-18 -34,-37l0 -127 -56 5 0 11c30,0 30,2 30,35l0 57c0,30 0,65 58,65 21,0 38,-11 49,-35l0 35 55 -5z"/>
   <path id="5" class="fil22" d="M1075 13803l0 -22 -9 0 0 22c0,22 -10,24 -14,24 -13,0 -14,-17 -14,-19l0 -76c0,-16 0,-31 -14,-45 -15,-15 -34,-21 -52,-21 -31,0 -57,18 -57,43 0,11 7,18 17,18 11,0 18,-8 18,-18 0,-4 -2,-17 -20,-17 11,-13 29,-18 41,-18 19,0 41,15 41,49l0 14c-20,1 -46,2 -70,14 -29,13 -38,33 -38,49 0,31 37,41 60,41 26,0 43,-16 50,-34 2,16 12,32 30,32 8,0 31,-6 31,-36l0 0zm-63 -20c0,36 -28,49 -45,49 -19,0 -34,-13 -34,-32 0,-21 16,-53 79,-55l0 38z"/>
   <path id="6" class="fil22" d="M1178 13836l0 -11c-25,0 -29,0 -29,-18l0 -234 -55 4 0 12c27,0 30,2 30,21l0 197c0,18 -5,18 -30,18l0 11 42 -1 42 1z"/>
   <path id="7" class="fil22" d="M1551 13648c0,-38 -38,-71 -90,-71l-134 0 0 12 9 0c29,0 30,4 30,17l0 201c0,13 -1,18 -30,18l-9 0 0 11c13,-1 41,-1 56,-1 14,0 43,0 56,1l0 -11 -9 0c-29,0 -30,-5 -30,-18l0 -91 64 0c46,0 87,-30 87,-68zm-39 0c0,17 0,58 -61,58l-52 0 0 -102c0,-13 1,-15 18,-15l34 0c61,0 61,40 61,59z"/>
   <path id="8" class="fil22" d="M1741 13755c0,-49 -38,-89 -84,-89 -48,0 -85,42 -85,89 0,49 40,86 84,86 46,0 85,-38 85,-86zm-32 -3c0,14 0,34 -8,51 -8,17 -25,28 -44,28 -17,0 -33,-8 -43,-25 -10,-17 -10,-40 -10,-54 0,-15 0,-35 9,-52 10,-18 28,-26 43,-26 17,0 34,9 43,25 10,17 10,39 10,53z"/>
   <path id="9" class="fil22" d="M1846 13836l0 -11c-25,0 -27,-2 -27,-17l0 -140 -53 5 0 11c25,0 28,3 28,21l0 102c0,18 -4,18 -30,18l0 11 42 -1c13,0 27,1 40,1zm-21 -229c0,-10 -9,-20 -20,-20 -13,0 -21,10 -21,20 0,10 9,20 20,20 13,0 21,-11 21,-20z"/>
   <path id="10" class="fil22" d="M2061 13836l0 -11c-20,0 -29,0 -30,-12l0 -72c0,-33 0,-45 -12,-59 -5,-6 -17,-14 -40,-14 -27,0 -45,17 -56,40l0 -40 -53 5 0 11c26,0 29,3 29,22l0 101c0,18 -4,18 -29,18l0 11 43 -1 42 1 0 -11c-25,0 -29,0 -29,-18l0 -69c0,-40 26,-61 51,-61 24,0 28,20 28,42l0 88c0,18 -4,18 -30,18l0 11 43 -1 43 1z"/>
   <path id="11" class="fil22" d="M2184 13789l0 -21 -9 0 0 20c0,29 -12,43 -26,43 -25,0 -25,-35 -25,-41l0 -106 54 0 0 -11 -54 0 0 -70 -10 0c0,31 -11,71 -49,73l0 8 33 0 0 105c0,47 35,52 49,52 27,0 37,-27 37,-52l0 0z"/>
   <path id="12" class="fil22" d="M2593 13665l-7 -86 -233 0 -7 86 10 0c5,-62 11,-74 68,-74 7,0 17,0 21,1 8,1 8,5 8,14l0 200c0,13 0,19 -40,19l-16 0 0 11c16,-1 55,-1 72,-1 18,0 57,0 73,1l0 -11 -16 0c-40,0 -40,-6 -40,-19l0 -200c0,-8 0,-13 7,-14 4,-1 15,-1 22,-1 57,0 63,12 68,74l10 0z"/>
   <path id="13" class="fil22" d="M2714 13692c0,-13 -12,-24 -28,-24 -28,0 -42,26 -47,42l0 -42 -53 5 0 11c27,0 30,3 30,22l0 101c0,18 -5,18 -30,18l0 11 43 -1c15,0 33,0 49,1l0 -11 -8 0c-29,0 -29,-5 -29,-18l0 -59c0,-37 16,-71 45,-71 2,0 3,0 4,0 -1,1 -9,5 -9,15 0,11 8,16 16,16 7,0 17,-4 17,-16l0 0z"/>
   <path id="14" class="fil22" d="M2908 13803l0 -22 -10 0 0 22c0,22 -9,24 -13,24 -13,0 -14,-17 -14,-19l0 -76c0,-16 0,-31 -14,-45 -15,-15 -34,-21 -52,-21 -31,0 -58,18 -58,43 0,11 8,18 18,18 11,0 17,-8 17,-18 0,-4 -1,-17 -19,-17 10,-13 29,-18 41,-18 19,0 40,15 40,49l0 14c-19,1 -46,2 -70,14 -28,13 -38,33 -38,49 0,31 37,41 61,41 25,0 43,-16 50,-34 2,16 12,32 30,32 8,0 31,-6 31,-36l0 0zm-64 -20c0,36 -27,49 -44,49 -19,0 -34,-13 -34,-32 0,-21 16,-53 78,-55l0 38z"/>
   <path id="15" class="fil22" d="M3118 13836l0 -11c-20,0 -30,0 -30,-12l0 -72c0,-33 0,-45 -12,-59 -5,-6 -18,-14 -40,-14 -27,0 -45,17 -56,40l0 -40 -54 5 0 11c27,0 30,3 30,22l0 101c0,18 -4,18 -30,18l0 11 43 -1 43 1 0 -11c-26,0 -30,0 -30,-18l0 -69c0,-40 27,-61 52,-61 24,0 28,20 28,42l0 88c0,18 -4,18 -30,18l0 11 43 -1 43 1z"/>
   <path id="16" class="fil22" d="M3262 13788c0,-20 -11,-32 -16,-36 -12,-13 -27,-16 -43,-19 -21,-4 -47,-9 -47,-31 0,-13 10,-29 43,-29 42,0 44,35 44,46 1,4 5,4 5,4 5,0 5,-2 5,-9l0 -39c0,-6 0,-9 -4,-9 -2,0 -3,0 -8,5 -1,1 -5,5 -6,6 -15,-11 -30,-11 -36,-11 -46,0 -61,26 -61,47 0,13 6,24 16,32 13,10 23,12 51,18 8,1 39,7 39,35 0,19 -13,34 -43,34 -32,0 -45,-21 -53,-54 -1,-5 -1,-6 -5,-6 -5,0 -5,2 -5,9l0 50c0,7 0,10 4,10 2,0 3,-1 10,-8 1,-1 1,-2 7,-9 17,16 34,17 42,17 44,0 61,-26 61,-53l0 0z"/>
   <path id="17" class="fil22" d="M3411 13595c0,-14 -14,-27 -34,-27 -27,0 -59,21 -59,61l0 44 -30 0 0 11 30 0 0 123c0,18 -4,18 -30,18l0 11 44 -1c15,0 33,0 48,1l0 -11 -8 0c-28,0 -29,-5 -29,-18l0 -123 43 0 0 -11 -44 0 0 -44c0,-34 18,-52 35,-52 1,0 7,0 12,2 -4,2 -11,7 -11,16 0,9 6,17 16,17 11,0 17,-8 17,-17z"/>
   <path id="18" class="fil22" d="M3571 13755c0,-49 -38,-89 -84,-89 -48,0 -85,42 -85,89 0,49 40,86 84,86 46,0 85,-38 85,-86zm-32 -3c0,14 0,34 -8,51 -9,17 -25,28 -44,28 -17,0 -33,-8 -44,-25 -9,-17 -9,-40 -9,-54 0,-15 0,-35 9,-52 10,-18 28,-26 43,-26 17,0 33,9 43,25 10,17 10,39 10,53z"/>
   <path id="19" class="fil22" d="M3720 13692c0,-13 -12,-24 -28,-24 -28,0 -42,26 -47,42l0 -42 -53 5 0 11c27,0 30,3 30,22l0 101c0,18 -4,18 -30,18l0 11 44 -1c15,0 33,0 48,1l0 -11 -8 0c-28,0 -29,-5 -29,-18l0 -59c0,-37 16,-71 45,-71 2,0 3,0 4,0 -1,1 -9,5 -9,15 0,11 8,16 17,16 6,0 16,-4 16,-16l0 0z"/>
   <path id="20" class="fil22" d="M4039 13836l0 -11c-19,0 -29,0 -29,-12l0 -72c0,-33 0,-45 -12,-59 -5,-6 -18,-14 -40,-14 -32,0 -48,23 -55,38 -5,-33 -33,-38 -50,-38 -28,0 -46,17 -57,40l0 -40 -53 5 0 11c26,0 29,3 29,22l0 101c0,18 -4,18 -29,18l0 11 43 -1 42 1 0 -11c-25,0 -29,0 -29,-18l0 -69c0,-40 27,-61 51,-61 24,0 28,20 28,42l0 88c0,18 -4,18 -30,18l0 11 43 -1 43 1 0 -11c-26,0 -30,0 -30,-18l0 -69c0,-40 27,-61 52,-61 23,0 28,20 28,42l0 88c0,18 -5,18 -30,18l0 11 43 -1 42 1z"/>
   <path id="21" class="fil22" d="M4231 13803l0 -22 -10 0 0 22c0,22 -9,24 -14,24 -12,0 -14,-17 -14,-19l0 -76c0,-16 0,-31 -13,-45 -15,-15 -34,-21 -52,-21 -32,0 -58,18 -58,43 0,11 8,18 18,18 10,0 17,-8 17,-18 0,-4 -2,-17 -19,-17 10,-13 29,-18 41,-18 19,0 40,15 40,49l0 14c-19,1 -46,2 -70,14 -28,13 -38,33 -38,49 0,31 37,41 61,41 25,0 43,-16 50,-34 1,16 12,32 29,32 8,0 32,-6 32,-36l0 0zm-64 -20c0,36 -27,49 -44,49 -19,0 -34,-13 -34,-32 0,-21 15,-53 78,-55l0 38z"/>
   <path id="22" class="fil22" d="M4363 13789l0 -21 -9 0 0 20c0,29 -12,43 -26,43 -25,0 -25,-35 -25,-41l0 -106 54 0 0 -11 -54 0 0 -70 -10 0c0,31 -11,71 -49,73l0 8 33 0 0 105c0,47 35,52 49,52 27,0 37,-27 37,-52l0 0z"/>
   <path id="23" class="fil22" d="M4479 13836l0 -11c-25,0 -27,-2 -27,-17l0 -140 -53 5 0 11c25,0 28,3 28,21l0 102c0,18 -4,18 -30,18l0 11 42 -1c14,0 27,1 40,1zm-21 -229c0,-10 -9,-20 -20,-20 -13,0 -21,10 -21,20 0,10 9,20 20,20 13,0 21,-11 21,-20z"/>
   <path id="24" class="fil22" d="M4670 13755c0,-49 -38,-89 -84,-89 -48,0 -85,42 -85,89 0,49 40,86 84,86 46,0 85,-38 85,-86zm-32 -3c0,14 0,34 -8,51 -9,17 -25,28 -44,28 -17,0 -33,-8 -44,-25 -9,-17 -9,-40 -9,-54 0,-15 0,-35 9,-52 10,-18 28,-26 43,-26 17,0 33,9 43,25 10,17 10,39 10,53z"/>
   <path id="25" class="fil22" d="M4884 13836l0 -11c-20,0 -29,0 -30,-12l0 -72c0,-33 0,-45 -12,-59 -5,-6 -17,-14 -39,-14 -28,0 -46,17 -57,40l0 -40 -53 5 0 11c26,0 29,3 29,22l0 101c0,18 -4,18 -29,18l0 11 43 -1 42 1 0 -11c-25,0 -29,0 -29,-18l0 -69c0,-40 27,-61 51,-61 24,0 28,20 28,42l0 88c0,18 -4,18 -30,18l0 11 43 -1 43 1z"/>
   <path class="fil22" d="M790 15379l-7 -86 -232 0 -7 86 9 0c5,-62 11,-74 68,-74 7,0 17,0 21,1 8,1 8,5 8,14l0 200c0,13 0,19 -40,19l-15 0 0 11c15,-1 54,-1 72,-1 17,0 56,0 72,1l0 -11 -15 0c-40,0 -40,-6 -40,-19l0 -200c0,-7 0,-13 7,-14 4,-1 14,-1 21,-1 58,0 63,12 69,74l9 0z"/>
   <path id="1" class="fil22" d="M911 15406c0,-13 -12,-24 -28,-24 -28,0 -41,26 -47,42l0 -42 -53 5 0 11c27,0 30,3 30,22l0 102c0,17 -4,17 -30,17l0 11 44 -1c15,0 33,0 48,1l0 -11 -8 0c-28,0 -29,-5 -29,-18l0 -59c0,-37 16,-71 45,-71 3,0 3,0 4,0 -1,1 -9,5 -9,15 0,11 8,16 17,16 7,0 16,-4 16,-16l0 0z"/>
   <path id="2" class="fil22" d="M1105 15517l0 -22 -9 0 0 22c0,22 -10,24 -14,24 -12,0 -14,-17 -14,-19l0 -76c0,-16 0,-31 -14,-45 -14,-15 -34,-21 -52,-21 -31,0 -57,18 -57,43 0,11 7,18 17,18 11,0 18,-8 18,-18 0,-4 -2,-17 -20,-17 11,-13 29,-17 42,-17 18,0 40,14 40,48l0 14c-20,1 -46,2 -70,14 -29,13 -38,33 -38,49 0,31 37,41 61,41 25,0 42,-16 49,-33 2,15 12,31 30,31 8,0 31,-6 31,-36l0 0zm-63 -20c0,36 -28,49 -45,49 -18,0 -34,-13 -34,-32 0,-21 16,-53 79,-55l0 38z"/>
   <path id="3" class="fil22" d="M1315 15550l0 -11c-20,0 -29,0 -30,-12l0 -72c0,-33 0,-45 -11,-58 -6,-7 -18,-15 -40,-15 -28,0 -46,17 -57,40l0 -40 -53 5 0 11c26,0 30,3 30,22l0 102c0,17 -5,17 -30,17l0 11 43 -1 42 1 0 -11c-25,0 -29,0 -29,-17l0 -70c0,-40 27,-61 51,-61 24,0 28,20 28,42l0 89c0,17 -4,17 -29,17l0 11 42 -1 43 1z"/>
   <path id="4" class="fil22" d="M1460 15502c0,-20 -12,-32 -16,-36 -13,-13 -28,-16 -43,-19 -22,-4 -47,-9 -47,-31 0,-13 10,-29 42,-29 42,0 44,35 45,46 0,4 4,4 4,4 5,0 5,-2 5,-9l0 -39c0,-6 0,-9 -4,-9 -2,0 -3,0 -7,5 -2,1 -5,5 -7,6 -14,-11 -30,-11 -36,-11 -46,0 -60,26 -60,47 0,13 6,24 16,32 12,10 23,12 50,18 8,1 40,7 40,35 0,19 -14,34 -43,34 -32,0 -46,-21 -53,-54 -1,-5 -2,-6 -6,-6 -4,0 -4,2 -4,9l0 50c0,7 0,10 4,10 2,0 2,-1 9,-8 1,-1 1,-2 8,-9 17,16 34,17 42,17 43,0 61,-26 61,-53l0 0z"/>
   <path id="5" class="fil22" d="M1608 15309c0,-14 -14,-27 -34,-27 -26,0 -59,21 -59,61l0 44 -30 0 0 11 30 0 0 124c0,17 -4,17 -29,17l0 11 43 -1c15,0 33,0 48,1l0 -11 -8 0c-28,0 -29,-5 -29,-18l0 -123 44 0 0 -11 -45 0 0 -44c0,-34 18,-52 35,-52 1,0 7,0 13,3 -5,1 -12,6 -12,15 0,9 6,17 17,17 11,0 16,-8 16,-17z"/>
   <path id="6" class="fil22" d="M1747 15505c0,-4 -3,-4 -5,-4 -4,0 -4,2 -5,5 -13,39 -48,39 -51,39 -19,0 -35,-11 -43,-25 -12,-19 -12,-44 -12,-57l106 0c9,0 10,0 10,-8 0,-38 -21,-75 -68,-75 -44,0 -79,39 -79,87 0,51 40,88 83,88 47,0 64,-43 64,-50zm-25 -50l-90 0c2,-57 34,-66 47,-66 39,0 43,51 43,66z"/>
   <path id="7" class="fil22" d="M1896 15406c0,-13 -12,-24 -28,-24 -28,0 -41,26 -47,42l0 -42 -53 5 0 11c27,0 30,3 30,22l0 102c0,17 -4,17 -30,17l0 11 44 -1c15,0 33,0 48,1l0 -11 -8 0c-28,0 -29,-5 -29,-18l0 -59c0,-37 16,-71 45,-71 3,0 3,0 4,0 -1,1 -9,5 -9,15 0,11 8,16 17,16 7,0 16,-4 16,-16l0 0z"/>
   <path id="8" class="fil22" d="M2270 15362c0,-38 -37,-71 -89,-71l-134 0 0 12 9 0c29,0 30,4 30,17l0 201c0,13 -1,18 -30,18l-9 0 0 11c13,-1 41,-1 55,-1 15,0 43,0 57,1l0 -11 -9 0c-30,0 -31,-5 -31,-18l0 -91 65 0c45,0 86,-30 86,-68zm-39 0c0,17 0,58 -60,58l-53 0 0 -102c0,-13 1,-15 19,-15l34 0c60,0 60,40 60,59z"/>
   <path id="9" class="fil22" d="M2465 15517l0 -22 -10 0 0 22c0,22 -9,24 -13,24 -13,0 -14,-17 -14,-19l0 -76c0,-16 0,-31 -14,-45 -15,-15 -34,-21 -52,-21 -31,0 -57,18 -57,43 0,11 7,18 17,18 11,0 18,-8 18,-18 0,-4 -2,-17 -20,-17 10,-13 29,-17 41,-17 19,0 40,14 40,48l0 14c-19,1 -46,2 -69,14 -29,13 -38,33 -38,49 0,31 36,41 60,41 25,0 43,-16 50,-33 2,15 12,31 30,31 8,0 31,-6 31,-36l0 0zm-64 -20c0,36 -27,49 -44,49 -19,0 -34,-13 -34,-32 0,-21 16,-53 78,-55l0 38z"/>
   <path id="10" class="fil22" d="M2598 15503l0 -21 -10 0 0 21c0,28 -11,42 -25,42 -26,0 -26,-35 -26,-41l0 -106 54 0 0 -11 -54 0 0 -70 -9 0c-1,31 -12,72 -49,73l0 8 32 0 0 105c0,47 35,52 49,52 27,0 38,-27 38,-52l0 0z"/>
   <path id="11" class="fil22" d="M2823 15550l0 -11c-20,0 -30,0 -30,-12l0 -72c0,-33 0,-45 -12,-58 -5,-7 -18,-15 -40,-15 -32,0 -48,23 -55,37l0 0 0 -132 -55 4 0 12c27,0 30,2 30,21l0 198c0,17 -4,17 -30,17l0 11 43 -1 43 1 0 -11c-26,0 -30,0 -30,-17l0 -70c0,-40 27,-61 52,-61 23,0 28,20 28,42l0 89c0,17 -5,17 -30,17l0 11 43 -1 43 1z"/>
   <path id="12" class="fil22" d="M3229 15550l0 -11 -6 0c-23,0 -28,-3 -33,-16l-82 -237c-2,-5 -2,-8 -8,-8 -7,0 -8,3 -10,8l-78 227c-7,20 -22,25 -43,26l0 11 39 -1 44 1 0 -11c-19,0 -29,-10 -29,-20 0,-1 1,-5 1,-5l17 -50 94 0 20 58c1,1 2,4 2,5 0,12 -22,12 -32,12l0 11c14,-1 40,-1 55,-1l49 1zm-98 -98l-85 0 42 -124 43 124z"/>
   <path id="13" class="fil22" d="M3445 15550l0 -11c-19,0 -29,0 -29,-12l0 -72c0,-33 0,-45 -12,-58 -5,-7 -18,-15 -40,-15 -28,0 -46,17 -56,40l0 -40 -54 5 0 11c27,0 30,3 30,22l0 102c0,17 -4,17 -30,17l0 11 43 -1 43 1 0 -11c-26,0 -30,0 -30,-17l0 -70c0,-40 27,-61 51,-61 24,0 28,20 28,42l0 89c0,17 -4,17 -29,17l0 11 43 -1 42 1z"/>
   <path id="14" class="fil22" d="M3637 15517l0 -22 -10 0 0 22c0,22 -9,24 -13,24 -13,0 -14,-17 -14,-19l0 -76c0,-16 0,-31 -14,-45 -15,-15 -34,-21 -52,-21 -31,0 -58,18 -58,43 0,11 8,18 18,18 11,0 17,-8 17,-18 0,-4 -1,-17 -19,-17 10,-13 29,-17 41,-17 19,0 40,14 40,48l0 14c-19,1 -46,2 -70,14 -28,13 -38,33 -38,49 0,31 37,41 61,41 25,0 43,-16 50,-33 2,15 12,31 30,31 8,0 31,-6 31,-36l0 0zm-64 -20c0,36 -27,49 -44,49 -19,0 -34,-13 -34,-32 0,-21 16,-53 78,-55l0 38z"/>
   <path id="15" class="fil22" d="M3740 15550l0 -11c-25,0 -29,0 -29,-17l0 -235 -55 4 0 12c26,0 29,2 29,21l0 198c0,17 -4,17 -29,17l0 11 42 -1 42 1z"/>
   <path id="16" class="fil22" d="M3942 15398l0 -11c-9,0 -20,1 -29,1l-33 -1 0 11c12,1 18,7 18,17 0,4 0,4 -2,9l-38 93 -43 -102c-1,-4 -2,-5 -2,-7 0,-10 14,-10 21,-10l0 -11 -41 1c-10,0 -25,-1 -37,-1l0 11c18,0 26,0 31,14l57 138 -10 23c-8,21 -19,47 -43,47 -2,0 -11,0 -18,-7 12,-1 15,-10 15,-16 0,-10 -7,-16 -16,-16 -7,0 -16,5 -16,17 0,17 16,30 35,30 24,0 40,-21 49,-43l67 -162c10,-24 29,-25 35,-25z"/>
   <path id="17" class="fil22" d="M4086 15502c0,-20 -11,-32 -16,-36 -12,-13 -27,-16 -43,-19 -21,-4 -47,-9 -47,-31 0,-13 10,-29 43,-29 42,0 44,35 44,46 1,4 5,4 5,4 5,0 5,-2 5,-9l0 -39c0,-6 0,-9 -4,-9 -2,0 -3,0 -8,5 -1,1 -5,5 -6,6 -15,-11 -30,-11 -36,-11 -46,0 -61,26 -61,47 0,13 6,24 16,32 13,10 23,12 51,18 8,1 39,7 39,35 0,19 -13,34 -43,34 -32,0 -45,-21 -53,-54 -1,-5 -1,-6 -5,-6 -5,0 -5,2 -5,9l0 50c0,7 0,10 4,10 2,0 3,-1 10,-8 1,-1 1,-2 7,-9 17,16 34,17 42,17 44,0 61,-26 61,-53l0 0z"/>
   <path id="18" class="fil22" d="M4193 15550l0 -11c-25,0 -26,-2 -26,-17l0 -140 -54 5 0 11c25,0 29,3 29,21l0 103c0,17 -5,17 -30,17l0 11 42 -1c13,0 26,1 39,1zm-21 -229c0,-10 -8,-20 -20,-20 -13,0 -20,10 -20,20 0,10 8,20 20,20 13,0 20,-11 20,-20z"/>
   <path id="19" class="fil22" d="M4342 15502c0,-20 -12,-32 -16,-36 -13,-13 -28,-16 -43,-19 -22,-4 -47,-9 -47,-31 0,-13 10,-29 42,-29 42,0 44,35 45,46 0,4 4,4 4,4 5,0 5,-2 5,-9l0 -39c0,-6 0,-9 -4,-9 -2,0 -3,0 -8,5 -1,1 -4,5 -6,6 -14,-11 -30,-11 -36,-11 -46,0 -60,26 -60,47 0,13 6,24 16,32 12,10 23,12 50,18 8,1 40,7 40,35 0,19 -14,34 -43,34 -32,0 -46,-21 -53,-54 -1,-5 -2,-6 -6,-6 -4,0 -4,2 -4,9l0 50c0,7 0,10 4,10 2,0 2,-1 9,-8 1,-1 1,-2 8,-9 17,16 34,17 42,17 43,0 61,-26 61,-53l0 0z"/>
   <path class="fil22" d="M616 17264l0 -11 -7 0c-23,0 -28,-3 -32,-16l-82 -237c-2,-5 -3,-8 -9,-8 -6,0 -7,3 -9,8l-79 227c-7,20 -22,25 -43,26l0 11 39 -1 44 1 0 -11c-19,0 -29,-10 -29,-20 0,-1 1,-5 1,-5l18 -50 94 0 20 58c0,1 1,4 1,5 0,12 -21,12 -32,12l0 11c14,-1 41,-1 55,-1l50 1zm-99 -98l-85 0 42 -123 43 123z"/>
   <path id="1" class="fil22" d="M818 17264l0 -11c-27,0 -30,-3 -30,-22l0 -230 -54 4 0 12c26,0 29,2 29,21l0 82c-11,-14 -27,-24 -48,-24 -44,0 -84,38 -84,87 0,48 37,86 80,86 25,0 42,-13 51,-25l0 25 56 -5zm-56 -44c0,6 0,7 -4,14 -11,18 -29,26 -45,26 -17,0 -31,-10 -40,-24 -10,-16 -11,-37 -11,-53 0,-14 1,-37 12,-54 8,-12 22,-24 43,-24 13,0 29,6 41,23 4,6 4,7 4,14l0 78z"/>
   <path id="2" class="fil22" d="M1022 17112l0 -11c-9,0 -20,1 -28,1l-34 -1 0 11c15,1 19,10 19,17 0,3 -1,5 -3,9l-38 97 -43 -106c-2,-5 -2,-7 -2,-7 0,-10 15,-10 21,-10l0 -11 -41 1c-10,0 -25,-1 -37,-1l0 11c24,0 26,3 31,14l54 135c3,6 3,8 8,8 5,0 7,-4 8,-8l50 -123c3,-9 10,-25 35,-26z"/>
   <path id="3" class="fil22" d="M1192 17231l0 -22 -10 0 0 22c0,22 -9,24 -13,24 -13,0 -14,-17 -14,-19l0 -76c0,-16 0,-31 -14,-45 -15,-15 -34,-21 -52,-21 -31,0 -57,18 -57,43 0,12 7,18 17,18 11,0 17,-8 17,-17 0,-5 -1,-18 -19,-18 10,-13 29,-17 41,-17 19,0 40,14 40,48l0 14c-19,1 -46,3 -70,14 -28,13 -38,33 -38,49 0,31 37,41 61,41 25,0 43,-16 50,-33 2,15 12,31 30,31 8,0 31,-6 31,-36l0 0zm-64 -20c0,36 -27,49 -44,49 -19,0 -34,-13 -34,-32 0,-21 16,-52 78,-55l0 38z"/>
   <path id="4" class="fil22" d="M1402 17264l0 -11c-20,0 -30,0 -30,-12l0 -72c0,-33 0,-45 -12,-58 -5,-7 -18,-15 -40,-15 -27,0 -45,17 -56,40l0 -40 -53 5 0 11c26,0 29,3 29,22l0 102c0,17 -4,17 -29,17l0 11 42 -1 43 1 0 -11c-25,0 -30,0 -30,-17l0 -70c0,-40 27,-61 52,-61 24,0 28,20 28,42l0 89c0,17 -4,17 -30,17l0 11 43 -1 43 1z"/>
   <path id="5" class="fil22" d="M1567 17219c0,-4 -3,-4 -5,-4 -3,0 -4,2 -5,4 -11,36 -35,40 -49,40 -20,0 -54,-16 -54,-77 0,-62 31,-78 51,-78 4,0 28,0 41,14 -16,1 -18,12 -18,17 0,10 7,18 18,18 10,0 17,-7 17,-18 0,-26 -29,-41 -58,-41 -47,0 -82,41 -82,88 0,49 37,87 81,87 51,0 63,-46 63,-50z"/>
   <path id="6" class="fil22" d="M1736 17219c0,-4 -3,-4 -5,-4 -3,0 -4,2 -5,5 -13,39 -47,39 -51,39 -19,0 -34,-11 -43,-25 -11,-19 -11,-44 -11,-57l106 0c8,0 9,0 9,-8 0,-38 -20,-75 -68,-75 -44,0 -79,39 -79,87 0,51 40,88 84,88 46,0 63,-43 63,-50zm-25 -50l-90 0c2,-57 34,-66 47,-66 39,0 43,51 43,66z"/>
   <path id="7" class="fil22" d="M1947 17264l0 -11c-26,0 -29,-3 -29,-22l0 -230 -55 4 0 12c27,0 30,2 30,21l0 82c-11,-14 -28,-24 -48,-24 -45,0 -85,38 -85,87 0,48 37,86 81,86 24,0 41,-13 50,-25l0 25 56 -5zm-56 -44c0,6 0,7 -4,14 -11,18 -28,26 -45,26 -17,0 -30,-10 -39,-24 -10,-16 -11,-37 -11,-53 0,-14 0,-37 11,-54 8,-12 23,-24 43,-24 14,0 30,6 41,23 4,6 4,7 4,14l0 78z"/>
   <path id="8" class="fil22" d="M2354 17137c0,-72 -52,-132 -117,-132l-139 0 0 12 9 0c30,0 30,4 30,18l0 200c0,13 0,18 -30,18l-9 0 0 11 139 0c64,0 117,-56 117,-127zm-38 0c0,42 -8,65 -21,83 -8,11 -30,33 -68,33l-38 0c-18,0 -19,-3 -19,-16l0 -205c0,-13 1,-15 19,-15l38 0c23,0 49,8 69,35 16,22 20,55 20,85z"/>
   <path id="9" class="fil22" d="M2565 17194c0,-38 -25,-69 -57,-77l-49 -12c-23,-5 -38,-26 -38,-48 0,-27 20,-50 50,-50 63,0 72,62 74,80 0,2 0,4 5,4 5,0 5,-2 5,-9l0 -76c0,-7 0,-9 -5,-9 -2,0 -3,0 -5,4l-14 22c-11,-11 -27,-26 -60,-26 -43,0 -74,33 -74,73 0,32 20,60 49,70 4,1 24,6 50,12 11,3 22,6 33,20 8,10 12,22 12,35 0,27 -19,54 -51,54 -11,0 -40,-2 -60,-21 -22,-20 -24,-44 -24,-58 0,-4 -3,-4 -5,-4 -4,0 -4,3 -4,10l0 76c0,6 0,9 4,9 2,0 3,-1 5,-5 0,0 2,-2 14,-22 12,13 36,27 70,27 44,0 75,-37 75,-79z"/>
   <path id="10" class="fil22" d="M2973 17093l-7 -86 -232 0 -7 86 9 0c6,-62 11,-74 69,-74 6,0 16,0 20,1 8,1 8,5 8,14l0 200c0,13 0,19 -40,19l-15 0 0 11c16,-1 54,-1 72,-1 17,0 56,0 72,1l0 -11 -15 0c-40,0 -40,-6 -40,-19l0 -200c0,-7 0,-13 7,-14 4,-1 14,-1 21,-1 58,0 64,12 69,74l9 0z"/>
   <path id="11" class="fil22" d="M3114 17219c0,-4 -3,-4 -5,-4 -4,0 -5,2 -5,5 -14,39 -48,39 -52,39 -19,0 -34,-11 -43,-25 -11,-19 -11,-44 -11,-57l106 0c8,0 10,0 10,-8 0,-38 -21,-75 -68,-75 -45,0 -79,39 -79,87 0,51 39,88 83,88 46,0 64,-43 64,-50zm-25 -50l-91 0c3,-57 35,-66 48,-66 39,0 43,51 43,66z"/>
   <path id="12" class="fil22" d="M3282 17219c0,-4 -3,-4 -5,-4 -3,0 -4,2 -5,4 -11,36 -35,40 -49,40 -20,0 -54,-16 -54,-77 0,-62 31,-78 51,-78 4,0 28,0 41,14 -16,1 -18,12 -18,17 0,10 7,18 18,18 10,0 17,-7 17,-18 0,-26 -29,-41 -58,-41 -47,0 -82,41 -82,88 0,49 37,87 81,87 51,0 63,-46 63,-50z"/>
   <path id="13" class="fil22" d="M3486 17264l0 -11c-20,0 -29,0 -30,-12l0 -72c0,-33 0,-45 -11,-58 -6,-7 -18,-15 -40,-15 -32,0 -49,23 -55,37l0 0 0 -132 -55 4 0 12c26,0 30,2 30,21l0 198c0,17 -5,17 -30,17l0 11 43 -1 42 1 0 -11c-25,0 -29,0 -29,-17l0 -70c0,-40 27,-61 51,-61 24,0 28,20 28,42l0 89c0,17 -4,17 -29,17l0 11 42 -1 43 1z"/>
   <path id="14" class="fil22" d="M3697 17264l0 -11c-19,0 -29,0 -29,-12l0 -72c0,-33 0,-45 -12,-58 -5,-7 -18,-15 -40,-15 -28,0 -46,17 -56,40l0 -40 -54 5 0 11c27,0 30,3 30,22l0 102c0,17 -4,17 -30,17l0 11 43 -1 43 1 0 -11c-26,0 -30,0 -30,-17l0 -70c0,-40 27,-61 51,-61 24,0 28,20 28,42l0 89c0,17 -4,17 -29,17l0 11 43 -1 42 1z"/>
   <path id="15" class="fil22" d="M3799 17264l0 -11c-25,0 -26,-2 -26,-17l0 -140 -54 5 0 11c25,0 28,3 28,21l0 103c0,17 -4,17 -29,17l0 11 42 -1c13,0 26,1 39,1zm-21 -229c0,-10 -9,-20 -20,-20 -13,0 -20,10 -20,20 0,10 8,20 20,20 13,0 20,-11 20,-20z"/>
   <path id="16" class="fil22" d="M4011 17338l0 -12c-25,0 -29,0 -29,-17l0 -213 -9 0 -14 35c-5,-11 -21,-35 -51,-35 -44,0 -84,37 -84,87 0,47 37,86 81,86 26,0 42,-17 50,-28l0 68c0,17 -4,17 -29,17l0 12 42 -1 43 1zm-55 -125c0,12 -6,23 -15,32 -5,5 -17,15 -35,15 -27,0 -51,-34 -51,-77 0,-45 27,-77 55,-77 30,0 46,33 46,53l0 54z"/>
   <path id="17" class="fil22" d="M4215 17264l0 -11c-27,0 -30,-3 -30,-22l0 -135 -56 5 0 11c27,0 30,3 30,22l0 67c0,33 -18,59 -46,59 -32,0 -33,-18 -33,-37l0 -127 -56 5 0 11c29,0 29,2 29,35l0 57c0,30 0,65 58,65 21,0 38,-11 49,-35l0 35 55 -5z"/>
   <path id="18" class="fil22" d="M4381 17219c0,-4 -3,-4 -5,-4 -4,0 -5,2 -5,5 -14,39 -48,39 -52,39 -19,0 -34,-11 -43,-25 -11,-19 -11,-44 -11,-57l106 0c8,0 10,0 10,-8 0,-38 -21,-75 -68,-75 -45,0 -80,39 -80,87 0,51 40,88 84,88 46,0 64,-43 64,-50zm-26 -50l-90 0c3,-57 35,-66 48,-66 39,0 42,51 42,66z"/>
   <path id="19" class="fil22" d="M4528 17216c0,-20 -11,-32 -16,-36 -12,-12 -27,-16 -43,-19 -21,-4 -47,-9 -47,-31 0,-13 10,-29 43,-29 42,0 44,35 44,46 1,4 5,4 5,4 5,0 5,-2 5,-9l0 -39c0,-6 0,-9 -4,-9 -2,0 -3,0 -8,5 -1,1 -5,5 -6,6 -15,-11 -30,-11 -36,-11 -46,0 -61,26 -61,47 0,13 6,24 16,32 13,10 23,12 51,18 8,1 39,7 39,35 0,19 -13,34 -43,34 -32,0 -45,-21 -53,-54 -1,-5 -1,-6 -5,-6 -5,0 -5,2 -5,9l0 50c0,7 0,10 4,10 2,0 3,-1 10,-8 1,-1 1,-2 7,-9 17,16 34,17 42,17 44,0 61,-26 61,-53l0 0z"/>
   <path class="fil22" d="M519 18850c0,-78 -57,-139 -126,-139 -68,0 -127,60 -127,139 0,78 59,137 127,137 69,0 126,-61 126,-137zm-39 -6c0,101 -52,133 -87,133 -37,0 -87,-33 -87,-133 0,-98 55,-124 87,-124 33,0 87,27 87,124z"/>
   <path id="1" class="fil22" d="M739 18896c0,-48 -37,-85 -80,-85 -29,0 -45,16 -53,25l0 -25 -55 4 0 11c27,0 30,3 30,19l0 178c0,17 -4,17 -30,17l0 12 43 -1 43 1 0 -12c-26,0 -30,0 -30,-17l0 -64 0 -3c2,6 18,27 47,27 45,0 85,-38 85,-87l0 0zm-32 0c0,46 -26,78 -55,78 -15,0 -29,-7 -39,-23 -6,-8 -6,-8 -6,-16l0 -85c11,-19 30,-30 49,-30 28,0 51,33 51,76l0 0z"/>
   <path id="2" class="fil22" d="M920 18933c0,-4 -3,-4 -5,-4 -3,0 -4,2 -5,5 -13,39 -47,39 -51,39 -19,0 -34,-11 -43,-25 -11,-19 -11,-44 -11,-57l106 0c8,0 9,0 9,-8 0,-38 -20,-75 -68,-75 -44,0 -79,39 -79,87 0,51 40,88 84,88 46,0 63,-43 63,-50zm-25 -50l-90 0c3,-57 34,-66 47,-66 39,0 43,51 43,66z"/>
   <path id="3" class="fil22" d="M1135 18978l0 -11c-20,0 -30,0 -30,-12l0 -72c0,-33 0,-45 -12,-58 -5,-7 -18,-14 -40,-14 -27,0 -45,16 -56,39l0 -39 -53 4 0 11c26,0 29,3 29,22l0 102c0,17 -4,17 -29,17l0 11 42 -1 43 1 0 -11c-25,0 -30,0 -30,-17l0 -70c0,-40 27,-61 52,-61 24,0 28,20 28,42l0 89c0,17 -4,17 -30,17l0 11 43 -1 43 1z"/>
   <path id="4" class="fil22" d="M1332 18908c0,-38 -25,-69 -57,-77l-48 -12c-24,-5 -39,-26 -39,-48 0,-27 21,-50 50,-50 64,0 72,63 75,80 0,2 0,4 4,4 5,0 5,-2 5,-9l0 -76c0,-7 0,-9 -4,-9 -3,0 -3,0 -6,5l-13 21c-12,-11 -27,-26 -61,-26 -42,0 -74,33 -74,73 0,32 20,60 50,70 4,1 23,6 50,12 10,3 22,6 32,20 8,10 12,22 12,35 0,27 -19,54 -51,54 -11,0 -40,-2 -60,-20 -22,-21 -23,-45 -24,-59 0,-4 -3,-4 -4,-4 -5,0 -5,3 -5,10l0 76c0,6 0,9 4,9 3,0 3,-1 6,-5 0,0 1,-2 14,-22 11,13 36,27 69,27 45,0 75,-37 75,-79z"/>
   <path id="5" class="fil22" d="M1533 18897c0,-48 -38,-89 -84,-89 -48,0 -84,42 -84,89 0,49 39,86 84,86 46,0 84,-38 84,-86zm-32 -3c0,14 0,34 -8,51 -8,17 -25,28 -44,28 -16,0 -33,-8 -43,-25 -10,-17 -10,-40 -10,-54 0,-15 0,-35 9,-52 11,-17 28,-25 44,-25 16,0 33,8 43,24 9,17 9,39 9,53z"/>
   <path id="6" class="fil22" d="M1747 18978l0 -11c-26,0 -29,-3 -29,-22l0 -134 -56 4 0 11c26,0 29,3 29,22l0 67c0,33 -18,59 -46,59 -32,0 -33,-18 -33,-37l0 -126 -56 4 0 11c30,0 30,2 30,35l0 57c0,30 0,65 58,65 21,0 38,-11 49,-35l0 35 54 -5z"/>
   <path id="7" class="fil22" d="M1894 18834c0,-12 -12,-23 -29,-23 -27,0 -41,25 -46,41l0 -41 -53 4 0 11c26,0 30,3 30,22l0 102c0,17 -5,17 -30,17l0 11 43 -1c15,0 33,0 48,1l0 -11 -8 0c-28,0 -28,-4 -28,-18l0 -59c0,-37 16,-71 44,-71 3,0 4,0 5,0 -2,1 -9,5 -9,15 0,11 8,16 16,16 7,0 17,-4 17,-16l0 0z"/>
   <path id="8" class="fil22" d="M2062 18933c0,-4 -4,-4 -5,-4 -3,0 -4,2 -5,4 -11,36 -36,40 -50,40 -20,0 -53,-16 -53,-77 0,-62 31,-78 51,-78 3,0 27,0 41,14 -16,1 -18,12 -18,17 0,10 7,18 17,18 10,0 18,-7 18,-18 0,-26 -29,-41 -58,-41 -48,0 -83,41 -83,88 0,49 38,87 82,87 51,0 63,-46 63,-50z"/>
   <path id="9" class="fil22" d="M2231 18933c0,-4 -3,-4 -5,-4 -4,0 -4,2 -5,5 -14,39 -48,39 -52,39 -19,0 -34,-11 -42,-25 -12,-19 -12,-44 -12,-57l106 0c8,0 10,0 10,-8 0,-38 -21,-75 -68,-75 -44,0 -79,39 -79,87 0,51 39,88 83,88 47,0 64,-43 64,-50zm-25 -50l-91 0c3,-57 35,-66 48,-66 39,0 43,51 43,66z"/>
   <path id="10" class="fil22" d="M2621 18890c0,-4 0,-7 -5,-7 -4,0 -4,3 -5,7 -3,54 -43,85 -85,85 -23,0 -97,-13 -97,-126 0,-114 74,-127 97,-127 41,0 75,35 83,90 1,6 1,7 6,7 6,0 6,-1 6,-9l0 -90c0,-7 0,-9 -4,-9 -2,0 -3,0 -6,4l-19 28c-14,-13 -34,-32 -70,-32 -71,0 -133,60 -133,138 0,78 62,138 133,138 62,0 99,-53 99,-97z"/>
   <path id="11" class="fil22" d="M2822 18897c0,-48 -38,-89 -84,-89 -48,0 -85,42 -85,89 0,49 40,86 84,86 46,0 85,-38 85,-86zm-32 -3c0,14 0,34 -8,51 -9,17 -25,28 -44,28 -17,0 -33,-8 -44,-25 -9,-17 -9,-40 -9,-54 0,-15 0,-35 9,-52 10,-17 28,-25 43,-25 17,0 33,8 43,24 10,17 10,39 10,53z"/>
   <path id="12" class="fil22" d="M2929 18978l0 -11c-25,0 -29,0 -29,-17l0 -235 -55 4 0 12c27,0 30,2 30,21l0 198c0,17 -4,17 -30,17l0 11 42 -1 42 1z"/>
   <path id="13" class="fil22" d="M3035 18978l0 -11c-25,0 -30,0 -30,-17l0 -235 -54 4 0 12c26,0 29,2 29,21l0 198c0,17 -4,17 -29,17l0 11 42 -1 42 1z"/>
   <path id="14" class="fil22" d="M3227 18945l0 -22 -9 0 0 22c0,22 -10,24 -14,24 -12,0 -14,-17 -14,-19l0 -76c0,-16 0,-31 -14,-45 -14,-15 -33,-21 -52,-21 -31,0 -57,18 -57,43 0,12 8,18 18,18 10,0 17,-8 17,-17 0,-5 -2,-18 -19,-18 10,-13 29,-17 41,-17 18,0 40,14 40,48l0 14c-19,1 -46,3 -70,14 -28,13 -38,33 -38,49 0,31 37,41 61,41 25,0 42,-16 50,-33 1,15 11,31 29,31 8,0 31,-6 31,-36l0 0zm-63 -20c0,36 -27,49 -45,49 -18,0 -34,-13 -34,-32 0,-21 16,-52 79,-55l0 38z"/>
   <path id="15" class="fil22" d="M3432 18896c0,-48 -37,-85 -81,-85 -29,0 -46,17 -52,24l0 -120 -54 4 0 12c26,0 29,2 29,21l0 226 10 0 13 -23c6,9 22,28 50,28 45,0 85,-38 85,-87zm-32 0c0,14 0,37 -11,54 -8,12 -23,24 -43,24 -17,0 -31,-9 -40,-23 -6,-8 -6,-9 -6,-16l0 -78c0,-7 0,-8 5,-14 14,-21 35,-24 44,-24 17,0 31,10 40,24 10,16 11,37 11,53l0 0z"/>
   <path id="16" class="fil22" d="M3635 18897c0,-48 -38,-89 -84,-89 -48,0 -85,42 -85,89 0,49 40,86 84,86 46,0 85,-38 85,-86zm-32 -3c0,14 0,34 -8,51 -8,17 -25,28 -44,28 -17,0 -33,-8 -44,-25 -9,-17 -9,-40 -9,-54 0,-15 0,-35 9,-52 10,-17 28,-25 43,-25 17,0 33,8 43,24 10,17 10,39 10,53z"/>
   <path id="17" class="fil22" d="M3784 18834c0,-12 -12,-23 -28,-23 -28,0 -41,25 -47,41l0 -41 -53 4 0 11c27,0 30,3 30,22l0 102c0,17 -4,17 -30,17l0 11 44 -1c15,0 33,0 48,1l0 -11 -8 0c-28,0 -29,-4 -29,-18l0 -59c0,-37 16,-71 45,-71 3,0 3,0 4,0 -1,1 -9,5 -9,15 0,11 8,16 17,16 7,0 16,-4 16,-16l0 0z"/>
   <path id="18" class="fil22" d="M3978 18945l0 -22 -9 0 0 22c0,22 -10,24 -14,24 -12,0 -14,-17 -14,-19l0 -76c0,-16 0,-31 -14,-45 -14,-15 -33,-21 -52,-21 -31,0 -57,18 -57,43 0,12 8,18 17,18 11,0 18,-8 18,-17 0,-5 -2,-18 -19,-18 10,-13 28,-17 41,-17 18,0 40,14 40,48l0 14c-20,1 -46,3 -70,14 -29,13 -38,33 -38,49 0,31 37,41 61,41 25,0 42,-16 50,-33 1,15 11,31 29,31 8,0 31,-6 31,-36l0 0zm-63 -20c0,36 -28,49 -45,49 -18,0 -34,-13 -34,-32 0,-21 16,-52 79,-55l0 38z"/>
   <path id="19" class="fil22" d="M4111 18931l0 -21 -10 0 0 21c0,28 -11,42 -25,42 -25,0 -25,-34 -25,-41l0 -106 54 0 0 -11 -54 0 0 -70 -10 0c0,31 -12,72 -49,73l0 8 32 0 0 105c0,47 36,52 49,52 27,0 38,-27 38,-52l0 0z"/>
   <path id="20" class="fil22" d="M4226 18978l0 -11c-25,0 -26,-2 -26,-17l0 -139 -53 4 0 11c24,0 28,3 28,21l0 103c0,17 -4,17 -30,17l0 11 42 -1c13,0 27,1 39,1zm-20 -229c0,-10 -9,-20 -21,-20 -13,0 -20,10 -20,20 0,10 9,20 20,20 13,0 21,-11 21,-20z"/>
   <path id="21" class="fil22" d="M4417 18897c0,-48 -38,-89 -84,-89 -47,0 -84,42 -84,89 0,49 39,86 84,86 46,0 84,-38 84,-86zm-31 -3c0,14 0,34 -9,51 -8,17 -25,28 -44,28 -16,0 -33,-8 -43,-25 -10,-17 -10,-40 -10,-54 0,-15 0,-35 10,-52 10,-17 28,-25 43,-25 17,0 33,8 43,24 10,17 10,39 10,53z"/>
   <path id="22" class="fil22" d="M4632 18978l0 -11c-20,0 -30,0 -30,-12l0 -72c0,-33 0,-45 -12,-58 -5,-7 -18,-14 -40,-14 -28,0 -45,16 -56,39l0 -39 -54 4 0 11c27,0 30,3 30,22l0 102c0,17 -4,17 -30,17l0 11 43 -1 43 1 0 -11c-26,0 -30,0 -30,-17l0 -70c0,-40 27,-61 52,-61 24,0 28,20 28,42l0 89c0,17 -4,17 -30,17l0 11 43 -1 43 1z"/>
   <path class="fil22" d="M9134 198c0,-33 -31,-61 -73,-66 37,-7 63,-31 63,-59 0,-33 -35,-65 -84,-65l-139 0 0 12 9 0c29,0 30,4 30,18l0 200c0,14 -1,18 -30,18l-9 0 0 12 149 0c50,0 84,-34 84,-70l0 0zm-47 -125c0,24 -18,56 -61,56l-55 0 0 -94c0,-12 1,-15 19,-15l47 0c37,0 50,32 50,53l0 0zm9 125c0,27 -19,58 -59,58l-47 0c-18,0 -19,-3 -19,-15l0 -104 72 0c37,0 53,36 53,61l0 0z"/>
   <path id="1" class="fil22" d="M9340 234l0 -21 -10 0 0 21c0,22 -9,24 -14,24 -12,0 -14,-17 -14,-19l0 -76c0,-16 0,-30 -13,-44 -15,-15 -34,-21 -52,-21 -32,0 -58,18 -58,43 0,11 8,17 18,17 10,0 17,-7 17,-17 0,-5 -2,-17 -19,-17 10,-14 29,-18 41,-18 18,0 40,15 40,49l0 14c-19,1 -46,2 -70,13 -28,13 -38,33 -38,50 0,31 37,40 61,40 25,0 43,-15 50,-33 1,15 12,31 29,31 8,0 32,-5 32,-36l0 0zm-64 -19c0,36 -27,49 -44,49 -19,0 -35,-14 -35,-33 0,-20 16,-52 79,-54l0 38z"/>
   <path id="2" class="fil22" d="M9504 223c0,-4 -4,-4 -5,-4 -4,0 -4,1 -5,4 -11,35 -36,40 -50,40 -20,0 -54,-17 -54,-78 0,-62 32,-78 52,-78 3,0 27,1 40,14 -15,1 -17,13 -17,18 0,10 6,17 17,17 10,0 18,-6 18,-18 0,-26 -29,-40 -59,-40 -47,0 -82,41 -82,88 0,48 38,86 82,86 51,0 63,-46 63,-49z"/>
   <path id="3" class="fil22" d="M9698 268l0 -12c-14,0 -22,0 -37,-20l-48 -68c0,-1 -2,-3 -2,-4 0,-2 27,-25 31,-28 24,-19 40,-20 48,-20l0 -12c-11,1 -16,1 -27,1 -14,0 -37,-1 -43,-1l0 12c8,0 11,4 11,9 0,8 -5,13 -8,15l-54 47 0 -183 -54 4 0 12c26,0 29,3 29,21l0 198c0,17 -4,17 -29,17l0 12 41 -1 42 1 0 -12c-25,0 -30,0 -30,-17l0 -39 25 -21c29,40 45,62 45,68 0,8 -7,9 -14,9l0 12 41 -1c11,0 22,0 33,1z"/>
   <path id="4" class="fil22" d="M9889 114c0,-6 -4,-18 -19,-18 -8,0 -25,2 -41,18 -16,-13 -32,-14 -40,-14 -35,0 -61,26 -61,55 0,17 8,32 17,40 -5,5 -11,18 -11,31 0,12 5,26 16,34 -22,6 -35,23 -35,38 0,27 38,48 84,48 45,0 85,-19 85,-49 0,-13 -6,-33 -25,-43 -20,-11 -42,-11 -65,-11 -10,0 -26,0 -29,0 -12,-2 -20,-13 -20,-26 0,-1 0,-10 7,-17 14,10 30,11 37,11 35,0 62,-26 62,-55 0,-14 -6,-28 -16,-37 14,-13 27,-15 34,-15 0,0 3,0 4,0 -4,2 -6,6 -6,11 0,6 5,11 11,11 4,0 11,-3 11,-12l0 0zm-67 41c0,11 0,23 -6,32 -3,5 -12,16 -27,16 -33,0 -33,-38 -33,-47 0,-10 0,-23 6,-32 3,-5 12,-15 27,-15 33,0 33,38 33,46l0 0zm42 143c0,20 -27,39 -64,39 -39,0 -65,-19 -65,-39 0,-18 15,-32 31,-33l23 0c32,0 75,0 75,33z"/>
   <path id="5" class="fil22" d="M10033 123c0,-12 -12,-23 -28,-23 -28,0 -41,25 -47,42l0 -42 -53 4 0 12c27,0 30,3 30,21l0 102c0,17 -4,17 -30,17l0 12 44 -1c15,0 33,0 48,1l0 -12 -8 0c-28,0 -29,-4 -29,-18l0 -58c0,-38 16,-72 45,-72 3,0 3,0 4,1 -1,0 -9,5 -9,15 0,10 8,16 17,16 7,0 16,-5 16,-17l0 0z"/>
   <path id="6" class="fil22" d="M10223 187c0,-49 -38,-89 -84,-89 -48,0 -85,41 -85,89 0,49 40,85 84,85 46,0 85,-37 85,-85zm-32 -3c0,13 0,34 -8,50 -9,18 -25,29 -44,29 -17,0 -33,-8 -44,-26 -9,-17 -9,-40 -9,-53 0,-15 0,-36 9,-53 10,-17 28,-25 43,-25 17,0 33,8 43,25 10,16 10,38 10,53z"/>
   <path id="7" class="fil22" d="M10437 268l0 -12c-27,0 -30,-3 -30,-21l0 -135 -55 4 0 12c26,0 29,3 29,21l0 68c0,33 -18,59 -46,59 -32,0 -33,-18 -33,-38l0 -126 -56 4 0 12c30,0 30,1 30,35l0 57c0,29 0,64 57,64 22,0 38,-11 49,-34l0 34 55 -4z"/>
   <path id="8" class="fil22" d="M10648 268l0 -12c-19,0 -29,0 -29,-11l0 -73c0,-33 0,-44 -12,-58 -5,-6 -18,-14 -40,-14 -28,0 -46,16 -56,40l0 -40 -54 4 0 12c27,0 30,3 30,21l0 102c0,17 -4,17 -30,17l0 12 43 -1 43 1 0 -12c-26,0 -30,0 -30,-17l0 -70c0,-39 27,-61 51,-61 24,0 28,21 28,42l0 89c0,17 -4,17 -29,17l0 12 43 -1 42 1z"/>
   <path id="9" class="fil22" d="M10857 268l0 -12c-27,0 -30,-3 -30,-21l0 -231 -55 4 0 12c27,0 30,3 30,21l0 83c-11,-14 -28,-24 -48,-24 -45,0 -85,37 -85,86 0,48 37,86 81,86 24,0 41,-13 51,-25l0 25 56 -4zm-56 -45c0,7 0,8 -4,14 -12,18 -29,27 -45,27 -17,0 -31,-10 -40,-25 -10,-15 -11,-37 -11,-52 0,-14 1,-37 12,-54 8,-12 22,-25 42,-25 14,0 30,6 42,23 4,7 4,7 4,14l0 78z"/>
   <path id="10" class="fil22" d="M11152 223c0,-4 -4,-4 -5,-4 -4,0 -4,1 -5,4 -11,35 -36,40 -50,40 -20,0 -53,-17 -53,-78 0,-62 31,-78 51,-78 3,0 27,1 41,14 -16,1 -18,13 -18,18 0,10 7,17 17,17 10,0 18,-6 18,-18 0,-26 -29,-40 -58,-40 -48,0 -83,41 -83,88 0,48 38,86 82,86 51,0 63,-46 63,-49z"/>
   <path id="11" class="fil22" d="M11342 187c0,-49 -38,-89 -84,-89 -48,0 -84,41 -84,89 0,49 39,85 83,85 46,0 85,-37 85,-85zm-32 -3c0,13 0,34 -8,50 -8,18 -25,29 -44,29 -16,0 -33,-8 -43,-26 -10,-17 -10,-40 -10,-53 0,-15 0,-36 9,-53 10,-17 28,-25 43,-25 17,0 34,8 43,25 10,16 10,38 10,53z"/>
   <path id="12" class="fil22" d="M11450 268l0 -12c-26,0 -30,0 -30,-17l0 -235 -55 4 0 12c27,0 30,3 30,21l0 198c0,17 -4,17 -30,17l0 12 43 -1 42 1z"/>
   <path id="13" class="fil22" d="M11637 187c0,-49 -38,-89 -83,-89 -48,0 -85,41 -85,89 0,49 40,85 84,85 46,0 84,-37 84,-85zm-31 -3c0,13 0,34 -8,50 -9,18 -25,29 -44,29 -17,0 -34,-8 -44,-26 -9,-17 -9,-40 -9,-53 0,-15 0,-36 9,-53 10,-17 28,-25 43,-25 17,0 33,8 43,25 10,16 10,38 10,53z"/>
   <path id="14" class="fil22" d="M11787 123c0,-12 -12,-23 -28,-23 -28,0 -42,25 -47,42l0 -42 -53 4 0 12c27,0 30,3 30,21l0 102c0,17 -4,17 -30,17l0 12 43 -1c16,0 34,0 49,1l0 -12 -8 0c-28,0 -29,-4 -29,-18l0 -58c0,-38 16,-72 45,-72 2,0 3,0 4,1 -1,0 -9,5 -9,15 0,10 8,16 16,16 7,0 17,-5 17,-17l0 0z"/>
   <path id="15" class="fil22" d="M9375 714c0,-1 0,-1 -7,-8 -47,-48 -59,-120 -59,-178 0,-66 14,-132 61,-179 5,-5 5,-6 5,-7 0,-3 -2,-4 -4,-4 -4,0 -38,26 -60,74 -20,42 -24,84 -24,116 0,30 4,76 25,119 23,47 55,71 59,71 2,0 4,-1 4,-4z"/>
   <path id="16" class="fil22" d="M9568 547c0,-45 -32,-83 -73,-83 -18,0 -34,6 -48,19l0 -74c8,2 20,5 32,5 47,0 74,-35 74,-40 0,-2 -1,-4 -4,-4 0,0 -1,0 -3,1 -8,4 -26,11 -52,11 -15,0 -32,-2 -50,-10 -3,-1 -5,-1 -5,-1 -4,0 -4,3 -4,9l0 112c0,7 0,10 6,10 2,0 3,-1 5,-3 4,-6 18,-27 49,-27 19,0 29,18 32,24 6,14 7,29 7,48 0,14 0,36 -9,52 -9,15 -24,25 -41,25 -28,0 -49,-20 -56,-43 1,1 2,1 7,1 12,0 19,-9 19,-18 0,-10 -7,-19 -19,-19 -6,0 -19,3 -19,20 0,33 26,70 69,70 44,0 83,-37 83,-85l0 0z"/>
   <path id="17" class="fil22" d="M9762 502c0,-31 -2,-61 -15,-89 -18,-37 -49,-43 -65,-43 -23,0 -51,10 -66,45 -12,27 -14,56 -14,87 0,28 1,62 17,91 16,31 44,39 63,39 20,0 49,-8 66,-44 12,-27 14,-56 14,-86zm-32 -5c0,29 0,54 -4,79 -6,36 -27,47 -44,47 -15,0 -38,-9 -45,-46 -4,-22 -4,-57 -4,-80 0,-24 0,-49 3,-70 8,-45 36,-48 46,-48 12,0 37,6 44,44 4,21 4,50 4,74z"/>
   <path id="18" class="fil22" d="M10040 346c0,-4 -3,-8 -7,-8 -4,0 -6,3 -8,6 -19,25 -45,36 -72,36 -27,0 -51,-10 -72,-30 -7,-6 -15,-12 -27,-12 -29,0 -56,32 -56,77 0,46 28,76 56,76 28,0 49,-33 49,-76 0,-5 0,-23 -7,-43 24,14 43,16 57,16 29,0 48,-12 50,-13l1 0 -171 254c-3,5 -3,8 -3,8 0,4 4,8 7,8 4,0 5,-2 8,-6l192 -286c3,-4 3,-5 3,-7zm32 222c0,-44 -23,-77 -50,-77 -28,0 -55,32 -55,77 0,46 27,77 55,77 28,0 50,-34 50,-77zm-178 -153c0,41 -20,68 -40,68 -7,0 -32,-5 -32,-68 0,-63 24,-68 32,-68 21,0 40,28 40,68zm168 153c0,41 -19,68 -39,68 -8,0 -33,-5 -33,-68 0,-63 25,-68 33,-68 20,0 39,28 39,68l0 0z"/>
   <path id="19" class="fil22" d="M10317 623l0 -11c-26,0 -30,0 -30,-18l0 -234 -54 4 0 12c26,0 29,2 29,21l0 197c0,18 -4,18 -29,18l0 11 42 -1 42 1z"/>
   <path id="20" class="fil22" d="M10420 623l0 -11c-26,0 -27,-2 -27,-17l0 -140 -53 5 0 11c24,0 28,3 28,21l0 102c0,18 -4,18 -30,18l0 11 42 -1c13,0 27,1 40,1zm-21 -229c0,-10 -9,-20 -20,-20 -13,0 -21,10 -21,20 0,10 9,20 20,20 13,0 21,-11 21,-20z"/>
   <path id="21" class="fil22" d="M10616 470c0,-7 -5,-19 -20,-19 -7,0 -24,2 -40,18 -16,-13 -32,-14 -40,-14 -36,0 -62,27 -62,56 0,17 9,31 18,39 -5,6 -12,18 -12,31 0,12 5,27 17,34 -23,7 -35,23 -35,38 0,28 38,49 84,49 45,0 84,-20 84,-49 0,-14 -5,-33 -24,-44 -21,-10 -43,-10 -66,-10 -9,0 -26,0 -28,-1 -12,-1 -20,-13 -20,-25 0,-2 0,-11 6,-18 15,11 30,12 38,12 35,0 61,-27 61,-56 0,-14 -6,-28 -15,-37 13,-13 27,-14 34,-14 0,0 3,0 4,0 -4,1 -6,6 -6,10 0,7 5,11 11,11 3,0 11,-2 11,-11l0 0zm-67 41c0,10 -1,22 -6,32 -3,4 -12,15 -27,15 -33,0 -33,-38 -33,-47 0,-10 0,-22 6,-32 3,-4 12,-15 27,-15 33,0 33,38 33,47l0 0zm42 142c0,21 -27,40 -65,40 -38,0 -64,-20 -64,-40 0,-17 14,-31 31,-32l22 0c33,0 76,0 76,32z"/>
   <path id="22" class="fil22" d="M10825 623l0 -11c-20,0 -30,0 -30,-12l0 -72c0,-33 0,-45 -12,-59 -5,-6 -18,-14 -40,-14 -32,0 -48,23 -54,37l-1 0 0 -132 -54 4 0 12c26,0 29,2 29,21l0 197c0,18 -4,18 -29,18l0 11 42 -1 43 1 0 -11c-25,0 -30,0 -30,-18l0 -70c0,-39 27,-60 52,-60 24,0 28,20 28,42l0 88c0,18 -4,18 -30,18l0 11 43 -1 43 1z"/>
   <path id="23" class="fil22" d="M10948 576l0 -21 -9 0 0 20c0,29 -12,43 -26,43 -25,0 -25,-35 -25,-41l0 -106 54 0 0 -11 -54 0 0 -70 -10 0c0,31 -12,71 -49,73l0 8 33 0 0 105c0,47 35,51 49,51 27,0 37,-27 37,-51l0 0z"/>
   <path id="24" class="fil22" d="M11128 578c0,-4 -4,-4 -5,-4 -4,0 -5,2 -5,5 -14,39 -48,39 -52,39 -19,0 -34,-11 -43,-25 -11,-19 -11,-44 -11,-57l106 0c8,0 10,0 10,-8 0,-38 -21,-75 -69,-75 -44,0 -79,39 -79,87 0,51 40,87 84,87 46,0 64,-42 64,-49zm-26 -50l-90 0c3,-57 35,-67 47,-67 40,0 43,52 43,67z"/>
   <path id="25" class="fil22" d="M11277 479c0,-13 -12,-24 -28,-24 -28,0 -42,26 -47,42l0 -42 -53 5 0 11c27,0 30,3 30,22l0 101c0,18 -4,18 -30,18l0 11 44 -1c15,0 33,0 48,1l0 -11 -8 0c-28,0 -29,-5 -29,-18l0 -59c0,-37 16,-71 45,-71 2,0 3,0 4,0 -1,0 -9,5 -9,15 0,11 8,16 17,16 6,0 16,-4 16,-16l0 0z"/>
   <path id="26" class="fil22" d="M11397 528c0,-29 -4,-75 -25,-118 -23,-47 -55,-72 -59,-72 -2,0 -4,2 -4,4 0,1 0,2 7,9 38,37 59,98 59,177 0,65 -14,132 -61,180 -5,5 -5,5 -5,6 0,3 2,4 4,4 4,0 38,-26 60,-74 20,-42 24,-84 24,-116z"/>
  </g>
 </g>
</svg>
